ItalicLishuManuscript.sfdir
StartChar: uni4E59
Encoding: 12853 20057 827
Width: 1000
VWidth: 0
Flags: W
HStem: -100 98<320 446> 367 49<232.347 465.931>
LayerCount: 2
Back
Fore
SplineSet
456 428 m 0
 573 441 575 440 512 373 c 0
 488 348 458 310 444 290 c 0
 430 270 406 234 390 212 c 0
 374 190 354 157 345 140 c 0
 337 122 325 105 320 100 c 0
 315 95 310 88 310 85 c 0
 310 82 304 73 299 68 c 0
 281 50 279 26 295 11 c 0
 303 4 314 -2 320 -2 c 0
 325 -2 330 -5 330 -8 c 0
 330 -11 340 -17 352 -19 c 0
 364 -22 379 -27 384 -32 c 0
 398 -44 549 -44 616 -32 c 0
 648 -27 692 -14 714 -5 c 0
 761 14 772 16 772 2 c 0
 772 -20 759 -43 746 -43 c 0
 739 -43 715 -51 693 -61 c 0
 642 -85 522 -103 446 -100 c 0
 356 -97 258 -57 241 -16 c 0
 231 6 242 39 271 83 c 0
 283 101 320 157 352 205 c 0
 384 254 423 312 439 334 c 0
 454 356 466 375 466 377 c 0
 466 380 371 372 347 367 c 0
 291 355 228 362 228 381 c 0
 228 403 253 414 314 416 c 0
 347 417 411 423 456 428 c 0
EndSplineSet
EndChar
StartChar: uni4EA5
Encoding: 12391 20133 689
Width: 1000
VWidth: 0
Flags: W
HStem: 311 49<484.315 725.027>
LayerCount: 2
Back
Fore
SplineSet
439 449 m 0
 445 456 463 456 512 453 c 0
 547 450 577 447 578 446 c 0
 585 439 570 416 552 409 c 0
 532 401 468 403 442 413 c 0
 428 418 427 437 439 449 c 0
495 353 m 0
 514 356 570 359 621 360 c 0
 722 361 739 357 723 328 c 0
 714 311 727 312 600 311 c 0
 542 310 490 306 484 303 c 0
 478 299 457 279 438 258 c 0
 398 214 399 212 460 183 c 0
 499 165 497 164 536 240 c 0
 559 286 569 298 576 287 c 0
 579 282 551 218 520 160 c 0
 476 77 352 -33 329 -11 c 0
 323 -5 337 16 353 24 c 0
 398 48 452 99 449 115 c 0
 448 120 428 136 406 149 c 0
 384 161 361 176 356 181 c 0
 341 195 352 222 380 239 c 0
 407 255 438 287 433 294 c 0
 430 300 356 293 332 285 c 0
 303 276 267 278 267 288 c 0
 268 307 286 318 335 326 c 0
 392 336 445 344 495 353 c 0
626 196 m 0
 646 212 643 193 619 160 c 0
 568 89 557 69 565 59 c 0
 570 54 581 47 590 45 c 0
 612 40 680 -2 711 -29 c 0
 735 -50 737 -53 729 -70 c 0
 717 -98 697 -100 672 -77 c 0
 629 -36 538 21 516 21 c 0
 512 21 489 2 467 -22 c 0
 406 -84 327 -133 312 -118 c 0
 304 -110 323 -87 345 -77 c 0
 357 -72 381 -59 398 -47 c 0
 446 -15 561 102 589 147 c 0
 603 169 620 191 626 196 c 0
EndSplineSet
EndChar
StartChar: uni4EE5
Encoding: 12362 20197 660
Width: 1000
VWidth: 0
Flags: W
VStem: 347 40<102 327.437>
LayerCount: 2
Back
Fore
SplineSet
604 355 m 0
 622 377 660 359 660 328 c 0
 660 284 622 186 579 119 c 0
 526 34 510 17 454 -14 c 0
 389 -50 381 -23 446 15 c 0
 507 51 551 99 584 166 c 0
 621 239 630 300 606 324 c 0
 592 339 592 341 604 355 c 0
336 328 m 0
 344 345 346 346 362 334 c 0
 380 320 389 271 388 187 c 0
 387 143 387 105 387 102 c 0
 388 99 399 103 412 111 c 0
 443 129 502 145 507 138 c 0
 512 130 478 91 466 91 c 0
 461 91 451 88 444 85 c 0
 407 65 357 43 347 43 c 0
 341 43 333 40 330 37 c 0
 326 34 310 27 293 21 c 0
 276 16 257 9 251 6 c 0
 241 3 238 4 238 15 c 0
 238 32 256 44 308 64 c 2
 347 78 l 1
 347 169 l 2
 348 228 344 269 338 286 c 0
 332 304 331 316 336 328 c 0
429 271 m 0
 434 281 442 288 445 288 c 0
 458 288 531 239 531 230 c 0
 531 225 525 215 518 206 c 2
 505 189 l 1
 481 202 l 2
 467 209 448 223 438 234 c 0
 421 252 421 255 429 271 c 0
607 137 m 0
 619 149 631 147 670 129 c 0
 739 98 786 18 747 3 c 0
 734 -2 725 4 687 43 c 0
 663 68 633 94 621 101 c 0
 597 115 594 124 607 137 c 0
EndSplineSet
EndChar
StartChar: uni4F0A
Encoding: 12363 20234 661
Width: 1000
VWidth: 0
Flags: W
HStem: 265 52<582.719 628.795 701.6 784.851> 367 48<494 515.99>
VStem: 349 50<-108.576 147.982> 629 47<209.095 267>
LayerCount: 2
Back
Fore
SplineSet
378 444 m 0
 390 465 401 463 411 440 c 0
 422 414 411 368 380 310 c 0
 361 276 359 266 366 261 c 0
 380 252 389 253 394 265 c 0
 396 270 403 276 410 276 c 0
 420 276 520 302 526 306 c 0
 531 309 510 366 504 367 c 0
 471 377 471 376 483 396 c 2
 494 415 l 1
 583 414 l 2
 632 413 674 411 676 409 c 0
 677 407 679 388 680 366 c 2
 680 327 l 1
 734 317 l 2
 777 310 786 306 786 296 c 0
 786 270 767 261 721 265 c 2
 678 269 l 1
 676 240 l 2
 675 224 676 203 680 192 c 0
 685 177 685 171 674 160 c 0
 662 149 656 148 633 153 c 0
 592 163 583 158 578 117 c 0
 573 83 559 40 536 -10 c 0
 522 -39 457 -105 442 -105 c 0
 426 -105 429 -101 466 -62 c 0
 510 -16 534 42 536 104 c 2
 538 150 l 1
 507 149 l 2
 490 149 466 146 453 143 c 2
 429 137 l 1
 444 158 l 2
 455 174 469 181 493 187 c 0
 534 197 542 206 537 234 c 0
 532 258 522 260 455 248 c 0
 386 236 390 239 394 192 c 0
 405 77 406 36 399 -26 c 0
 393 -84 389 -97 375 -112 c 0
 348 -139 340 -125 349 -67 c 0
 362 17 365 87 355 148 c 0
 343 222 335 232 313 203 c 0
 296 181 237 140 223 140 c 0
 204 140 217 160 254 187 c 0
 326 239 395 364 377 410 c 0
 372 423 372 433 378 444 c 0
623 364 m 0
 605 374 568 373 565 363 c 0
 563 358 564 345 567 333 c 0
 572 314 576 313 600 316 c 0
 614 317 629 319 632 321 c 0
 642 327 636 357 623 364 c 0
629 238 m 0
 629 269 629 268 608 267 c 0
 584 265 580 259 583 230 c 0
 584 214 589 211 608 209 c 0
 630 207 629 207 629 238 c 0
EndSplineSet
EndChar
StartChar: uni4F1A
Encoding: 12913 20250 887
Width: 1000
VWidth: 0
Flags: W
HStem: -80 53<373.282 575.473> 118 47<569.003 666.532> 215 58<638.127 721.115>
LayerCount: 2
Back
Fore
SplineSet
452 428 m 0
 465 442 474 441 484 421 c 0
 495 399 517 372 523 372 c 0
 526 372 538 365 548 357 c 0
 601 315 632 295 680 273 c 0
 733 249 739 242 723 220 c 0
 715 209 710 208 676 215 c 0
 633 225 568 260 537 292 c 0
 493 338 459 366 449 362 c 0
 444 360 440 356 440 352 c 0
 440 348 432 333 422 321 c 0
 412 308 399 287 392 273 c 2
 380 249 l 1
 408 252 l 2
 424 254 455 259 477 263 c 0
 537 273 542 273 542 254 c 0
 542 245 537 234 533 230 c 0
 528 227 490 218 448 212 c 0
 382 201 370 201 365 209 c 0
 361 214 362 222 365 225 c 0
 369 229 371 234 371 236 c 0
 371 239 351 221 327 197 c 0
 303 173 280 154 276 154 c 0
 261 154 271 173 301 202 c 0
 350 250 410 333 426 377 c 0
 434 399 446 421 452 428 c 0
491 167 m 0
 542 173 658 172 669 165 c 0
 681 158 680 140 667 126 c 0
 657 116 648 115 612 118 c 0
 573 121 569 121 569 110 c 0
 569 103 575 91 582 84 c 0
 600 64 657 -51 657 -67 c 0
 657 -75 651 -88 643 -95 c 0
 629 -108 629 -108 613 -88 c 0
 604 -77 594 -70 590 -73 c 0
 586 -76 524 -79 454 -80 c 0
 384 -81 322 -84 316 -87 c 0
 297 -96 301 -78 326 -47 c 0
 368 6 427 99 423 106 c 0
 419 113 358 109 337 102 c 0
 319 95 276 93 276 99 c 0
 276 109 303 128 310 124 c 0
 313 121 318 123 320 126 c 0
 325 133 435 160 491 167 c 0
523 73 m 0
 513 86 503 101 501 107 c 0
 496 122 468 116 459 98 c 0
 454 90 439 69 425 52 c 0
 410 34 399 16 399 13 c 0
 399 9 392 1 385 -6 c 0
 378 -13 371 -20 371 -23 c 0
 371 -25 418 -27 474 -27 c 0
 530 -26 576 -24 576 -23 c 0
 576 -16 538 53 523 73 c 0
EndSplineSet
EndChar
StartChar: uni4F4D
Encoding: 12364 20301 662
Width: 1000
VWidth: 0
Flags: W
VStem: 349 36<-95.5168 -44.5529 0.169064 152.765> 471 40<34.2381 261> 586 34<43.3575 264.877>
LayerCount: 2
Back
Fore
SplineSet
366 434 m 0
 371 439 379 443 385 442 c 0
 410 437 392 320 358 272 c 0
 341 248 341 243 361 230 c 0
 381 216 385 201 390 93 c 0
 392 45 396 3 399 -0 c 0
 401 -2 419 0 437 7 c 2
 471 19 l 1
 473 63 l 2
 474 87 474 141 471 184 c 2
 466 261 l 1
 436 257 l 2
 414 255 406 257 406 264 c 0
 406 276 425 293 439 293 c 0
 445 293 464 299 481 304 c 0
 516 317 700 322 703 310 c 0
 708 295 680 272 656 271 c 0
 642 270 629 268 627 265 c 0
 624 263 622 221 620 173 c 0
 619 125 617 78 616 66 c 0
 614 46 614 45 658 40 c 0
 711 34 758 22 778 10 c 0
 792 2 793 -1 786 -16 c 0
 776 -37 756 -44 730 -34 c 0
 671 -12 618 -6 530 -15 c 0
 430 -26 396 -38 385 -65 c 0
 378 -85 360 -108 351 -108 c 0
 348 -108 347 -82 349 -49 c 0
 354 43 345 176 333 188 c 0
 319 203 317 201 290 164 c 0
 268 133 219 91 212 98 c 0
 207 103 217 123 226 123 c 0
 235 123 286 191 324 251 c 0
 349 292 367 358 362 393 c 0
 359 413 361 427 366 434 c 0
586 200 m 2
 586 273 l 1
 566 272 l 2
 555 271 537 269 527 268 c 2
 508 266 l 1
 511 162 l 2
 514 42 518 27 551 33 c 0
 585 40 585 35 586 200 c 2
527 432 m 0
 552 433 583 434 595 435 c 0
 624 437 630 425 610 406 c 0
 597 393 583 389 539 386 c 0
 475 381 461 386 473 412 c 0
 480 428 486 429 527 432 c 0
EndSplineSet
EndChar
StartChar: uni4F55
Encoding: 12863 20309 837
Width: 1000
VWidth: 0
Flags: W
HStem: 67 47<492.166 583> 194 51<484.298 585.534> 328 48<392.388 683.811 733 821.29>
VStem: 322 45<-99.4526 241.55> 441 44<67.8005 193.608> 585 47<116.595 193.841> 705 47<17.2034 329.936>
LayerCount: 2
Back
Fore
SplineSet
366 458 m 0
 371 466 381 473 386 473 c 0
 408 473 374 389 333 337 c 0
 322 324 314 310 314 307 c 0
 314 304 326 290 340 277 c 0
 364 254 366 249 366 211 c 0
 366 189 366 123 367 65 c 0
 369 -68 369 -64 360 -81 c 0
 351 -97 342 -105 329 -105 c 0
 322 -105 321 -92 322 -55 c 0
 323 -28 323 45 322 108 c 0
 320 211 319 224 307 236 c 0
 300 243 291 249 288 249 c 0
 285 249 271 233 257 214 c 0
 234 185 178 144 178 158 c 0
 178 160 193 180 211 200 c 0
 240 234 253 253 301 324 c 0
 319 351 355 424 355 434 c 0
 355 439 360 450 366 458 c 0
618 381 m 0
 622 384 677 384 741 381 c 0
 802 378 812 375 818 363 c 0
 824 351 823 346 810 333 c 0
 795 319 792 318 765 325 c 0
 749 329 734 331 733 330 c 0
 732 329 736 304 741 276 c 0
 746 248 751 192 752 153 c 0
 753 86 745 52 722 -6 c 0
 719 -13 714 -29 709 -41 c 0
 705 -53 693 -71 682 -83 c 0
 671 -95 661 -110 660 -117 c 0
 658 -129 623 -145 616 -137 c 0
 613 -134 624 -116 640 -96 c 0
 655 -76 668 -57 668 -53 c 0
 668 -50 676 -26 686 -2 c 0
 704 39 706 46 705 147 c 0
 705 233 702 257 692 275 c 0
 681 296 681 299 691 313 c 0
 701 328 696 342 684 335 c 0
 681 333 612 330 531 328 c 0
 411 324 382 325 382 332 c 0
 383 363 412 372 520 376 c 0
 573 378 617 380 618 381 c 0
443 251 m 0
 460 273 467 274 477 258 c 0
 482 248 494 246 551 245 c 0
 588 244 622 242 627 239 c 0
 632 236 634 214 632 166 c 0
 628 78 624 72 548 67 c 0
 487 63 476 69 494 96 c 0
 503 110 510 112 543 114 c 2
 583 116 l 1
 585 156 l 1
 587 194 l 1
 535 194 l 1
 484 194 l 1
 485 144 l 2
 487 102 485 91 475 79 c 0
 451 52 445 61 441 135 c 0
 439 173 436 211 433 218 c 0
 430 228 433 239 443 251 c 0
EndSplineSet
EndChar
StartChar: uni4F73
Encoding: 12866 20339 840
Width: 1000
VWidth: 0
Flags: W
HStem: -103 44<640.683 767.926> -93 55<600.271 785.754> 316 51<599 635>
VStem: 349 41<-118.856 182.086> 388 37<333.31 443.662> 553 37<367.354 453.153> 555 43<-26 70.8909>
LayerCount: 2
Back
Fore
SplineSet
395 444 m 0x28
 398 450 406 456 413 456 c 0
 423 456 425 450 425 428 c 0x28
 425 384 411 331 391 302 c 0
 365 263 362 241 376 219 c 0
 386 204 388 180 390 51 c 0
 393 -85 391 -101 381 -112 c 0
 374 -118 364 -122 358 -121 c 0
 348 -119 348 -105 349 7 c 0x30
 350 166 340 213 314 165 c 0
 309 154 285 127 263 105 c 0
 230 73 220 66 213 73 c 0
 206 80 214 92 249 128 c 0
 325 206 384 319 388 396 c 0
 389 416 392 437 395 444 c 0x28
562 441 m 0
 567 449 573 456 576 456 c 0
 578 456 583 435 585 411 c 2
 590 367 l 1
 634 367 l 2
 657 367 678 364 680 361 c 0
 683 358 681 347 678 337 c 0
 672 322 666 320 635 318 c 2
 599 316 l 1
 597 285 l 1
 595 254 l 1
 641 249 l 2
 711 242 732 238 732 228 c 0
 732 214 698 183 689 188 c 0
 685 191 675 193 668 194 c 0
 660 195 643 198 630 200 c 0
 596 205 587 197 590 162 c 2x64
 592 132 l 1
 619 134 l 2
 634 135 653 135 662 132 c 0
 696 124 669 87 624 81 c 2
 599 78 l 1
 598 26 l 2
 597 -33 596 -35 656 -38 c 0x62
 685 -39 764 -52 784 -59 c 0
 798 -63 779 -93 757 -103 c 0
 742 -109 732 -109 713 -103 c 0xa2
 699 -99 670 -94 650 -93 c 0
 630 -91 597 -86 578 -83 c 0
 552 -78 527 -79 483 -85 c 0
 450 -90 421 -92 420 -91 c 0
 419 -90 419 -83 422 -75 c 0
 428 -57 470 -37 519 -31 c 2
 555 -26 l 1
 555 20 l 2x62
 555 46 552 69 549 71 c 0
 546 72 523 68 498 62 c 0
 474 56 451 54 449 56 c 0
 447 58 449 67 453 77 c 0
 459 89 469 97 489 102 c 0
 545 116 547 118 544 158 c 0
 543 178 542 194 542 195 c 0
 541 196 510 186 473 173 c 0
 411 152 405 151 405 162 c 0
 405 179 413 186 476 211 c 0
 506 223 536 234 541 237 c 0
 553 243 558 272 552 296 c 0
 549 310 543 312 507 314 c 2
 467 316 l 1
 475 333 l 2
 480 344 492 352 510 357 c 0
 549 367 554 371 553 400 c 0x64
 553 414 557 433 562 441 c 0
EndSplineSet
EndChar
StartChar: uni4F9D
Encoding: 12365 20381 663
Width: 1000
VWidth: 0
Flags: W
HStem: 128 58<480.086 502.997> 300 49<488.148 677.937> 387 48<431.193 562.5>
VStem: 291 47<-110.261 52.3325> 434 43<-85.0958 127.522> 451 37<257 281>
LayerCount: 2
Back
Fore
SplineSet
340 446 m 0xf8
 345 451 352 454 357 454 c 0
 371 454 364 392 346 356 c 0
 309 279 304 259 321 253 c 0
 330 250 332 234 331 164 c 0
 330 113 333 76 337 72 c 0
 353 56 445 208 448 257 c 2
 451 281 l 1
 400 282 l 2
 372 282 346 284 343 284 c 0
 340 285 342 292 348 300 c 0
 364 324 447 339 612 349 c 0
 700 354 709 350 675 318 c 0
 661 304 650 303 582 300 c 0
 510 297 488 291 488 276 c 0xf4
 488 273 481 256 474 238 c 0
 458 205 462 186 484 186 c 0
 490 186 506 177 519 167 c 0
 531 157 545 148 548 148 c 0
 558 148 617 224 617 237 c 0
 617 250 642 284 652 284 c 0
 674 284 635 203 591 157 c 0
 573 139 565 124 568 119 c 0
 571 114 580 100 589 86 c 0
 597 72 608 60 611 60 c 0
 614 60 633 50 651 37 c 0
 689 11 742 -11 785 -18 c 0
 808 -22 813 -25 810 -35 c 0
 799 -77 736 -80 663 -42 c 0
 602 -10 571 20 503 108 c 0
 494 119 485 128 483 128 c 0
 480 128 478 85 477 33 c 0
 476 -57 476 -64 461 -80 c 0
 452 -90 442 -97 439 -97 c 0
 436 -97 434 -68 434 -33 c 0
 435 84 433 135 428 135 c 0
 425 135 414 122 402 106 c 0
 391 90 373 67 361 54 c 0
 343 36 338 25 338 3 c 0
 338 -52 330 -96 317 -110 c 0
 310 -117 300 -123 297 -120 c 0
 292 -117 290 -59 291 42 c 0
 292 128 291 203 288 208 c 0
 282 219 270 219 270 208 c 0
 270 195 208 121 197 121 c 0
 183 121 187 129 216 168 c 0
 231 188 254 224 267 247 c 0
 294 294 331 398 331 422 c 0
 331 431 335 441 340 446 c 0xf8
437 426 m 0
 446 438 453 438 510 435 c 0
 545 434 575 431 576 430 c 0
 579 427 562 387 557 386 c 0
 535 381 480 382 460 387 c 0
 431 394 424 407 437 426 c 0
EndSplineSet
EndChar
StartChar: uni4FA1
Encoding: 12865 20385 839
Width: 1000
VWidth: 0
Flags: W
HStem: 354 39<479 608.078>
VStem: 354 48<-113.914 103.395> 443 42<13.7322 208.081> 522 39<261.86 317.102> 527 44<29 211.879> 609 41<42.0273 214.741 264.819 334.592>
LayerCount: 2
Back
Fore
SplineSet
383 446 m 0xe4
 400 472 407 463 403 422 c 0
 398 376 381 300 370 280 c 0
 364 268 365 262 377 246 c 0
 394 222 404 131 402 16 c 0
 399 -90 399 -93 381 -113 c 0
 362 -133 349 -131 354 -108 c 0
 361 -74 357 176 349 186 c 0
 339 198 327 190 315 160 c 0
 303 129 256 58 244 51 c 0
 228 41 233 60 264 114 c 0
 314 200 361 323 368 388 c 0
 371 412 378 437 383 446 c 0xe4
471 376 m 2
 479 393 l 1
 602 393 l 2
 716 393 724 393 724 381 c 0
 724 363 693 336 677 341 c 0
 670 343 660 340 656 335 c 0
 649 327 645 273 650 268 c 0
 651 266 674 264 700 263 c 0
 727 262 751 260 756 259 c 0
 768 254 768 8 756 -15 c 0
 746 -33 744 -34 656 -25 c 0
 567 -17 506 -24 471 -46 c 0
 455 -57 444 -60 441 -55 c 0
 439 -51 440 -24 443 7 c 0
 449 77 446 188 438 203 c 0
 428 221 430 240 442 250 c 0
 451 257 456 257 470 250 c 0
 485 243 489 242 505 251 c 0
 520 259 523 265 522 282 c 0
 521 297 524 308 534 318 c 0
 552 336 561 331 561 299 c 0xf4
 561 268 570 258 592 263 c 0
 607 266 609 268 609 305 c 0
 609 351 617 347 526 348 c 0
 497 348 472 351 469 354 c 0
 466 357 467 366 471 376 c 2
717 212 m 0
 716 213 703 216 689 219 c 0
 672 222 662 221 658 215 c 0
 655 210 653 171 654 130 c 0
 655 58 654 53 641 46 c 0
 616 32 609 53 609 136 c 0
 609 199 607 211 598 214 c 0
 574 223 567 198 569 111 c 2
 571 29 l 1xec
 645 28 l 2
 685 27 718 28 718 31 c 0
 720 71 718 211 717 212 c 0
527 122 m 0
 527 170 525 210 522 212 c 0xf4
 519 214 509 211 502 206 c 0
 489 196 488 189 487 120 c 0
 487 78 486 36 485 29 c 0
 484 21 488 15 496 14 c 0
 521 9 527 30 527 122 c 0
EndSplineSet
EndChar
StartChar: uni4FFA
Encoding: 12854 20474 828
Width: 1000
VWidth: 0
Flags: W
HStem: 200 81<645.368 682.997> 324 49<399.22 468.047> 356 55<551.234 647.536>
VStem: 290 50<-120.134 124.005> 503 43<395.021 465.665>
LayerCount: 2
Back
Fore
SplineSet
515 466 m 0xd8
 528 480 543 482 544 470 c 0
 544 465 545 447 546 428 c 0
 547 387 545 387 631 411 c 0
 636 412 644 409 648 403 c 0
 661 383 637 356 606 356 c 0xb8
 592 355 574 352 566 347 c 2
 551 339 l 1
 574 321 l 2
 586 311 617 293 641 281 c 0
 701 253 705 248 683 221 c 0
 673 209 661 200 656 200 c 0
 650 200 645 185 642 154 c 0
 634 60 632 50 614 34 c 0
 604 25 587 15 577 13 c 0
 562 10 557 6 557 -7 c 0
 557 -19 566 -29 593 -47 c 0
 656 -89 734 -99 825 -76 c 0
 841 -72 843 -73 843 -87 c 0
 843 -112 823 -126 769 -138 c 0
 691 -154 623 -142 556 -101 c 0
 519 -79 512 -72 505 -45 c 0
 491 5 492 3 461 -8 c 0
 445 -13 431 -18 428 -18 c 0
 423 -18 414 24 410 70 c 0
 409 83 407 108 404 124 c 2
 400 152 l 1
 382 139 l 2
 334 104 338 111 340 28 c 0
 341 -54 341 -103 340 -121 c 0
 339 -133 306 -150 298 -142 c 0
 295 -139 292 -65 290 23 c 0
 288 111 285 188 282 195 c 0
 274 215 262 207 235 160 c 0
 205 108 179 77 165 77 c 0
 152 77 154 84 177 118 c 0
 198 149 229 212 283 332 c 0
 333 444 333 445 347 445 c 0
 354 445 360 443 360 440 c 0
 360 427 337 363 332 363 c 0
 329 363 326 357 326 350 c 0
 326 343 323 335 320 332 c 0
 317 330 310 318 306 304 c 0
 299 282 299 277 315 253 c 0
 327 235 334 215 336 188 c 0
 338 167 341 149 343 147 c 0
 345 144 365 162 395 192 c 0
 423 219 469 298 469 320 c 0
 469 325 459 327 432 324 c 0
 399 321 394 321 394 333 c 0
 395 357 410 368 452 373 c 0
 474 376 495 380 498 385 c 0
 501 390 503 408 503 424 c 0
 503 442 508 459 515 466 c 0xd8
519 318 m 0
 526 328 527 336 523 336 c 0
 515 336 490 284 489 268 c 0
 489 263 482 250 472 239 c 0
 454 217 454 208 472 215 c 0
 477 218 483 225 483 232 c 0
 483 245 506 275 516 275 c 0
 519 275 524 268 526 258 c 0
 529 248 536 241 543 241 c 0
 567 241 565 251 536 275 c 0
 507 299 507 300 519 318 c 0
591 190 m 0
 577 206 545 203 538 185 c 0
 530 163 534 160 563 164 c 0
 595 169 603 176 591 190 c 0
485 147 m 0
 495 163 484 172 464 165 c 0
 443 158 443 130 463 133 c 0
 471 134 481 141 485 147 c 0
568 111 m 0
 556 131 535 103 544 79 c 0
 549 66 554 63 572 65 c 0
 590 66 594 70 596 86 c 0
 598 100 596 104 585 104 c 0
 578 104 570 108 568 111 c 0
491 77 m 0
 490 86 485 91 476 91 c 0
 469 91 462 91 461 90 c 0
 461 89 460 77 459 63 c 0
 457 39 458 38 475 43 c 0
 485 45 493 52 492 56 c 0
 491 61 491 70 491 77 c 0
EndSplineSet
EndChar
StartChar: uni5186
Encoding: 12639 20870 775
Width: 1000
VWidth: 0
Flags: W
HStem: 116 55<436 495 546.63 614> 364 56<533.049 696>
VStem: 324 41<155.93 375.364> 494 42<171.844 362> 695 44<-20.2322 121.235 181.124 369>
LayerCount: 2
Back
Fore
SplineSet
362 420 m 0
 374 434 379 435 432 433 c 0
 463 432 502 428 520 424 c 0
 548 418 633 416 712 420 c 2
 739 421 l 1
 739 190 l 2
 740 -23 740 -43 728 -61 c 0
 721 -72 711 -79 704 -78 c 0
 694 -76 692 -66 695 20 c 0
 697 101 696 117 687 120 c 0
 682 122 634 122 582 121 c 0
 530 119 461 117 426 116 c 0
 392 115 362 113 359 110 c 0
 357 108 350 80 345 47 c 0
 335 -12 321 -46 289 -81 c 0
 255 -117 251 -99 280 -44 c 0
 293 -20 303 12 308 47 c 0
 320 127 327 221 324 241 c 0
 323 251 320 274 318 292 c 0
 317 311 311 342 307 361 c 0
 300 392 301 399 311 414 c 0
 325 434 332 436 342 417 c 0
 349 403 349 404 362 420 c 0
471 377 m 0
 461 380 432 383 404 386 c 2
 354 391 l 1
 360 348 l 2
 363 324 366 271 365 229 c 0
 364 185 368 154 371 156 c 0
 374 158 403 162 436 164 c 2
 495 169 l 1
 494 234 l 2
 491 369 489 372 471 377 c 0
694 277 m 2
 696 369 l 1
 649 367 l 2
 624 367 588 365 568 364 c 2
 532 362 l 1
 536 320 l 2
 537 297 540 254 543 225 c 2
 547 171 l 1
 614 175 l 2
 651 177 684 179 687 181 c 0
 690 183 693 227 694 277 c 2
EndSplineSet
EndChar
StartChar: uni52A0
Encoding: 12867 21152 841
Width: 1000
VWidth: 0
Flags: W
HStem: -16 61<627.221 695> -9 52<575.7 695> 256 50<242.527 344.625> 285 42<565.828 707.042>
VStem: 343 44<324.571 440.264> 446 41<45.2601 236> 530 40<39.8105 272> 706 41<46.0156 281.653>
LayerCount: 2
Back
Fore
SplineSet
343 429 m 0xaf
 347 437 356 443 361 442 c 0
 375 439 381 416 387 347 c 0
 390 316 395 294 400 293 c 0
 404 292 427 292 449 293 c 2
 491 295 l 1
 487 200 l 2
 484 90 480 50 471 45 c 0
 468 42 465 34 465 27 c 0
 465 5 437 -64 423 -80 c 0
 394 -110 389 -91 411 -41 c 0
 433 14 443 70 446 154 c 2
 448 236 l 1
 419 238 l 2
 392 240 390 239 387 221 c 0
 368 136 347 55 339 38 c 0
 334 27 321 -5 309 -33 c 0
 289 -83 272 -108 260 -108 c 0
 248 -108 255 -78 281 -17 c 0
 314 59 335 138 340 199 c 2
 345 244 l 1
 321 248 l 2
 308 250 286 254 270 256 c 0
 248 259 240 263 240 272 c 0
 240 296 263 308 306 306 c 0
 346 304 346 304 348 324 c 0
 349 336 348 360 343 380 c 0
 338 407 338 418 343 429 c 0xaf
537 319 m 0
 547 335 550 336 589 332 c 0
 611 330 660 327 695 327 c 2
 760 327 l 1x5f
 754 306 l 2
 751 294 748 248 747 206 c 0
 746 164 744 117 741 101 c 0
 739 85 740 62 743 49 c 0
 750 20 740 -11 724 -16 c 0xaf
 718 -17 704 -17 693 -14 c 0
 681 -11 652 -9 626 -9 c 0x4f
 584 -10 579 -11 565 -29 c 0
 549 -49 534 -49 534 -28 c 0
 534 -22 532 56 530 143 c 0
 527 282 527 305 537 319 c 0
692 280 m 0
 682 284 670 286 664 285 c 0
 658 284 640 283 625 282 c 0
 610 281 590 278 581 276 c 2
 565 272 l 1
 570 172 l 2
 577 28 574 39 594 40 c 0
 604 41 630 42 653 43 c 2x5f
 695 45 l 1x8f
 699 110 l 2
 702 145 704 197 706 224 c 0
 709 272 709 274 692 280 c 0
EndSplineSet
EndChar
StartChar: uni5316
Encoding: 12861 21270 835
Width: 1000
VWidth: 0
Flags: W
HStem: 248 37<480.812 644.68>
VStem: 274 47<-122.3 198.717> 414 44<43.4033 229.443 285.153 445.486>
LayerCount: 2
Back
Fore
SplineSet
415 446 m 0
 421 453 429 459 432 459 c 0
 442 459 452 411 457 348 c 0
 460 308 463 288 469 285 c 0
 474 283 513 286 555 291 c 0
 637 301 656 300 656 285 c 0
 656 271 627 248 609 248 c 0
 600 248 564 245 531 241 c 0
 460 231 457 227 458 146 c 0
 459 83 470 46 491 32 c 0
 500 25 515 13 524 5 c 0
 534 -4 552 -15 566 -19 c 0
 580 -23 593 -26 595 -27 c 0
 597 -28 603 -30 608 -32 c 0
 613 -35 632 -40 649 -44 c 0
 666 -48 686 -54 695 -56 c 0
 716 -61 786 -33 812 -9 c 0
 837 13 846 16 846 -2 c 0
 846 -16 814 -55 791 -69 c 0
 748 -94 712 -107 687 -107 c 0
 653 -108 561 -87 547 -75 c 0
 542 -70 528 -63 518 -59 c 0
 489 -47 453 -17 433 12 c 2
 415 39 l 1
 414 189 l 2
 413 272 410 362 408 387 c 0
 405 426 405 435 415 446 c 0
328 441 m 0
 334 448 342 452 346 451 c 0
 358 447 359 410 348 388 c 0
 317 323 289 262 289 259 c 0
 289 257 294 250 301 243 c 0
 317 227 321 177 321 15 c 0
 321 -82 319 -108 311 -115 c 0
 299 -127 275 -129 274 -117 c 0
 274 -113 274 -41 273 41 c 0
 272 123 269 194 266 199 c 0
 261 206 257 207 247 197 c 0
 240 191 234 181 234 177 c 0
 234 165 176 112 163 112 c 0
 147 112 150 120 182 157 c 0
 237 221 296 328 310 393 c 0
 314 413 322 434 328 441 c 0
EndSplineSet
EndChar
StartChar: uni536F
Encoding: 12588 21359 724
Width: 1000
VWidth: 0
Flags: W
HStem: 5 51<268.358 426.707> 366 53<583.096 744.92>
VStem: 222 45<158.071 360.545> 543 39<157.47 365.5> 561 52<-155.644 101.223> 748 42<117.461 367.547>
LayerCount: 2
Back
Fore
SplineSet
390 464 m 0xe4
 413 488 434 500 434 488 c 0
 434 478 414 450 386 421 c 0
 356 389 319 368 278 358 c 0
 259 354 258 352 262 332 c 0
 265 320 267 254 267 183 c 2
 267 56 l 1
 345 59 l 2
 388 60 428 63 433 64 c 0
 445 68 443 121 427 185 c 0
 406 268 404 279 414 290 c 0
 435 315 440 304 472 203 c 0
 493 134 479 12 441 -48 c 0
 419 -84 362 -138 347 -138 c 0
 330 -138 339 -113 363 -94 c 0
 390 -73 427 -19 427 -2 c 0
 427 8 416 8 332 5 c 0
 280 3 234 -1 230 -4 c 0
 218 -11 215 11 223 47 c 0
 235 102 227 284 212 312 c 0
 200 333 201 336 211 347 c 0
 217 354 222 364 222 369 c 0
 222 387 244 403 269 403 c 0
 303 403 358 430 390 464 c 0xe4
662 419 m 0
 715 420 766 421 775 422 c 0
 790 423 791 423 790 326 c 0
 790 272 791 207 794 180 c 0
 799 134 798 132 781 116 c 0
 769 105 760 102 756 106 c 0
 753 109 749 171 748 242 c 0
 746 354 745 372 736 369 c 0
 731 367 692 365 651 366 c 0
 611 367 580 365 582 362 c 0xf4
 585 357 587 323 595 195 c 0
 598 157 601 125 602 123 c 0
 605 118 614 -91 613 -117 c 0
 612 -133 594 -159 584 -159 c 0
 570 -159 562 -123 561 -53 c 0xec
 558 52 551 218 546 280 c 0
 544 308 542 337 543 345 c 0xf4
 543 353 544 364 544 372 c 0
 545 380 549 393 554 401 c 0
 564 415 570 417 662 419 c 0
EndSplineSet
EndChar
StartChar: uni5370
Encoding: 12405 21360 703
Width: 1000
VWidth: 0
Flags: W
HStem: 67 51<348.25 471.663> 220 43<335.161 473.281>
VStem: 298 42<-12.9127 59.8514> 512 43<-124.95 291.603>
LayerCount: 2
Back
Fore
SplineSet
395 426 m 0
 421 451 439 464 440 459 c 0
 441 454 438 445 432 438 c 0
 426 431 421 423 421 420 c 0
 421 413 359 356 345 352 c 0
 330 347 328 339 331 295 c 2
 334 258 l 1
 405 263 l 2
 470 268 476 268 476 256 c 0
 476 232 464 225 410 220 c 0
 380 217 352 212 346 209 c 0
 330 203 327 179 336 142 c 0
 342 115 345 111 357 114 c 0
 369 117 450 119 474 118 c 0
 486 117 484 92 472 79 c 0
 465 72 446 68 409 67 c 0
 380 66 353 63 348 60 c 0
 344 57 340 43 340 29 c 0
 340 9 336 0 322 -11 c 0
 312 -18 301 -23 298 -22 c 0
 295 -20 293 49 293 131 c 0
 293 225 290 286 285 294 c 0
 274 314 289 341 324 365 c 0
 340 375 372 403 395 426 c 0
522 366 m 0
 532 371 547 375 554 373 c 0
 561 371 596 366 629 362 c 0
 707 352 713 348 714 316 c 0
 714 302 716 272 718 248 c 0
 721 196 708 162 669 120 c 0
 642 92 612 75 612 90 c 0
 612 94 624 110 639 126 c 0
 672 163 679 192 674 272 c 0
 672 293 646 308 595 318 c 2
 552 326 l 1
 555 162 l 2
 559 -16 559 -28 556 -74 c 0
 554 -108 541 -129 524 -126 c 0
 515 -124 513 -96 512 82 c 0
 511 255 510 289 500 307 c 0
 487 332 493 350 522 366 c 0
EndSplineSet
EndChar
StartChar: uni53AD
Encoding: 12638 21421 774
Width: 1000
VWidth: 0
Flags: W
HStem: -38 61<724.422 810.828> 58 35<374.388 465.913> 203 41<374.499 375.271 510.516 571.852> 214 44<616.189 710.623> 325 41<365.136 451.69> 420 60<463.293 690.158>
VStem: 258 41<79.125 399> 333 37<27.7034 43.5634 89.625 122.489> 336 158<203.488 354.447> 466 38<93.7668 132> 602 23<293.155 326.899>
LayerCount: 2
Back
Fore
SplineSet
678 479 m 0xce20
 680 481 685 481 688 480 c 0
 702 476 700 452 686 436 c 0
 674 423 663 421 618 420 c 0
 482 418 400 413 329 403 c 2
 303 399 l 1
 299 285 l 2
 291 66 289 48 274 6 c 0
 266 -17 254 -46 246 -60 c 0
 239 -74 228 -99 220 -113 c 0
 205 -143 194 -153 186 -144 c 0
 183 -141 190 -115 203 -88 c 0
 239 -12 253 48 258 175 c 0
 261 237 263 318 262 356 c 0
 261 414 263 428 273 436 c 0
 288 449 376 459 542 469 c 0
 615 473 677 478 678 479 c 0xce20
327 362 m 0
 341 383 348 384 353 365 c 0
 356 355 361 353 369 356 c 0
 387 364 483 372 489 366 c 0
 499 356 502 242 494 221 c 0
 486 202 485 202 426 203 c 0
 393 203 359 201 351 199 c 0
 337 194 336 196 336 220 c 0xeea0
 336 234 331 269 326 296 c 0
 316 341 317 346 327 362 c 0
452 321 m 0
 446 326 400 328 384 325 c 0
 374 322 366 315 365 310 c 0
 364 300 368 300 406 306 c 0
 448 312 458 316 452 321 c 0
449 259 m 0
 435 264 380 264 375 258 c 0xde20
 364 247 373 244 415 244 c 0
 458 244 472 250 449 259 c 0
670 368 m 0
 683 382 682 382 698 373 c 0
 704 370 718 363 729 359 c 0
 749 352 752 334 740 310 c 0
 730 294 724 294 686 313 c 0
 653 329 649 344 670 368 c 0
602 320 m 0
 618 338 625 335 625 311 c 0
 625 309 623 295 621 281 c 2
 616 255 l 1
 666 258 l 2
 719 260 730 253 711 226 c 0
 703 216 693 213 668 214 c 0xdf60
 609 217 597 205 626 177 c 0
 634 169 655 139 672 112 c 0
 708 55 740 23 764 23 c 0
 773 23 788 20 798 16 c 0
 835 2 808 -38 762 -38 c 0
 710 -38 666 1 625 84 c 0
 599 135 589 133 576 76 c 0
 571 56 556 25 544 5 c 0
 531 -14 521 -38 521 -47 c 0
 521 -56 514 -71 505 -83 c 0
 483 -110 483 -109 469 22 c 0
 467 41 462 58 459 58 c 0
 456 58 453 55 453 51 c 0
 453 47 435 44 412 44 c 0
 374 44 370 43 370 29 c 0
 370 17 373 16 379 22 c 0
 391 34 452 33 457 19 c 0
 463 3 445 -11 409 -14 c 0
 367 -19 366 -19 360 -49 c 0
 355 -80 343 -100 330 -100 c 0
 322 -100 322 -95 327 -74 c 0
 330 -60 333 -7 333 44 c 0
 334 95 336 143 339 152 c 0
 344 166 364 174 364 160 c 0
 364 156 369 157 379 160 c 0
 387 163 419 168 449 171 c 2
 504 175 l 1
 504 104 l 2
 504 65 506 28 509 21 c 0
 514 8 515 8 524 21 c 0
 542 47 580 190 572 203 c 0xef60
 569 207 556 208 538 205 c 0
 515 202 507 203 507 210 c 0
 507 230 527 245 552 247 c 0
 584 250 583 249 588 281 c 0
 590 296 597 313 602 320 c 0
466 114 m 0
 466 131 464 133 444 132 c 0
 389 129 374 123 372 103 c 0
 370 86 371 84 383 88 c 0
 391 90 413 93 432 93 c 0
 465 94 466 96 466 114 c 0
EndSplineSet
EndChar
StartChar: uni53EF
Encoding: 12868 21487 842
Width: 1000
VWidth: 0
Flags: W
HStem: 70 52<366.915 490.109> 73 213<385.363 505> 232 50<360.384 489.86> 339 61<509.623 748.626> 358 50<248.907 391.888>
VStem: 617 41<-32.4696 280.636>
LayerCount: 2
Back
Fore
SplineSet
392 415 m 0x0c
 399 422 595 410 651 400 c 0
 752 382 756 381 756 363 c 0
 756 335 736 329 675 339 c 0x14
 521 366 407 371 279 358 c 0
 242 355 240 356 247 381 c 0
 252 401 262 403 331 408 c 0
 363 410 390 413 392 415 c 0x0c
615 319 m 0
 644 363 657 311 658 163 c 0
 658 26 643 -52 610 -78 c 0
 591 -93 589 -76 603 -18 c 0
 610 13 616 55 617 73 c 0x44
 618 178 616 254 611 277 c 0
 606 297 607 307 615 319 c 0
460 286 m 0
 492 295 521 293 528 281 c 0
 539 263 531 127 517 99 c 2
 505 73 l 1x44
 429 70 l 2
 383 67 349 63 343 58 c 0
 326 44 322 59 321 152 c 0
 320 199 317 242 314 246 c 0
 312 251 315 261 320 270 c 0
 330 284 334 285 384 282 c 0xa4
 413 281 447 283 460 286 c 0
491 182 m 1
 491 237 l 1
 471 239 l 2
 459 240 447 239 445 236 c 0
 442 234 430 232 416 232 c 0
 402 232 382 229 373 226 c 0
 357 220 357 217 362 173 c 0
 365 148 368 125 371 122 c 0
 374 119 402 119 434 122 c 2xa4
 491 128 l 1
 491 182 l 1
EndSplineSet
EndChar
StartChar: uni53F3
Encoding: 12582 21491 718
Width: 1000
VWidth: 0
Flags: W
HStem: -109 48<435 645.674> 217 61<261.662 360.744>
VStem: 373 45<308.912 418.992> 645 46<-55.3148 131.179>
LayerCount: 2
Back
Fore
SplineSet
373 437 m 0
 394 475 422 421 418 351 c 2
 416 308 l 1
 538 310 l 2
 608 311 675 309 693 305 c 0
 711 301 738 296 752 294 c 0
 781 290 785 278 764 252 c 0
 752 236 751 235 704 244 c 0
 652 254 459 261 423 254 c 0
 403 251 400 247 400 228 c 0
 400 216 397 194 394 179 c 0
 389 158 390 150 398 141 c 0
 410 127 414 112 422 35 c 0
 425 1 429 -34 431 -44 c 2
 435 -61 l 1
 533 -59 l 2
 586 -58 634 -55 639 -54 c 0
 647 -51 648 -35 645 35 c 0
 643 82 639 124 636 128 c 0
 632 136 526 134 471 125 c 0
 459 123 442 123 432 126 c 2
 414 131 l 1
 430 150 l 2
 444 168 448 168 544 174 c 0
 599 177 651 179 660 176 c 0
 678 172 680 166 685 100 c 0
 687 75 689 36 691 13 c 0
 694 -18 692 -35 685 -49 c 0
 678 -62 677 -71 682 -76 c 0
 686 -80 682 -88 672 -100 c 0
 660 -113 651 -117 636 -115 c 0
 625 -114 571 -110 518 -109 c 0
 464 -107 418 -104 416 -102 c 0
 414 -101 409 -101 404 -102 c 0
 390 -107 385 -87 382 -13 c 0
 378 90 370 109 352 66 c 0
 347 54 328 29 309 9 c 0
 281 -20 275 -24 272 -14 c 0
 271 -6 277 10 289 24 c 0
 326 70 354 139 362 205 c 0
 366 241 366 242 322 230 c 0
 271 218 228 212 225 217 c 0
 216 231 239 250 282 264 c 0
 307 272 333 278 339 278 c 0
 372 278 383 313 373 380 c 0
 368 410 368 427 373 437 c 0
EndSplineSet
EndChar
StartChar: uni540B
Encoding: 12581 21515 717
Width: 1000
VWidth: 0
Flags: W
HStem: 51 49<260 405.794> 248 58<488.072 641.942> 256 50<698.431 793.198> 263 48<589 641.942> 285 51<253.94 406>
VStem: 406 46<102 285> 659 39<7.63094 255.983>
LayerCount: 2
Back
Fore
SplineSet
637 459 m 0x96
 655 478 661 469 669 411 c 0
 683 308 679 317 711 312 c 0
 727 309 753 307 770 306 c 0
 803 306 805 301 790 270 c 0
 781 253 754 247 730 256 c 0xa6
 699 268 696 261 698 177 c 0
 700 111 698 86 684 28 c 0
 664 -52 659 -64 624 -104 c 0
 583 -152 572 -139 607 -83 c 0
 619 -64 635 -19 645 16 c 0
 659 72 662 92 659 153 c 0
 655 236 648 260 626 263 c 0x96
 603 266 504 256 481 248 c 0
 456 239 452 243 464 264 c 0
 475 285 518 300 589 306 c 2xc6
 642 311 l 1
 639 335 l 2
 625 421 625 445 637 459 c 0x96
319 327 m 0
 356 331 402 335 420 336 c 2
 454 336 l 1x8e
 452 311 l 2x96
 447 216 449 126 457 104 c 0
 465 82 464 77 454 61 c 0
 443 45 439 44 414 47 c 0
 398 49 356 50 319 51 c 0
 265 52 250 51 239 41 c 0
 222 25 221 28 216 115 c 0
 210 205 206 254 202 277 c 0
 199 298 215 330 230 330 c 0
 235 330 239 323 239 315 c 0
 239 302 241 301 246 309 c 0
 250 316 273 322 319 327 c 0
406 193 m 1
 406 285 l 1
 369 285 l 2
 323 286 247 279 241 273 c 0
 238 271 241 248 246 223 c 0
 256 171 258 160 259 124 c 2
 260 98 l 1
 333 100 l 1
 406 102 l 1
 406 193 l 1
514 143 m 0
 528 164 532 164 588 142 c 0
 646 120 651 113 633 89 c 0
 619 71 602 67 590 77 c 0
 586 80 569 87 551 94 c 0
 508 110 500 121 514 143 c 0
EndSplineSet
EndChar
StartChar: uni5516
Encoding: 12322 21782 620
Width: 1000
VWidth: 0
Flags: W
HStem: 118 85<534 574> 299 39<273.253 384> 363 39<467.286 526.222>
VStem: 380 38<85.1536 299> 453 36<149.281 257.798> 526 29<157.558 257.796> 590 40<-5.88729 117.999> 596 25<171.641 238.59> 688 42<172.532 267.756>
LayerCount: 2
Back
Fore
SplineSet
615 412 m 0xfe80
 711 426 725 426 725 410 c 0
 725 402 717 387 707 375 c 0
 691 356 688 355 680 365 c 0
 673 375 665 376 631 371 c 0
 609 368 584 365 574 364 c 0
 560 363 556 359 553 338 c 0
 545 293 580 288 598 331 c 0
 610 359 623 362 620 336 c 2
 618 316 l 1
 675 319 l 1
 733 321 l 1
 730 232 l 2
 728 148 727 141 712 125 c 0
 693 104 684 102 684 118 c 0
 684 126 677 128 658 127 c 2
 632 125 l 1
 630 55 l 1
 628 -16 l 1
 654 -16 l 2
 705 -17 769 -33 771 -45 c 0
 774 -59 753 -92 744 -87 c 0
 741 -85 721 -80 702 -77 c 0
 682 -74 648 -68 625 -63 c 0
 602 -59 579 -56 574 -56 c 0
 469 -59 402 -66 377 -77 c 0
 347 -90 339 -87 360 -70 c 0
 386 -48 424 -35 501 -23 c 0
 546 -16 584 -9 586 -6 c 0
 588 -4 590 24 590 57 c 0
 591 117 591 118 574 118 c 0
 558 118 556 116 553 69 c 0
 550 24 543 4 523 -10 c 0
 520 -13 514 -12 512 -7 c 0
 508 0 509 18 520 97 c 0
 521 108 519 110 505 109 c 0
 495 108 481 102 473 97 c 0
 465 92 457 87 455 87 c 0
 453 87 452 120 453 161 c 0
 453 205 450 240 445 249 c 0
 439 261 440 266 454 279 c 0
 463 287 474 292 478 289 c 0
 482 286 494 287 505 292 c 0
 520 298 525 304 525 318 c 0
 525 328 526 342 527 347 c 0
 529 355 520 358 494 363 c 0
 456 369 453 372 467 390 c 0
 473 399 486 401 513 402 c 0
 534 402 579 407 615 412 c 0xfe80
689 268 m 0
 680 278 627 277 624 268 c 0
 620 256 605 255 588 266 c 0
 578 272 573 273 564 265 c 0
 556 258 554 245 555 207 c 0
 557 166 559 159 570 157 c 0
 590 153 597 165 596 203 c 0
 595 229 597 238 604 238 c 0
 609 238 616 242 617 247 c 0
 619 251 621 242 621 227 c 0xfd80
 622 212 624 193 627 184 c 0
 630 170 633 168 657 171 c 0
 672 173 686 176 688 177 c 0
 692 182 694 264 689 268 c 0
526 239 m 0
 526 255 523 258 506 258 c 2
 487 258 l 1
 489 202 l 2
 490 151 491 145 503 147 c 0
 519 150 526 161 526 185 c 0
 526 195 529 203 534 203 c 0
 540 203 540 206 534 212 c 0
 529 217 526 229 526 239 c 0
240 335 m 0
 254 349 266 351 266 340 c 0
 266 335 293 335 343 338 c 2
 420 341 l 1
 418 219 l 2
 417 141 419 92 424 83 c 0
 434 64 414 28 397 36 c 0
 385 41 367 41 314 35 c 0
 286 32 274 27 262 13 c 0
 253 3 245 -4 243 -2 c 0
 239 3 232 114 229 226 c 0
 227 312 229 324 240 335 c 0
380 195 m 2
 384 299 l 1
 353 299 l 2
 310 297 285 292 275 284 c 0
 265 276 266 96 275 81 c 0
 280 73 348 77 367 87 c 0
 374 90 377 119 380 195 c 2
EndSplineSet
EndChar
StartChar: uni55B6
Encoding: 12612 21942 748
Width: 1000
VWidth: 0
Flags: W
HStem: 213 39<424.64 587.141>
VStem: 361 46<-122.686 -39.4802> 761 45<207.645 304.714>
LayerCount: 2
Back
Fore
SplineSet
666 512 m 0
 683 532 690 519 686 473 c 0
 682 432 658 375 645 375 c 0
 635 375 633 393 640 407 c 0
 644 414 649 439 651 461 c 0
 654 483 660 506 666 512 c 0
470 467 m 0
 474 476 480 484 484 484 c 0
 487 484 501 468 514 449 c 0
 537 415 537 413 526 398 c 0
 508 374 498 373 484 397 c 0
 465 428 461 447 470 467 c 0
321 450 m 0
 333 472 345 465 377 420 c 0
 394 396 413 372 420 367 c 0
 430 360 465 358 619 358 c 2
 807 358 l 1
 806 297 l 2
 805 249 801 233 789 214 c 0
 771 186 759 188 761 219 c 0
 765 287 765 299 761 305 c 0
 756 313 386 311 350 303 c 0
 322 297 320 310 344 339 c 0
 354 351 358 362 355 365 c 0
 352 368 341 386 331 404 c 0
 318 430 316 439 321 450 c 0
232 328 m 0
 250 361 264 328 257 269 c 0
 250 210 209 136 193 152 c 0
 191 155 198 177 208 201 c 0
 219 228 225 259 225 280 c 0
 225 299 229 321 232 328 c 0
380 252 m 0
 390 266 391 268 398 258 c 0
 405 249 414 247 453 252 c 0
 480 255 504 256 508 254 c 0
 511 252 539 251 570 252 c 2
 626 253 l 1
 629 231 l 2
 641 156 641 154 621 132 c 0
 605 113 600 111 572 114 c 0
 555 116 534 117 525 118 c 0
 512 119 506 112 486 76 c 0
 474 52 464 32 465 31 c 0
 467 30 538 36 618 46 c 2
 646 50 l 1
 651 20 l 2
 653 4 657 -41 660 -78 c 0
 665 -140 665 -147 653 -165 c 0
 642 -180 635 -183 621 -180 c 0
 535 -162 419 -163 390 -181 c 0
 381 -186 372 -189 370 -186 c 0
 367 -183 363 -152 361 -116 c 0
 358 -51 358 -51 336 -37 c 0
 311 -21 309 -7 327 10 c 0
 339 21 341 21 368 8 c 2
 396 -5 l 1
 402 10 l 2
 405 18 419 35 433 48 c 0
 456 70 481 108 476 113 c 0
 475 114 457 112 437 109 c 0
 417 106 398 105 395 107 c 0
 392 108 388 127 385 149 c 0
 383 170 378 199 375 212 c 0
 370 230 371 239 380 252 c 0
587 194 m 0
 581 210 576 211 520 213 c 0
 487 214 451 214 440 213 c 0
 422 211 421 209 425 190 c 0
 427 178 429 166 429 162 c 0
 429 158 447 157 479 160 c 0
 550 166 593 172 593 174 c 0
 593 175 590 184 587 194 c 0
610 -13 m 0
 606 -7 496 -4 489 -10 c 0
 488 -11 469 -13 447 -16 c 0
 425 -18 404 -23 402 -27 c 0
 399 -30 400 -49 403 -67 c 0
 406 -85 408 -105 407 -112 c 0
 406 -123 409 -125 436 -124 c 0
 453 -123 500 -121 540 -120 c 0
 581 -119 614 -116 615 -112 c 0
 619 -100 615 -21 610 -13 c 0
EndSplineSet
EndChar
StartChar: uni5609
Encoding: 12869 22025 843
Width: 1000
VWidth: 0
Flags: W
HStem: -96 46<265.484 331.862> -79 46<379.327 421.328> 35 56<560.168 781.092> 216 51<438.706 610.781> 290 51<500.326 600.621> 290 46<366.422 454.234> 382 53<304 455> 390 45<304 453.938> 404 43<515.449 651.107>
VStem: 313 41<120.373 186.058> 332 43<-22.6697 2.10323> 420 40<-178.283 -79.0009> 456 40<441.67 513.529> 635 48<-110 -32.1719>
LayerCount: 2
Back
Fore
SplineSet
466 514 m 0x310c
 478 527 479 527 487 516 c 0
 492 509 496 493 496 480 c 0
 496 438 499 436 574 447 c 0x308c
 650 459 662 456 655 435 c 0x310c
 648 410 638 404 605 404 c 0
 570 403 524 395 515 386 c 0
 512 383 508 371 505 360 c 2
 500 341 l 1x388c
 557 343 l 2
 620 346 628 342 603 314 c 0
 590 299 580 295 543 293 c 0
 519 291 491 287 484 283 c 0
 476 278 467 279 464 282 c 0
 461 285 437 289 411 290 c 0
 385 291 363 296 362 299 c 0
 357 314 387 336 411 336 c 0
 445 336 455 343 455 363 c 2
 455 380 l 1
 387 382 l 2x360c
 350 383 312 387 302 390 c 0x310c
 285 396 284 398 294 416 c 2
 304 435 l 1
 381 435 l 1x320c
 458 435 l 1
 456 467 l 2
 454 491 457 504 466 514 c 0x310c
489 257 m 0
 513 262 560 267 593 267 c 2
 652 268 l 1
 652 227 l 2
 652 190 650 184 634 168 c 0
 623 158 605 146 593 141 c 0
 570 131 553 110 560 98 c 0
 563 94 604 91 656 91 c 0
 772 91 801 78 773 41 c 0
 766 31 757 30 713 35 c 0
 616 45 384 21 375 -1 c 0xb024
 374 -6 375 -16 379 -23 c 0
 386 -35 392 -36 425 -33 c 2
 464 -29 l 1
 460 -95 l 2
 457 -162 448 -184 428 -180 c 0
 419 -178 419 -169 420 -128 c 0
 423 -80 422 -79 406 -79 c 0
 382 -79 376 -86 354 -130 c 0
 341 -156 325 -175 313 -182 c 0x7054
 282 -199 280 -185 308 -149 c 0
 322 -131 332 -111 332 -104 c 0
 332 -92 329 -91 295 -96 c 0
 266 -99 258 -98 258 -91 c 0
 258 -73 275 -58 304 -50 c 0
 320 -45 334 -39 333 -36 c 0
 332 -33 332 -24 332 -14 c 0xb024
 332 0 329 3 315 3 c 0
 305 3 287 -3 273 -8 c 0
 227 -27 204 -17 226 12 c 0
 239 29 301 50 358 57 c 0
 386 61 410 64 411 65 c 0
 412 66 410 78 409 92 c 0
 406 114 405 117 394 112 c 0
 361 94 345 115 369 143 c 0
 383 160 389 162 469 167 c 0
 542 172 601 181 608 188 c 0
 609 189 612 196 613 203 c 0
 615 216 612 217 564 216 c 0
 514 214 493 211 400 192 c 0
 361 184 356 181 354 166 c 0
 351 142 338 118 328 118 c 0
 323 118 318 136 313 161 c 0xb044
 303 217 303 220 317 235 c 0
 331 250 339 251 339 237 c 0
 339 224 346 224 400 237 c 0
 424 242 465 252 489 257 c 0
516 104 m 0
 516 117 513 122 505 122 c 0
 464 123 444 106 463 87 c 0
 469 80 479 79 494 82 c 0
 512 85 516 89 516 104 c 0
598 15 m 0
 618 18 646 21 659 22 c 2
 683 23 l 1
 683 -64 l 2
 683 -122 680 -155 674 -165 c 0
 664 -183 663 -184 644 -174 c 0
 637 -170 606 -166 577 -166 c 0
 511 -167 506 -162 500 -84 c 0
 496 -26 507 5 529 2 c 0
 535 1 545 3 550 5 c 0
 555 7 578 12 598 15 c 0
637 -70 m 2
 639 -26 643 -28 577 -37 c 0
 548 -41 547 -43 545 -67 c 0
 542 -110 550 -117 596 -113 c 2
 635 -110 l 1
 637 -70 l 2
EndSplineSet
EndChar
StartChar: uni5629
Encoding: 12894 22057 868
Width: 1000
VWidth: 0
Flags: W
HStem: -9 44<378 534.114 585.871 796.754> 2 47<379.021 536.32> 29 48<256.153 340.981> 93 39<427.177 473.947> 173 51<638.783 747.75> 275 31<441.534 473.181> 367 55<523.09 563.994 613.918 679.912> 374 36<390.379 471.896>
VStem: 341 47<76.1126 168.514> 473 44<230.215 264.767 423.095 477.907> 530 56<245.68 264.739> 532 42<-148.79 -9.15885> 564 48<319.179 366.998 422.734 478.711>
LayerCount: 2
Back
Fore
SplineSet
580 480 m 0x3dc8
 594 490 596 490 604 479 c 0
 609 473 612 457 612 445 c 2
 612 422 l 1
 649 422 l 2
 670 422 687 420 690 418 c 0
 692 415 689 405 684 395 c 0
 674 377 657 367 628 367 c 0
 616 367 613 363 614 344 c 0
 615 322 618 320 645 312 c 0
 661 308 674 302 674 299 c 0
 674 296 665 285 654 275 c 0
 625 250 634 235 686 224 c 0
 759 208 761 207 736 181 c 0
 724 167 719 166 683 173 c 0
 661 177 641 180 638 178 c 0
 626 171 634 147 650 141 c 0
 662 136 665 132 662 123 c 0
 654 100 645 93 619 93 c 0
 599 93 590 90 584 79 c 0
 579 70 580 62 584 58 c 0
 591 51 646 42 734 35 c 0
 800 30 812 20 781 -7 c 0
 761 -24 746 -24 630 -9 c 0
 607 -6 585 -6 582 -9 c 0x9ec8
 579 -12 575 -40 574 -71 c 0
 572 -128 561 -153 540 -153 c 0
 528 -153 525 -112 532 -59 c 0
 542 8 543 6 453 2 c 0x5cd0
 411 0 367 -4 356 -7 c 0
 338 -12 336 -11 341 7 c 0
 345 24 345 25 319 25 c 0
 305 25 283 27 271 29 c 0
 253 32 249 31 242 16 c 0
 238 6 227 -5 219 -8 c 2
 203 -16 l 1
 205 116 l 2
 207 266 212 307 228 321 c 0
 235 327 263 333 308 336 c 0
 386 341 398 335 390 301 c 0
 388 290 385 265 383 245 c 0
 378 201 384 198 434 215 c 0
 468 227 470 228 473 251 c 0
 475 276 475 276 454 275 c 0
 424 274 424 292 453 306 c 0
 479 318 486 334 475 354 c 0
 469 366 444 372 419 368 c 0
 416 368 406 371 396 374 c 0
 378 381 378 382 390 395 c 0
 398 404 412 409 437 410 c 0
 469 412 472 413 472 429 c 0
 472 451 494 486 505 482 c 0
 510 481 513 467 513 452 c 0
 513 426 514 425 539 423 c 0
 564 421 564 421 564 445 c 0
 564 462 569 472 580 480 c 0x3dc8
564 343 m 0
 564 365 563 367 544 367 c 0
 525 367 523 365 523 343 c 0
 523 321 525 319 544 319 c 0
 563 319 564 321 564 343 c 0
341 186 m 1
 342 295 l 1
 299 296 l 2
 266 297 254 295 250 286 c 0
 242 272 248 92 256 84 c 0
 259 81 279 78 301 77 c 2x3cc0
 341 76 l 1
 341 186 l 1
590 246 m 0
 591 252 591 262 590 267 c 0
 588 271 586 266 586 254 c 0x1ce0
 586 243 588 239 590 246 c 0
530 247 m 0
 530 257 527 265 523 265 c 0
 520 265 517 257 517 247 c 0
 517 237 520 230 523 230 c 0
 527 230 530 237 530 247 c 0
475 162 m 0
 475 180 473 183 457 182 c 0
 446 182 427 176 413 170 c 0
 389 159 388 158 388 120 c 0
 387 99 386 71 383 59 c 2
 378 36 l 1
 412 41 l 2
 430 43 465 48 489 49 c 0x5cc0
 538 53 547 58 541 78 c 0
 538 88 528 92 499 95 c 0
 478 97 453 96 443 93 c 0
 422 85 418 88 424 107 c 0
 427 115 439 127 452 132 c 0
 471 140 475 146 475 162 c 0
537 169 m 0
 537 176 534 182 530 182 c 0
 527 182 523 175 523 165 c 0
 523 155 526 148 530 151 c 0x1ce0
 534 153 537 161 537 169 c 0
EndSplineSet
EndChar
StartChar: uni56DE
Encoding: 12915 22238 889
Width: 1000
VWidth: 0
Flags: W
HStem: -49 60<343.547 574.19> -49 40<343 553.624> 79 41<440.725 523.31> 223 43<439.214 527.428> 338 50<339.148 661.462>
VStem: 403 35<121.13 222.661> 523 45<50.8723 76.4989> 646 41<15.161 273.368>
LayerCount: 2
Back
Fore
SplineSet
536 388 m 0xbf
 539 391 662 385 687 381 c 0
 711 377 713 371 699 332 c 0
 688 302 684 199 687 66 c 0
 690 -47 690 -48 677 -53 c 0
 671 -56 649 -54 628 -51 c 0
 540 -35 448 -32 389 -42 c 0
 372 -45 353 -49 348 -49 c 0
 343 -49 332 -50 326 -53 c 0
 316 -56 314 -55 314 -45 c 0
 314 -38 310 -29 306 -25 c 0
 291 -10 287 344 301 366 c 0
 307 377 304 376 436 382 c 0
 490 384 535 387 536 388 c 0xbf
498 342 m 0
 455 344 414 346 408 347 c 0
 402 348 395 348 393 347 c 0
 391 345 379 342 367 341 c 0
 355 340 342 335 339 332 c 0
 332 325 321 236 326 226 c 0
 328 223 331 205 332 188 c 0
 333 170 334 150 337 143 c 0
 340 135 341 97 342 60 c 2
 343 -9 l 1x7f
 378 -6 l 2
 397 -4 433 1 457 4 c 0
 481 7 531 11 568 11 c 0
 605 11 637 13 640 15 c 0
 642 18 645 49 646 85 c 0
 650 235 652 289 657 313 c 2
 662 338 l 1
 619 338 l 2
 595 338 541 340 498 342 c 0
410 252 m 0
 424 269 425 269 493 266 c 0
 530 264 564 261 566 259 c 0
 568 257 569 214 568 164 c 0
 567 86 566 71 555 59 c 0
 539 41 526 42 523 61 c 0
 521 77 524 77 429 79 c 2
 404 79 l 1
 403 122 l 2
 402 145 400 180 399 199 c 0
 396 227 399 238 410 252 c 0
528 201 m 0
 522 217 517 219 479 221 c 2
 438 223 l 1
 438 190 l 2
 438 172 439 149 441 139 c 0
 444 121 446 120 484 120 c 2
 524 120 l 1
 529 152 l 2
 532 169 531 191 528 201 c 0
EndSplineSet
EndChar
StartChar: uni56F2
Encoding: 12367 22258 665
Width: 1000
VWidth: 0
Flags: W
HStem: -105 38<248.954 385.484> -84 46<301.021 534> -82 55<567.002 697> 123 53<581 678.937> 236 36<354.991 419.875> 265 21<618.881 634.974> 392 47<574.661 685.423>
VStem: 255 39<-32.4367 91.855 126.173 285.141> 430 41<177.302 235.919> 534 33<-29.8882 121 291.448 370.895> 683 46<218.413 391> 683 35<177.128 391>
LayerCount: 2
Back
Fore
SplineSet
647 439 m 0x53d0
 650 442 724 435 729 431 c 0x53e0
 730 430 728 403 723 371 c 0
 718 339 716 303 718 293 c 0
 720 283 720 264 717 250 c 0
 714 236 714 223 717 220 c 0
 720 217 724 185 726 150 c 0
 733 32 741 -20 754 -34 c 0
 766 -48 766 -48 751 -64 c 0
 737 -79 731 -79 629 -82 c 0x33d0
 570 -83 510 -85 495 -84 c 0x53d0
 480 -84 418 -89 357 -96 c 0
 296 -103 243 -107 240 -105 c 0
 233 -100 244 -75 256 -67 c 0x93d0
 260 -65 288 -61 318 -58 c 0
 349 -56 383 -50 395 -46 c 0
 408 -43 444 -39 475 -38 c 0
 506 -37 533 -35 534 -34 c 0
 535 -32 535 4 534 45 c 2
 532 121 l 1
 510 125 l 2
 475 130 466 123 437 71 c 0
 409 21 374 -16 362 -9 c 0
 359 -7 365 6 377 21 c 0
 399 49 416 89 417 111 c 0
 417 119 411 123 397 123 c 0
 371 123 303 92 298 78 c 0
 296 72 294 48 294 25 c 0
 294 -8 292 -21 281 -33 c 0
 273 -41 263 -47 260 -47 c 0
 252 -47 252 -45 255 82 c 0
 258 237 255 341 247 361 c 0
 238 385 252 405 282 411 c 0
 315 418 403 425 566 432 c 0
 609 434 645 437 647 439 c 0x53d0
683 286 m 2x17e0
 686 391 l 1
 669 392 l 2
 649 393 611 389 589 384 c 0
 575 381 573 377 573 338 c 0
 573 291 577 286 615 286 c 0
 628 286 635 283 635 276 c 0
 635 271 631 265 628 265 c 0
 625 265 620 259 618 252 c 0
 615 243 607 238 597 238 c 0
 579 238 569 216 577 192 c 0
 580 180 587 178 628 176 c 0
 655 175 678 175 679 177 c 0
 680 179 682 228 683 286 c 2x17e0
546 382 m 0
 546 389 455 387 443 380 c 0
 439 377 441 369 448 357 c 0
 454 347 462 328 464 314 c 0
 468 292 470 289 490 287 c 0
 522 284 533 295 533 334 c 0
 533 352 536 369 539 371 c 0
 543 373 546 378 546 382 c 0
410 374 m 0
 410 381 367 382 339 376 c 0
 290 366 294 380 294 248 c 0
 294 176 297 129 301 126 c 0
 305 124 316 128 327 135 c 0
 337 142 358 151 373 153 c 0
 408 159 430 179 430 203 c 0
 430 234 423 239 381 236 c 0
 360 235 342 236 342 239 c 0
 342 248 377 272 389 272 c 0x1bc0
 396 272 406 276 412 281 c 0
 423 288 423 291 410 315 c 0
 400 334 398 344 403 354 c 0
 406 361 410 370 410 374 c 0
529 225 m 0
 526 234 518 238 506 238 c 0
 482 238 471 226 471 199 c 0
 471 177 473 177 498 177 c 0
 520 177 525 180 528 195 c 0
 531 205 531 218 529 225 c 0
656 116 m 2
 642 119 620 123 606 123 c 2
 581 123 l 1
 577 85 l 2
 574 65 574 38 576 25 c 0
 579 11 577 0 573 -3 c 0
 570 -5 567 -14 567 -22 c 0
 567 -33 570 -34 582 -31 c 0
 590 -29 620 -27 647 -27 c 2
 697 -27 l 1x33c0
 693 -8 l 2
 691 2 688 32 686 59 c 2
 681 109 l 1
 656 116 l 2
EndSplineSet
EndChar
StartChar: uni5712
Encoding: 12640 22290 776
Width: 1000
VWidth: 0
Flags: W
HStem: 251 50<559.024 668.916> 327 42<354.41 444.783> 331 51<494.965 571.252> 418 57<484.463 728.709>
VStem: 216 45<255 420.833> 225 47<-99.3242 221.757> 381 41<-86.9336 28.9029> 381 20<-90.3185 -69.3226> 510 48<149.931 193.977 240 250.979> 735 49<-68.9174 176.67 411.711 417.917>
LayerCount: 2
Back
Fore
SplineSet
228 482 m 0x98c0
 240 491 242 490 252 478 c 0
 262 465 266 465 340 471 c 0
 383 475 499 476 598 475 c 2
 779 472 l 1
 778 446 l 2
 775 373 776 136 779 131 c 0
 781 128 783 73 784 8 c 2
 784 -109 l 1
 766 -126 l 2
 754 -136 743 -140 733 -138 c 0
 643 -118 573 -119 365 -141 c 0
 287 -149 222 -155 221 -154 c 0
 220 -153 222 -119 225 -80 c 0
 228 -40 228 34 225 90 c 0x94c0
 222 144 217 252 216 330 c 0
 214 465 215 472 228 482 c 0x98c0
428 433 m 0
 393 440 277 431 267 421 c 0
 264 418 262 379 261 335 c 2
 261 255 l 1
 278 264 l 2
 288 269 320 277 350 280 c 0
 431 292 445 296 448 314 c 0
 451 329 449 329 401 327 c 0
 347 324 337 332 360 355 c 0
 369 364 383 369 397 369 c 0xd9c0
 441 369 449 375 449 403 c 0
 449 426 447 429 428 433 c 0
680 421 m 0
 490 431 478 429 484 398 c 0
 486 388 495 385 534 382 c 0
 585 379 587 376 567 345 c 0
 559 332 552 330 533 331 c 0xb0c0
 506 333 482 317 498 307 c 0
 503 304 543 301 587 301 c 0
 675 301 685 296 663 263 c 0
 651 245 648 245 604 248 c 2
 558 251 l 1
 558 195 l 2
 558 145 556 136 542 119 c 0
 529 104 524 102 515 109 c 0
 508 116 504 115 497 107 c 0
 491 100 481 98 463 101 c 0
 443 104 436 103 426 91 c 0
 416 81 415 74 420 69 c 0
 425 64 431 66 438 78 c 2
 450 93 l 1
 477 78 l 2
 511 60 518 62 569 112 c 0
 605 147 623 152 603 121 c 0
 597 111 577 91 561 76 c 0
 544 60 531 45 531 42 c 0
 531 33 602 1 622 1 c 0
 649 1 694 -13 694 -22 c 0
 694 -25 686 -37 676 -47 c 2
 659 -65 l 1
 695 -69 l 2
 715 -70 733 -70 734 -69 c 0
 736 -68 736 -18 735 41 c 0
 734 100 732 208 732 282 c 0
 731 366 729 417 725 418 c 0
 722 418 700 420 680 421 c 0
510 246 m 0
 510 250 490 253 461 252 c 0
 390 251 377 246 395 228 c 0
 400 223 411 223 433 230 c 0
 451 235 475 240 488 240 c 0
 500 240 510 243 510 246 c 0
372 241 m 0
 368 244 363 246 361 246 c 0
 359 245 338 241 315 237 c 0
 292 233 269 226 265 222 c 0
 260 217 260 200 265 167 c 0
 268 141 271 114 271 107 c 0
 271 100 271 58 272 15 c 0
 272 -28 271 -70 270 -80 c 0
 269 -94 272 -98 289 -99 c 0
 300 -100 325 -100 345 -97 c 2
 381 -93 l 1x95c0
 381 -32 l 2x92c0
 381 1 380 29 379 29 c 0
 378 29 361 14 341 -5 c 0
 321 -24 300 -39 295 -39 c 0
 274 -39 288 -18 340 30 c 0
 393 78 409 102 382 93 c 0
 372 90 368 94 365 111 c 0
 358 149 361 208 371 222 c 0
 379 233 379 237 372 241 c 0
510 172 m 0
 510 194 494 198 446 192 c 0
 413 187 401 181 401 166 c 0
 402 139 410 137 461 145 c 0
 508 152 510 154 510 172 c 0
482 6 m 0
 458 26 434 42 429 42 c 0
 424 42 422 26 422 -3 c 0x92c0
 421 -30 417 -57 412 -67 c 0
 407 -77 402 -86 401 -88 c 0
 401 -94 464 -88 523 -76 c 0
 550 -71 592 -66 615 -66 c 2
 657 -65 l 1
 614 -59 l 2
 563 -53 540 -41 482 6 c 0
EndSplineSet
EndChar
StartChar: uni5727
Encoding: 12341 22311 639
Width: 1000
VWidth: 0
Flags: W
HStem: -3 49<336.016 502.766 547.857 711.321> 218 53<552.994 671.115> 375 51<365.5 461.728 553.196 692.537> 379 55<404.194 695.065>
VStem: 304 44<92.5695 367> 503 46<51.1222 209.46> 519 23<301.475 342.244>
LayerCount: 2
Back
Fore
SplineSet
510 434 m 0xd8
 514 439 665 430 686 425 c 0
 704 420 704 414 690 392 c 0
 680 376 677 376 624 379 c 0xd8
 527 385 405 383 376 375 c 2
 348 367 l 1
 348 281 l 2
 349 233 347 184 346 171 c 0
 343 143 316 54 302 23 c 0
 297 11 293 0 293 -2 c 0
 293 -11 231 -101 225 -101 c 0
 215 -101 216 -90 228 -69 c 0
 248 -32 281 45 291 78 c 0
 296 97 302 155 304 207 c 0
 307 285 306 308 296 340 c 0
 281 390 289 409 322 409 c 0
 334 409 356 413 371 416 c 0
 386 419 423 423 453 426 c 0xe8
 483 428 508 433 510 434 c 0xd8
519 333 m 0xca
 531 355 541 347 542 314 c 0xca
 542 298 546 282 550 278 c 0
 554 274 581 271 610 271 c 0
 673 271 688 260 664 229 c 0
 656 218 645 217 606 218 c 0
 553 219 551 216 552 164 c 0
 553 151 551 121 549 98 c 0
 545 48 540 51 645 46 c 0
 683 44 718 40 723 37 c 0
 728 34 737 31 744 30 c 0
 781 24 792 2 771 -21 c 0
 757 -37 747 -37 697 -20 c 0
 664 -10 631 -6 530 -3 c 0
 461 -2 385 -2 362 -5 c 0
 325 -9 320 -9 320 1 c 0
 320 30 378 48 462 48 c 0
 493 48 498 50 503 64 c 0xcc
 508 76 509 183 504 207 c 0
 503 213 438 209 431 203 c 0
 424 196 381 198 381 205 c 0
 381 225 405 246 425 246 c 0
 437 246 449 249 453 252 c 0
 456 255 468 259 480 260 c 0
 497 262 500 266 505 290 c 0
 508 305 514 324 519 333 c 0xca
EndSplineSet
EndChar
StartChar: uni57DF
Encoding: 12392 22495 690
Width: 1000
VWidth: 0
Flags: W
HStem: -35 49<338.828 478.985> 18 46<191.813 285.734> 222 54<191.261 273.583 330.82 389.25> 312 56<576.792 644>
VStem: 270 34<279.674 385.439> 287 41<84.3478 221.933> 652 44<367.875 443.584>
LayerCount: 2
Back
Fore
SplineSet
558 446 m 0xfa
 564 454 572 461 576 461 c 0
 579 461 580 454 578 446 c 0
 576 437 575 416 574 399 c 2
 572 368 l 1
 607 366 l 1
 644 364 l 1
 652 395 l 2
 662 433 680 459 692 451 c 0
 697 448 699 437 696 421 c 0
 693 407 689 385 687 372 c 0
 682 342 667 324 646 324 c 0
 637 324 628 320 626 316 c 0
 623 313 612 311 600 312 c 0
 578 314 578 314 576 278 c 0
 573 232 586 146 596 136 c 0
 601 131 610 135 628 155 c 0
 669 200 726 231 726 208 c 0
 726 200 686 166 678 166 c 0
 675 166 656 152 637 134 c 2
 604 101 l 1
 613 61 l 2
 618 39 627 16 632 10 c 0
 637 3 644 -8 646 -16 c 0
 656 -45 783 -89 797 -67 c 0
 800 -63 805 -60 809 -60 c 0
 822 -60 815 -78 792 -100 c 0
 759 -132 724 -135 671 -108 c 0
 627 -86 611 -67 585 -8 c 2
 568 31 l 1
 550 15 l 2
 525 -8 501 -53 497 -80 c 0
 493 -116 485 -129 473 -127 c 0
 458 -124 455 -86 468 -60 c 0
 474 -49 479 -38 479 -35 c 0
 479 -32 458 -32 433 -35 c 0
 385 -40 328 -34 328 -25 c 0
 328 -22 334 -13 341 -5 c 0
 352 9 362 11 422 14 c 0
 459 15 495 16 502 16 c 0
 509 16 523 29 535 45 c 0
 553 70 555 78 552 105 c 0
 550 122 546 152 544 172 c 0
 541 191 536 208 533 208 c 0
 523 208 519 168 527 152 c 0
 539 131 515 100 492 104 c 0
 483 105 458 107 435 107 c 2
 394 108 l 1
 392 162 l 2
 391 192 388 219 387 222 c 0
 384 225 359 226 334 222 c 0
 331 221 328 193 328 159 c 0
 328 125 325 91 322 84 c 0
 312 66 321 63 372 73 c 0
 425 83 430 78 398 47 c 0
 373 23 338 16 258 18 c 0
 191 20 180 26 196 49 c 0
 204 61 213 64 236 64 c 0
 285 64 288 66 287 121 c 0xf6
 287 148 285 182 282 197 c 0
 277 226 280 224 214 227 c 0
 182 228 178 236 194 258 c 0
 204 272 216 274 252 275 c 2
 274 276 l 1
 270 324 l 2
 266 364 267 374 277 386 c 0
 284 394 291 397 294 396 c 0
 297 394 302 372 304 347 c 0
 312 274 310 276 356 276 c 0
 387 276 398 273 403 264 c 0
 408 254 420 253 470 252 c 2
 531 252 l 1
 529 282 l 2
 528 298 526 314 524 316 c 0
 522 319 490 320 454 321 c 0
 417 321 387 324 386 327 c 0
 381 345 404 359 446 362 c 0
 540 370 538 368 543 404 c 0
 546 418 553 437 558 446 c 0xfa
491 197 m 0
 484 215 447 211 434 190 c 0
 420 170 425 163 457 156 c 0
 476 152 480 154 487 169 c 0
 491 178 493 192 491 197 c 0
EndSplineSet
EndChar
StartChar: uni5830
Encoding: 12641 22576 777
Width: 1000
VWidth: 0
Flags: W
HStem: -41 49<642.437 685.948> 33 43<198.436 298.65> 45 56<338.944 433.709> 78 61<649.002 691.234> 92 47<593.79 627.582> 421 58<471.314 721.549>
VStem: 284 38<376.107 455.777> 437 48<-90 46.3513> 505 190<282.374 375.236> 549 45<139.013 175.9> 648 47<240.639 277.248>
LayerCount: 2
Back
Fore
SplineSet
563 471 m 0xc740
 590 474 639 478 674 479 c 0
 743 480 751 475 722 443 c 0
 707 427 701 425 614 421 c 0
 501 417 479 416 473 409 c 0
 465 402 474 139 482 125 c 0
 487 117 505 117 531 126 c 0
 549 132 552 136 549 153 c 0
 546 163 548 174 552 176 c 0
 570 188 558 195 529 192 c 0
 495 188 489 197 511 217 c 0
 522 227 594 240 637 241 c 0
 644 241 648 246 648 257 c 0xc760
 648 270 644 274 623 278 c 0
 573 286 556 283 536 262 c 0
 526 251 514 243 511 245 c 0
 508 247 505 273 505 302 c 0
 505 380 513 386 637 393 c 0
 689 396 707 388 699 362 c 0
 696 355 695 323 695 294 c 0xc780
 696 248 693 236 678 213 c 0
 660 184 641 171 636 185 c 0
 633 195 580 196 580 187 c 0
 580 183 584 179 587 177 c 0
 591 175 594 165 594 155 c 0
 594 141 597 139 613 139 c 0xcf40
 624 139 639 144 646 149 c 0
 657 157 661 156 669 149 c 0
 674 144 686 139 693 138 c 0
 723 133 704 78 673 78 c 0x9740
 661 78 654 73 649 57 c 0
 638 25 639 20 666 8 c 0
 686 -2 689 -6 686 -19 c 0
 676 -50 666 -55 631 -41 c 0
 600 -29 600 -29 582 -45 c 0
 572 -54 561 -64 558 -66 c 0
 555 -69 585 -70 626 -71 c 0
 702 -72 761 -79 793 -91 c 0
 813 -98 812 -111 792 -135 c 0
 783 -145 775 -147 750 -143 c 0
 733 -141 713 -137 706 -136 c 0
 699 -135 679 -131 662 -127 c 0
 633 -120 528 -122 465 -130 c 2
 436 -134 l 1
 437 -67 l 2
 440 38 439 60 429 52 c 0
 424 48 413 45 403 45 c 0xa740
 380 45 287 38 235 33 c 0
 199 30 193 30 193 40 c 0
 193 58 219 79 238 76 c 0
 248 75 265 76 278 80 c 0
 305 88 306 89 295 223 c 0
 289 303 281 327 263 320 c 0
 258 318 244 318 233 321 c 0
 192 329 217 364 264 364 c 0
 282 364 287 371 284 404 c 0
 282 431 296 459 312 459 c 0
 321 459 323 452 322 427 c 0
 319 374 320 369 334 374 c 0
 340 376 362 379 382 381 c 0
 427 384 432 388 427 408 c 0
 424 419 427 431 436 444 c 0
 448 460 455 463 483 464 c 0
 501 465 537 468 563 471 c 0xc740
433 223 m 2
 433 290 430 346 429 347 c 0
 428 348 421 344 414 339 c 0
 407 334 392 330 380 330 c 0
 339 330 336 323 344 221 c 0
 349 155 349 124 344 110 c 2
 336 90 l 1
 365 96 l 2
 381 99 403 101 414 101 c 2
 434 101 l 1xa7
 433 223 l 2
647 335 m 0
 644 353 546 350 541 332 c 0
 538 325 552 324 593 325 c 0
 635 326 648 328 647 335 c 0
628 79 m 0
 628 89 624 92 610 92 c 0x8f
 599 92 585 88 580 85 c 0
 572 80 573 76 587 62 c 0
 611 35 628 42 628 79 c 0
536 64 m 0
 546 84 546 85 531 84 c 0
 522 84 509 81 501 78 c 0x97
 486 72 485 69 485 -9 c 2
 485 -90 l 1
 503 -87 l 2
 514 -85 518 -81 516 -74 c 0
 510 -60 527 -38 552 -28 c 0
 581 -15 581 4 550 23 c 0
 523 40 522 38 536 64 c 0
EndSplineSet
EndChar
StartChar: uni58CA
Encoding: 12917 22730 891
Width: 1000
VWidth: 0
Flags: W
HStem: -130 48<686.047 805.394> -81 60<557.865 618.272> 238 53<595.801 649.649> 241 41<217.387 300.939> 322 55<576.253 690.161>
VStem: 303 36<282.526 400.938> 310 37<34 220.783> 474 41<169.416 226.788> 525 167<294.793 363.5> 527 37<382.054 467.974> 650 35<176.107 238.184>
LayerCount: 2
Back
Fore
SplineSet
537 460 m 0xd940
 553 480 562 469 564 426 c 0xd940
 565 394 569 383 576 382 c 0
 581 381 611 379 640 377 c 0
 688 373 692 370 692 357 c 0xd980
 691 328 678 322 620 322 c 0
 569 322 566 321 564 307 c 0
 562 291 563 291 628 291 c 2
 694 291 l 1
 689 256 l 2
 687 236 685 205 685 187 c 0xe960
 685 147 662 120 632 123 c 0
 602 126 528 113 533 106 c 0
 542 92 576 86 634 87 c 0
 688 88 696 87 703 75 c 0
 710 63 708 57 692 31 c 0
 681 14 666 -2 659 -4 c 0
 652 -7 641 -14 634 -21 c 0
 622 -34 623 -35 653 -48 c 0
 697 -66 729 -75 777 -79 c 0
 799 -81 819 -82 820 -82 c 0
 826 -84 818 -101 806 -115 c 0
 793 -129 785 -130 744 -130 c 0
 704 -130 684 -125 629 -103 c 0
 578 -83 555 -78 537 -81 c 0
 514 -85 514 -84 522 -69 c 0
 529 -55 528 -51 508 -31 c 0
 496 -18 483 -8 481 -8 c 0
 473 -8 474 -70 482 -80 c 0
 495 -96 462 -141 444 -134 c 0
 437 -131 433 -120 433 -93 c 0
 433 -73 431 -55 428 -55 c 0
 425 -55 405 -65 383 -77 c 0
 362 -89 342 -97 340 -94 c 0
 333 -87 359 -56 392 -35 c 0
 426 -13 439 2 427 9 c 0
 420 14 387 2 374 -11 c 0
 367 -18 348 -21 302 -21 c 0
 267 -21 227 -25 212 -28 c 0
 179 -36 170 -28 185 -6 c 0
 196 11 227 23 285 31 c 2
 310 34 l 1xeb80
 306 123 l 2
 305 173 302 217 301 221 c 0
 300 225 280 230 258 233 c 0
 236 236 216 239 214 241 c 0
 212 243 213 253 217 262 c 0
 225 279 250 289 263 282 c 0
 267 279 277 279 286 281 c 0
 300 285 302 289 303 330 c 0
 304 360 309 382 316 393 c 2
 327 411 l 1
 332 383 l 2
 335 368 338 344 339 329 c 0
 341 287 348 278 374 283 c 0
 386 285 399 290 404 293 c 0
 415 301 427 294 427 279 c 0
 427 273 430 263 433 258 c 0
 438 249 442 250 452 262 c 0
 459 270 478 280 495 283 c 0
 522 288 525 291 525 305 c 0xdd80
 525 322 524 322 461 323 c 0
 426 323 396 327 395 330 c 0
 394 334 399 343 406 351 c 0
 418 365 432 368 512 375 c 0
 524 376 525 382 527 414 c 0
 528 434 533 455 537 460 c 0xd940
650 234 m 0xe920
 643 239 604 243 601 238 c 0
 593 226 588 177 595 173 c 0
 598 171 610 171 622 173 c 0
 640 176 644 181 647 204 c 0
 650 220 651 233 650 234 c 0xe920
389 230 m 0
 383 240 370 240 354 228 c 0
 343 220 342 212 344 168 c 0
 345 141 346 99 347 76 c 0xcb
 348 28 356 22 390 44 c 0
 399 50 424 57 446 60 c 2
 484 64 l 1
 482 87 l 2
 481 100 478 113 477 114 c 0
 476 115 462 118 446 119 c 0
 430 120 415 124 412 127 c 0
 409 130 402 154 399 178 c 0
 396 202 392 226 389 230 c 0
563 219 m 0
 563 235 561 237 539 237 c 2
 515 237 l 1
 515 203 l 2
 515 170 516 169 535 169 c 0
 556 169 563 182 563 219 c 0
474 196 m 0
 474 232 467 238 444 221 c 0
 434 214 433 209 437 196 c 0
 440 187 443 175 442 171 c 0
 441 166 447 162 457 162 c 0
 473 162 474 164 474 196 c 0
651 27 m 0
 652 39 555 35 544 23 c 0
 539 18 575 -21 584 -21 c 0
 591 -21 650 22 651 27 c 0
EndSplineSet
EndChar
StartChar: uni590F
Encoding: 12870 22799 844
Width: 1000
VWidth: 0
Flags: W
HStem: -149 42<662.125 799.997> 183 51<488.215 508.326> 444 46<265.684 422.96>
VStem: 552 38<162 339.787>
LayerCount: 2
Back
Fore
SplineSet
590 508 m 0
 649 513 656 512 667 508 c 0
 681 503 680 477 666 465 c 0
 657 458 634 455 577 454 c 2
 501 453 l 1
 469 426 l 2
 422 387 423 380 471 387 c 0
 493 390 530 392 552 392 c 2
 593 392 l 1
 590 331 l 2
 589 298 591 253 596 232 c 0
 603 197 603 190 591 174 c 0
 584 163 575 149 573 140 c 0
 567 121 553 113 509 107 c 0
 490 104 475 101 476 100 c 0
 477 99 500 95 528 90 c 0
 556 86 582 81 585 78 c 0
 592 71 548 7 530 -1 c 0
 514 -8 505 -22 512 -32 c 0
 525 -54 657 -92 738 -97 c 0
 776 -100 810 -104 811 -107 c 0
 813 -110 807 -119 800 -128 c 0
 790 -142 779 -146 745 -149 c 0
 697 -153 622 -144 595 -130 c 0
 585 -125 571 -120 565 -120 c 0
 559 -120 537 -113 517 -103 c 0
 452 -72 449 -74 375 -120 c 0
 305 -164 272 -176 222 -177 c 0
 187 -178 179 -166 201 -140 c 0
 213 -127 217 -126 222 -133 c 0
 230 -146 305 -121 368 -85 c 2
 415 -57 l 1
 398 -44 l 2
 389 -37 373 -27 363 -20 c 0
 348 -10 345 -5 348 9 c 0
 352 25 351 24 326 2 c 0
 312 -11 298 -26 295 -30 c 0
 288 -42 263 -41 263 -29 c 0
 263 -24 286 3 315 31 c 0
 371 86 377 104 338 104 c 0
 315 104 312 114 330 136 c 0
 343 152 399 160 501 161 c 2
 552 162 l 1
 552 240 l 2
 552 347 554 345 485 340 c 0
 401 334 369 325 374 313 c 0
 376 308 397 305 434 304 c 0
 465 304 495 304 500 303 c 0
 512 301 509 280 494 262 c 0
 483 249 477 247 457 251 c 0
 444 253 422 254 408 251 c 0
 367 244 395 234 459 234 c 0
 507 234 515 232 515 222 c 0
 514 215 509 203 502 196 c 0
 492 184 483 182 430 183 c 0
 386 183 365 181 357 174 c 0
 350 169 340 165 334 168 c 0
 324 171 324 179 327 215 c 0
 336 297 334 329 318 343 c 0
 300 360 301 363 321 383 c 0
 337 398 338 398 356 387 c 0
 375 374 370 373 416 414 c 0
 420 418 426 425 428 432 c 0
 434 448 419 450 348 444 c 0
 279 438 263 440 263 457 c 0
 263 476 282 489 313 490 c 0
 357 492 556 505 590 508 c 0
424 92 m 0
 433 102 433 105 426 104 c 0
 416 103 365 51 360 37 c 0
 359 33 364 29 374 29 c 0
 383 29 398 24 407 17 c 0
 416 10 434 0 448 -5 c 0
 471 -14 475 -13 497 5 c 0
 533 32 530 37 470 46 c 0
 419 53 413 56 413 68 c 0
 413 74 417 85 424 92 c 0
EndSplineSet
EndChar
StartChar: uni5937
Encoding: 12368 22839 666
Width: 1000
VWidth: 0
Flags: W
HStem: -119 51<686.829 771.557> 66 37<298.276 378.468> 153 35<304.237 404.891> 244 37<359.875 414.602> 247 51<472.458 551.998> 325 56<469.783 640.625> 331 42<258.971 411.996>
VStem: 411 44<393.556 456.845> 552 44<203.37 247.208>
LayerCount: 2
Back
Fore
SplineSet
420 444 m 0xf380
 434 467 444 460 455 420 c 2
 464 386 l 1
 540 381 l 2
 653 374 665 368 631 336 c 0
 616 322 610 321 568 325 c 0
 542 327 513 331 505 333 c 0
 496 335 484 333 479 328 c 0
 466 318 467 290 480 285 c 0
 485 283 490 285 490 288 c 0
 490 296 546 303 571 298 c 0xed80
 589 295 592 289 596 268 c 0
 599 252 596 232 588 209 c 0
 565 147 566 148 508 149 c 0
 479 150 455 147 452 143 c 0
 443 128 454 126 567 134 c 0
 657 139 672 135 693 95 c 0
 703 75 703 72 692 47 c 0
 685 33 672 13 661 3 c 0
 650 -7 641 -20 641 -25 c 0
 641 -30 664 -40 691 -48 c 0
 718 -56 748 -65 757 -68 c 0
 804 -82 784 -126 734 -119 c 0
 627 -105 478 -22 453 37 c 0
 448 50 441 62 438 64 c 0
 430 69 377 9 380 -1 c 0
 383 -12 283 -107 263 -112 c 0
 254 -114 239 -118 231 -121 c 0
 217 -125 216 -123 218 -109 c 0
 219 -97 229 -88 256 -75 c 0
 302 -53 351 -5 368 33 c 0
 376 49 380 64 379 66 c 0
 377 67 350 66 318 62 c 0
 284 58 258 59 255 62 c 0
 247 70 274 163 288 177 c 0
 294 183 315 187 348 188 c 0
 376 189 403 192 407 194 c 0
 411 197 415 210 415 222 c 2
 415 244 l 1
 352 236 l 2
 317 232 287 228 286 229 c 0
 285 230 287 239 292 248 c 0
 298 262 307 267 343 273 c 0
 366 278 394 281 404 281 c 0
 426 281 431 292 422 317 c 2
 416 335 l 1
 339 331 l 2
 273 328 263 329 260 339 c 0
 251 361 274 371 331 373 c 0
 421 376 414 374 411 403 c 0
 410 417 414 435 420 444 c 0xf380
514 253 m 0
 509 261 506 261 481 251 c 0
 465 245 463 241 464 223 c 0
 466 199 477 195 522 202 c 0
 550 206 552 209 552 227 c 0
 552 243 549 247 535 247 c 0
 525 247 516 250 514 253 c 0
405 137 m 0
 405 155 404 156 352 153 c 0
 312 150 304 144 296 118 c 0
 291 104 293 103 317 103 c 0
 331 103 357 107 374 112 c 0
 399 120 405 125 405 137 c 0
630 73 m 0
 609 87 521 92 503 82 c 0
 485 71 498 49 540 20 c 0
 592 -16 608 -19 630 7 c 0
 653 34 653 59 630 73 c 0
EndSplineSet
EndChar
StartChar: uni5965
Encoding: 12668 22885 804
Width: 1000
VWidth: 0
Flags: W
HStem: -7 44<208.547 315.29> 213 57<551.711 603.764> 367 50<428.386 522.994 556.566 606.375>
VStem: 291 50<136.963 198.437 251.291 351.516> 454 43<79.1076 156.493> 523 34<282.348 367.004> 619 48<96.231 146.418>
LayerCount: 2
Back
Fore
SplineSet
400 481 m 0
 425 505 448 524 451 524 c 0
 467 524 437 478 389 430 c 0
 377 417 368 406 370 404 c 0
 372 402 388 404 406 408 c 0
 424 413 490 416 551 417 c 0
 648 418 662 417 659 408 c 0
 652 381 652 301 660 221 c 0
 665 173 668 128 667 123 c 0
 664 110 631 81 624 86 c 0
 621 88 618 94 619 98 c 0
 620 103 620 115 619 126 c 2
 618 147 l 1
 608 129 l 2
 593 101 581 101 540 130 c 0
 519 144 501 157 500 157 c 0
 498 157 497 150 497 142 c 0
 497 133 496 116 493 102 c 2
 488 76 l 1
 548 72 l 2
 581 69 638 66 675 65 c 0
 712 64 747 59 752 54 c 0
 765 43 764 25 749 12 c 0
 738 2 730 1 686 7 c 0
 625 14 544 15 544 8 c 0
 544 -3 565 -27 575 -27 c 0
 580 -27 585 -29 585 -32 c 0
 585 -43 678 -88 730 -102 c 0
 760 -110 787 -117 790 -119 c 0
 801 -126 795 -142 777 -156 c 0
 757 -171 741 -171 687 -155 c 0
 589 -126 476 -40 476 4 c 0
 476 22 465 15 439 -18 c 0
 407 -59 320 -149 312 -149 c 0
 309 -149 295 -159 283 -170 c 0
 261 -190 244 -196 244 -185 c 0
 244 -172 273 -136 300 -115 c 0
 332 -91 421 4 421 13 c 0
 421 23 325 11 249 -7 c 0
 208 -17 197 -10 209 17 c 0
 214 27 220 36 225 37 c 0
 309 59 366 69 401 72 c 0
 425 73 445 77 447 79 c 0
 450 81 453 102 454 126 c 0
 456 160 455 170 448 170 c 0
 443 170 412 149 380 123 c 0
 343 93 320 79 316 83 c 0
 312 87 313 94 319 104 c 0
 326 116 326 118 319 111 c 0
 297 90 294 101 291 213 c 0
 289 315 287 326 273 346 c 0
 256 370 260 388 285 402 c 0
 297 408 302 406 316 391 c 0
 334 372 350 375 343 395 c 0
 337 415 351 435 400 481 c 0
606 322 m 0
 607 349 608 371 608 371 c 1
 577 371 558 365 557 355 c 0
 556 323 549 289 543 282 c 0
 535 272 564 264 587 270 c 0
 603 273 604 277 606 322 c 0
523 359 m 0
 523 365 515 368 495 367 c 0
 454 366 424 359 427 351 c 0
 428 347 430 337 433 328 c 0
 436 314 437 314 449 335 c 0
 456 348 466 357 473 357 c 0
 484 357 487 350 492 315 c 0
 502 254 510 258 512 325 c 0
 513 332 516 342 519 345 c 0
 522 348 523 354 523 359 c 0
394 355 m 0
 394 358 392 361 389 360 c 0
 382 359 343 346 340 343 c 0
 335 339 340 256 345 251 c 0
 354 244 395 258 392 268 c 0
 383 291 380 339 387 343 c 0
 391 346 394 351 394 355 c 0
449 276 m 0
 449 281 448 286 447 285 c 0
 426 279 420 266 438 266 c 0
 443 266 449 271 449 276 c 0
616 187 m 0
 612 209 610 210 581 213 c 0
 563 214 551 212 551 208 c 0
 552 199 612 154 617 159 c 0
 619 161 618 174 616 187 c 0
414 200 m 0
 422 210 421 211 407 210 c 0
 398 209 380 204 367 200 c 0
 345 193 343 191 341 164 c 0
 340 148 342 136 345 137 c 0
 353 140 401 184 414 200 c 0
EndSplineSet
EndChar
StartChar: uni59D0
Encoding: 12345 22992 643
Width: 1000
VWidth: 0
Flags: W
HStem: -65 62<717.053 804.449> 122 25<647.035 665.105> 199 53<545.786 646.717> 219 39<193.865 289.106> 333 49<532.471 667>
VStem: 290 40<194 221.613> 301 45<282.457 385.484> 489 45<243.104 332.828> 494 50<6 90.9385> 667 41<144.612 332>
LayerCount: 2
Back
Fore
SplineSet
307 386 m 0xda40
 312 394 322 401 327 401 c 0
 340 401 346 377 346 326 c 2
 347 282 l 1
 400 285 l 2
 448 287 452 285 452 273 c 0
 452 266 447 253 440 244 c 0
 433 235 424 210 420 188 c 0
 415 166 402 128 390 105 c 2
 370 62 l 1
 397 35 l 2
 412 20 426 1 428 -6 c 0
 432 -18 435 -18 461 -12 c 0
 477 -9 491 -2 494 1 c 0xdac0
 498 8 496 137 489 275 c 0
 484 386 481 385 582 382 c 0
 625 381 671 379 684 378 c 2
 707 377 l 1
 708 265 l 2
 709 172 712 80 717 13 c 0
 718 6 727 0 744 -3 c 0
 781 -10 813 -25 813 -35 c 0
 812 -52 779 -70 756 -65 c 0
 734 -60 722 -58 633 -45 c 0
 575 -37 483 -44 444 -60 c 0
 412 -74 401 -69 377 -37 c 0
 364 -21 350 -6 345 -4 c 0
 340 -2 321 -11 301 -23 c 0xdb40
 266 -45 255 -50 237 -48 c 0
 221 -47 228 -34 254 -18 c 0
 289 4 310 27 307 36 c 0
 306 41 298 48 290 52 c 0
 282 56 268 66 259 74 c 2
 243 89 l 1
 262 128 l 2
 273 149 283 178 286 194 c 2
 290 222 l 1xdc40
 239 219 l 2
 210 218 187 218 187 220 c 0
 187 222 190 231 195 241 c 0
 202 255 207 258 234 258 c 0
 294 258 314 286 301 347 c 0
 298 363 300 375 307 386 c 0xda40
666 235 m 2
 667 332 l 1
 601 333 l 2
 526 334 530 337 534 275 c 0
 535 244 544 236 562 246 c 0
 569 249 592 252 612 252 c 0
 647 252 650 250 650 236 c 0
 650 211 630 199 591 199 c 0xe940
 552 200 540 195 545 181 c 0
 547 176 545 169 542 167 c 0
 532 161 541 135 552 139 c 0
 557 141 579 144 601 147 c 0
 633 150 643 149 652 139 c 0
 666 125 665 119 666 235 c 2
381 218 m 0
 376 236 330 235 330 217 c 0xcc40
 330 213 321 191 309 168 c 2
 288 126 l 1
 310 107 l 2
 322 97 336 88 341 88 c 0
 357 88 389 192 381 218 c 0
667 67 m 2
 668 98 666 122 664 122 c 0
 661 122 651 114 641 104 c 0
 627 91 621 88 614 93 c 0
 606 100 555 98 548 91 c 0
 546 90 545 69 544 47 c 2xc8c0
 541 6 l 1
 604 8 l 1
 667 10 l 1
 667 67 l 2
EndSplineSet
EndChar
StartChar: uni59E5
Encoding: 12600 23013 736
Width: 1000
VWidth: 0
Flags: W
HStem: 163 61<404.724 422.758> 166 51<185.667 270.991> 211 47<604.812 631.309 661.24 760.994> 319 48<465.143 556.453 608.267 657.132>
VStem: 284 41<224 403.158> 540 29<5.725 36> 557 34<370.117 453.754>
LayerCount: 2
Back
Fore
SplineSet
565 454 m 0x9a
 582 471 591 463 591 432 c 0
 591 415 593 395 597 385 c 0
 602 369 607 367 634 367 c 0
 662 367 664 366 661 352 c 0
 655 329 645 319 628 319 c 0
 616 319 611 314 608 298 c 0
 602 268 603 258 611 258 c 0
 621 258 686 359 686 374 c 0
 686 389 713 423 720 418 c 0
 727 413 700 346 672 300 c 0
 661 280 652 262 652 261 c 0
 652 260 673 260 698 261 c 0
 757 265 776 255 759 229 c 0
 749 213 744 212 685 211 c 0x3a
 616 210 605 204 586 168 c 0
 574 146 574 115 584 115 c 0
 588 115 608 120 627 125 c 0
 671 138 739 143 743 136 c 0
 745 133 744 122 740 110 c 0
 733 90 731 89 680 86 c 0
 624 83 585 75 581 68 c 0
 580 66 576 52 574 36 c 2
 569 8 l 1
 609 -5 l 2
 702 -38 730 -44 786 -43 c 0
 817 -42 843 -44 844 -47 c 0
 846 -50 845 -59 842 -66 c 0
 829 -100 728 -112 671 -87 c 0
 659 -81 636 -72 621 -68 c 0
 606 -63 580 -54 564 -47 c 2
 535 -34 l 1
 540 32 l 2
 543 71 541 95 538 91 c 0
 535 88 519 67 503 45 c 0
 487 24 463 -2 451 -13 c 0
 429 -32 430 -33 442 -49 c 0
 459 -71 458 -93 440 -105 c 0
 426 -115 424 -113 393 -86 c 0
 342 -40 333 -41 283 -89 c 0
 240 -130 233 -134 218 -124 c 0
 213 -121 225 -107 254 -80 c 0
 278 -58 298 -38 298 -35 c 0
 298 -30 281 -21 231 4 c 0
 230 5 232 13 237 21 c 0
 247 41 271 131 271 153 c 0
 271 172 259 175 203 168 c 0
 179 165 158 165 156 166 c 0
 150 173 171 204 185 208 c 0
 199 213 228 216 266 217 c 2
 284 217 l 1x5c
 284 301 l 2
 284 380 285 386 300 400 c 0
 309 408 318 413 320 410 c 0
 323 408 325 365 325 315 c 2
 325 224 l 1
 370 224 l 2
 402 224 418 227 423 234 c 0
 430 244 469 250 531 251 c 2
 564 251 l 1
 562 284 l 1
 560 316 l 1
 514 318 l 2
 480 319 466 323 463 330 c 0
 457 347 478 362 507 361 c 0
 553 359 557 363 557 407 c 0
 557 428 560 449 565 454 c 0x9a
577 202 m 0
 577 208 546 208 495 203 c 0
 449 198 436 193 432 176 c 0
 430 169 423 163 418 163 c 0x98
 411 163 406 153 403 131 c 0
 397 87 387 54 372 32 c 0
 354 8 355 4 386 -9 c 2
 414 -20 l 1
 455 25 l 2
 507 82 533 119 539 146 c 0
 542 158 551 175 560 183 c 0
 570 190 577 199 577 202 c 0
366 166 m 0x58
 352 182 319 179 312 161 c 0
 302 137 278 54 278 47 c 0
 278 41 320 20 332 20 c 0
 351 20 381 148 366 166 c 0x58
EndSplineSet
EndChar
StartChar: uni59F6
Encoding: 12328 23030 626
Width: 1000
VWidth: 0
Flags: W
HStem: 57 49<557.578 658> 92 59<758.125 825.145> 222 52<339 390 426.414 484.884>
VStem: 293 46<274.562 407.52> 656 44<-35 58>
LayerCount: 2
Back
Fore
SplineSet
534 430 m 0xb8
 550 448 558 444 584 399 c 0
 650 285 665 264 716 212 c 0
 754 174 777 154 792 151 c 0
 820 145 831 131 826 109 c 0
 823 96 817 92 802 92 c 0
 775 92 739 106 721 122 c 0
 685 154 547 159 500 130 c 0
 486 121 471 106 469 98 c 0
 466 89 458 75 449 65 c 0
 440 55 431 41 428 33 c 0
 425 20 428 15 442 10 c 0
 467 0 467 0 464 29 c 0
 460 58 475 92 490 92 c 0x78
 495 92 500 87 500 81 c 0
 500 73 504 71 516 74 c 0
 562 87 656 106 675 106 c 2
 698 106 l 1
 700 26 l 2
 702 -42 700 -56 689 -73 c 0
 677 -91 674 -92 644 -89 c 0
 627 -86 592 -89 565 -93 c 0
 502 -104 476 -104 476 -96 c 0
 475 -71 464 -52 452 -52 c 0
 444 -52 421 -47 401 -39 c 2
 364 -26 l 1
 331 -59 l 2
 313 -77 293 -93 286 -93 c 0
 280 -93 273 -96 271 -100 c 0
 266 -108 238 -110 231 -102 c 0
 224 -95 240 -80 263 -70 c 0
 290 -58 329 -26 329 -14 c 0
 329 -4 285 5 242 6 c 0
 213 6 212 20 240 55 c 0
 267 89 285 128 291 170 c 0
 296 212 288 215 225 195 c 0
 199 186 176 181 173 183 c 0
 171 186 175 195 181 205 c 0
 193 223 203 229 260 249 c 0
 287 259 291 263 293 284 c 0
 294 297 292 326 288 347 c 0
 280 381 280 389 290 404 c 0
 296 414 304 421 307 421 c 0
 317 421 330 375 335 322 c 2
 339 274 l 1
 404 274 l 2
 473 273 486 269 486 251 c 0
 485 230 469 215 448 217 c 0
 429 219 428 217 424 181 c 0
 421 160 418 136 416 126 c 0
 414 116 408 94 405 75 c 2
 399 41 l 1
 420 66 l 2
 432 80 447 101 453 114 c 0
 509 228 529 298 527 369 c 0
 526 403 528 422 534 430 c 0xb8
602 260 m 0
 566 325 563 325 548 270 c 0
 543 253 534 228 527 214 c 0
 513 186 517 178 535 188 c 0
 542 192 566 197 589 200 c 0
 612 202 630 206 630 207 c 0
 630 208 618 232 602 260 c 0
387 166 m 2
 390 222 l 1
 367 222 l 2
 340 222 339 221 332 189 c 0
 329 177 318 144 307 117 c 0
 296 91 288 68 288 65 c 0
 288 58 354 42 362 47 c 0
 372 53 382 104 387 166 c 2
656 12 m 1
 658 58 l 1
 622 57 l 2xb8
 580 56 566 53 536 39 c 0
 509 27 504 16 514 -21 c 2
 522 -50 l 1
 560 -47 l 2
 582 -45 612 -41 627 -39 c 2
 654 -35 l 1
 656 12 l 1
EndSplineSet
EndChar
StartChar: uni59FB
Encoding: 12409 23035 707
Width: 1000
VWidth: 0
Flags: W
HStem: -66 72<548.237 725.613> 211 54<245.211 311.903> 234 51<648.361 740.819> 364 41<543.447 577.106 668.075 753>
VStem: 301 53<299.131 421.191> 609 39<284.301 344.084> 747 42<144.01 235>
LayerCount: 2
Back
Fore
SplineSet
311 413 m 0xde
 338 437 345 421 354 331 c 0
 358 287 359 285 375 285 c 0xbe
 385 285 398 288 404 291 c 0
 420 299 462 284 465 270 c 0
 466 263 461 250 454 240 c 0
 446 230 439 217 439 211 c 0
 439 199 404 96 392 74 c 0
 378 48 384 40 429 19 c 0
 479 -4 484 -10 474 -37 c 0
 464 -62 445 -61 399 -32 c 0
 379 -19 357 -8 351 -8 c 0
 346 -8 329 -21 314 -36 c 0
 283 -68 243 -89 218 -89 c 0
 191 -89 198 -78 237 -60 c 0
 273 -44 317 -6 317 10 c 0
 317 15 306 22 293 26 c 0
 280 30 268 37 266 40 c 0
 264 43 270 63 280 85 c 0
 301 131 317 201 312 215 c 0
 310 221 304 222 297 219 c 0
 291 217 272 213 254 211 c 0
 224 208 220 209 223 221 c 0
 225 234 250 249 295 265 c 0
 314 272 317 276 317 298 c 0
 317 322 311 354 301 385 c 0
 298 395 300 403 311 413 c 0xde
403 227 m 0
 398 238 373 241 360 232 c 0
 355 229 345 201 337 169 c 0
 328 137 319 108 316 105 c 0
 309 97 309 76 316 72 c 0
 319 71 329 67 339 64 c 0
 357 60 359 63 375 96 c 0
 393 137 408 211 403 227 c 0
499 399 m 0
 507 412 513 414 527 411 c 0
 558 403 626 400 678 405 c 0
 706 408 744 409 763 408 c 2
 798 406 l 1
 790 385 l 2
 783 362 782 137 789 39 c 0
 792 -5 791 -15 779 -34 c 0
 769 -50 763 -55 754 -52 c 0
 734 -43 562 -44 550 -53 c 0
 535 -63 496 -71 487 -66 c 0
 482 -63 483 -57 488 -47 c 0
 498 -30 503 320 495 360 c 0
 492 376 492 388 499 399 c 0
748 326 m 2
 753 365 l 1
 700 364 l 2
 595 363 552 358 543 351 c 0
 538 347 535 328 535 304 c 2
 535 264 l 1
 565 267 l 2
 605 270 609 274 609 304 c 0
 609 338 626 356 641 336 c 0
 646 328 650 315 648 304 c 0
 646 293 646 285 649 285 c 0
 679 282 738 282 741 285 c 0
 742 286 746 305 748 326 c 2
747 212 m 2
 744 235 l 1
 694 234 l 2
 657 234 643 231 640 224 c 0
 638 219 637 214 638 214 c 0
 639 213 658 197 680 177 c 0
 728 134 743 133 747 166 c 0
 748 179 748 200 747 212 c 2
603 217 m 0
 603 224 599 230 595 229 c 0
 590 229 576 226 564 225 c 0
 544 222 542 220 541 201 c 0
 540 189 539 172 538 162 c 0
 537 152 538 129 540 109 c 2
 545 73 l 1
 574 138 l 2
 590 174 603 210 603 217 c 0
643 132 m 0
 630 145 617 155 614 155 c 0
 612 155 598 130 582 98 c 0
 566 66 551 40 548 40 c 0
 540 40 540 12 548 -1 c 0
 553 -9 561 -9 595 -2 c 0
 617 3 659 6 690 6 c 2
 746 6 l 1
 744 38 l 2
 742 69 742 70 705 89 c 0
 685 99 657 119 643 132 c 0
EndSplineSet
EndChar
StartChar: uni5A01
Encoding: 12370 23041 668
Width: 1000
VWidth: 0
Flags: W
HStem: -117 20<272.393 295.026> 69 53<370.113 404.922> 321 48<357.568 468.83 521.329 595.654>
VStem: 322 48<122.227 163.996> 596 48<369.06 459.204>
LayerCount: 2
Back
Fore
SplineSet
497 468 m 0
 512 491 531 491 525 470 c 0
 515 434 512 397 520 383 c 0
 527 371 535 369 562 369 c 2
 596 369 l 1
 596 397 l 2
 596 426 614 465 628 465 c 0
 638 465 644 442 644 408 c 0
 644 387 650 378 666 362 c 0
 682 346 684 339 679 329 c 0
 665 303 657 301 610 311 c 0
 585 316 556 320 544 321 c 0
 523 321 523 320 520 286 c 0
 519 266 521 246 525 240 c 0
 529 234 535 218 538 204 c 0
 541 190 549 168 557 156 c 0
 566 143 575 127 578 120 c 0
 583 108 584 108 602 124 c 0
 629 149 652 161 690 172 c 0
 731 184 746 179 732 157 c 0
 723 143 706 135 694 138 c 0
 683 141 618 102 610 88 c 0
 588 47 724 -28 825 -31 c 0
 869 -32 873 -41 843 -64 c 0
 814 -85 765 -87 704 -67 c 0
 651 -50 625 -34 589 2 c 0
 579 14 568 21 567 19 c 0
 541 -10 514 -61 514 -80 c 0
 514 -102 494 -131 478 -131 c 0
 462 -131 480 -70 514 -10 c 2
 548 53 l 1
 531 87 l 2
 521 105 514 124 514 128 c 0
 514 132 507 148 499 163 c 0
 487 186 483 189 479 181 c 0
 474 173 460 170 422 170 c 2
 370 170 l 1
 370 146 l 2
 370 124 372 122 391 122 c 0
 403 122 417 128 425 138 c 0
 439 152 440 153 446 141 c 0
 450 134 461 125 470 122 c 0
 492 114 498 99 487 78 c 0
 480 65 475 63 459 66 c 0
 441 69 438 67 439 51 c 0
 440 49 434 38 427 27 c 2
 416 6 l 1
 441 -15 l 2
 470 -38 472 -54 453 -77 c 2
 440 -93 l 1
 420 -74 l 2
 409 -64 395 -56 388 -56 c 0
 381 -56 360 -69 342 -86 c 0
 323 -103 303 -117 298 -117 c 0
 293 -117 280 -123 270 -128 c 0
 257 -134 250 -135 248 -130 c 0
 245 -121 267 -97 278 -97 c 0
 283 -97 301 -84 319 -68 c 2
 351 -39 l 1
 332 -23 l 2
 321 -14 305 -3 296 -0 c 2
 280 6 l 1
 295 31 l 2
 303 44 309 56 307 58 c 0
 299 66 270 45 262 25 c 0
 257 13 250 -3 247 -8 c 0
 244 -13 232 -37 220 -60 c 0
 197 -108 161 -152 147 -152 c 0
 133 -152 136 -135 152 -120 c 0
 173 -102 206 -33 227 30 c 0
 250 103 258 214 244 262 c 0
 228 315 240 329 319 341 c 0
 396 353 463 367 471 371 c 0
 475 374 480 392 482 413 c 0
 484 434 491 458 497 468 c 0
469 315 m 0
 466 321 423 323 418 318 c 0
 417 317 401 314 384 312 c 0
 367 311 341 306 325 301 c 2
 297 292 l 1
 298 257 l 2
 299 238 300 218 301 214 c 0
 302 208 310 208 328 212 c 0
 342 215 382 220 418 222 c 0
 476 225 483 226 481 237 c 0
 480 244 479 263 477 279 c 0
 475 295 472 312 469 315 c 0
322 147 m 0
 322 159 319 164 309 164 c 0
 299 164 293 156 288 135 c 0
 284 119 282 106 284 104 c 0
 285 102 297 102 309 105 c 0
 324 108 330 112 327 120 c 0
 325 125 322 138 322 147 c 0
405 57 m 0
 405 69 399 72 374 69 c 0
 353 66 336 56 336 46 c 0
 336 43 348 35 363 27 c 2
 389 14 l 1
 397 31 l 2
 401 41 405 52 405 57 c 0
EndSplineSet
EndChar
StartChar: uni5AC1
Encoding: 12871 23233 845
Width: 1000
VWidth: 0
Flags: W
HStem: 226 51<190.697 281> 229 56<340.401 374.947> 251 42<575.521 677.997> 396 53<491.919 623.809>
VStem: 296 43<287 401.579>
LayerCount: 2
Back
Fore
SplineSet
498 439 m 0x18
 505 450 513 451 571 449 c 0
 640 447 642 445 622 415 c 0
 612 399 570 390 541 396 c 0
 531 398 517 401 507 403 c 0
 489 407 485 419 498 439 c 0x18
296 402 m 0
 303 408 311 412 316 411 c 0
 328 407 339 365 339 326 c 0
 340 291 341 290 363 285 c 0x58
 381 280 410 285 427 295 c 0
 428 296 427 307 422 321 c 0
 415 341 415 349 422 362 c 0
 432 382 456 384 461 365 c 0
 465 350 470 348 480 358 c 0
 494 372 727 381 740 369 c 0
 744 364 744 338 741 286 c 0
 739 253 712 213 702 228 c 0
 699 233 698 252 701 272 c 0
 706 301 706 308 697 315 c 0
 674 332 546 334 486 318 c 0
 466 313 458 299 465 279 c 0
 469 269 471 269 482 279 c 0
 489 285 512 291 541 293 c 0
 697 306 696 306 678 271 c 0
 668 253 664 251 629 251 c 0x38
 605 251 586 247 575 240 c 0
 554 226 553 215 573 215 c 0
 589 215 612 197 612 185 c 0
 612 175 652 134 662 134 c 0
 666 134 684 150 703 168 c 0
 721 187 739 202 742 202 c 0
 755 202 747 187 714 151 c 0
 681 114 680 112 690 94 c 0
 706 64 756 19 787 7 c 0
 820 -6 825 -21 802 -42 c 0
 788 -55 788 -55 753 -42 c 0
 713 -27 694 -11 665 30 c 0
 643 63 635 62 630 24 c 0
 629 10 622 -11 617 -24 c 0
 612 -36 604 -56 599 -68 c 0
 590 -92 560 -122 553 -115 c 0
 550 -112 555 -98 563 -82 c 0
 586 -38 591 -21 595 31 c 0
 600 89 591 100 565 66 c 0
 543 37 413 -91 409 -88 c 0
 406 -85 419 -60 431 -48 c 0
 513 36 580 128 568 139 c 0
 561 146 497 69 497 54 c 0
 497 49 493 45 490 45 c 0
 478 45 443 3 440 -15 c 0
 438 -25 429 -38 419 -43 c 0
 403 -51 400 -51 385 -37 c 0
 364 -17 347 -22 323 -57 c 0
 305 -84 279 -104 265 -104 c 0
 252 -104 259 -90 279 -72 c 0
 291 -62 299 -51 299 -48 c 0
 299 -44 304 -35 309 -30 c 0
 332 -3 329 10 295 35 c 0
 277 49 256 59 250 59 c 0
 229 59 231 71 258 128 c 0
 290 195 296 233 275 231 c 0
 268 230 244 228 223 226 c 0
 188 222 184 222 184 234 c 0
 184 258 197 267 246 277 c 2x98
 296 287 l 1
 295 318 l 2
 295 335 293 357 290 369 c 0
 286 385 287 393 296 402 c 0
524 231 m 0
 530 241 527 243 503 243 c 0
 481 243 471 238 449 218 c 0
 415 188 410 180 405 137 c 2
 401 103 l 1
 459 161 l 2
 491 193 521 224 524 231 c 0
375 221 m 0
 374 226 364 229 353 229 c 0
 335 229 331 225 308 177 c 0
 294 148 283 121 282 118 c 0
 282 115 298 104 318 93 c 2
 353 73 l 1
 361 100 l 2
 370 133 378 211 375 221 c 0
537 169 m 0
 523 178 514 176 503 164 c 0
 459 120 412 79 404 79 c 0
 399 79 392 72 390 62 c 0
 387 48 390 40 404 26 c 0
 416 14 424 10 427 15 c 0
 441 37 507 113 511 113 c 0
 514 113 522 124 531 138 c 0
 543 158 544 164 537 169 c 0
EndSplineSet
EndChar
StartChar: uni5B87
Encoding: 12583 23431 719
Width: 1000
VWidth: 0
Flags: W
HStem: 234 54<422.44 481 539.002 588.281> 439 49<429.473 542.798>
LayerCount: 2
Back
Fore
SplineSet
429 475 m 0
 439 484 455 487 510 488 c 0
 550 489 580 487 583 484 c 0
 593 467 558 416 543 427 c 0
 539 430 515 433 488 434 c 0
 462 434 435 437 429 439 c 0
 413 444 413 459 429 475 c 0
553 392 m 0
 560 400 743 390 751 382 c 0
 756 377 760 354 759 323 c 0
 758 283 755 268 743 252 c 0
 725 227 705 223 712 247 c 0
 720 274 723 307 716 319 c 0
 705 339 566 350 505 336 c 0
 485 331 440 325 407 323 c 0
 373 321 343 317 340 315 c 0
 330 308 335 332 347 347 c 0
 360 363 371 366 491 381 c 0
 522 385 550 390 553 392 c 0
279 366 m 0
 301 401 316 356 300 300 c 0
 288 259 254 207 244 217 c 0
 239 222 240 231 249 249 c 0
 256 263 263 293 266 313 c 0
 268 333 274 357 279 366 c 0
570 288 m 0
 586 289 600 285 600 279 c 0
 600 277 594 265 587 253 c 0
 575 234 570 231 556 234 c 0
 542 237 539 236 539 224 c 0
 539 217 543 199 548 187 c 0
 556 167 561 164 589 161 c 0
 650 152 717 133 722 123 c 0
 729 109 720 82 706 77 c 0
 700 74 682 78 666 83 c 0
 650 89 620 96 600 98 c 2
 562 103 l 1
 561 54 l 2
 560 27 557 0 553 -7 c 0
 550 -14 546 -26 546 -34 c 0
 546 -42 540 -57 533 -67 c 0
 526 -77 519 -92 516 -100 c 0
 510 -119 467 -159 458 -154 c 0
 446 -146 450 -134 474 -106 c 0
 500 -76 510 -42 517 42 c 0
 522 114 518 118 447 113 c 0
 417 111 382 105 369 102 c 0
 320 88 311 86 304 81 c 0
 289 70 253 63 250 68 c 0
 233 95 317 137 419 154 c 0
 457 160 490 168 493 170 c 0
 496 173 495 187 490 203 c 2
 481 232 l 1
 444 231 l 2
 424 230 404 230 401 230 c 0
 398 231 401 240 407 251 c 0
 419 271 422 272 570 288 c 0
EndSplineSet
EndChar
StartChar: uni5B89
Encoding: 12354 23433 652
Width: 1000
VWidth: 0
Flags: W
HStem: -118 42<316.168 397.025> 8 71<495.277 530> 36 50<397.929 477.854> 307 37<332.006 447.455> 394 57<430.467 585.328>
VStem: 263 40<250.376 371.781>
LayerCount: 2
Back
Fore
SplineSet
430 445 m 0x9c
 440 455 447 455 469 451 c 0
 485 448 517 447 543 448 c 0
 587 449 589 448 589 433 c 0
 589 400 561 390 484 394 c 0
 455 396 419 412 419 424 c 0
 419 428 424 438 430 445 c 0x9c
279 370 m 0
 292 379 303 360 303 331 c 0
 303 298 281 235 258 200 c 0
 236 167 234 187 254 243 c 0
 268 284 270 293 263 312 c 0
 255 334 261 358 279 370 c 0
568 373 m 0
 569 374 611 375 661 375 c 2
 751 375 l 1
 749 340 l 2
 746 287 737 252 723 227 c 0
 716 215 711 203 711 202 c 0
 711 201 733 198 760 197 c 0
 820 192 835 181 819 152 c 0
 807 130 814 131 632 155 c 2
 596 160 l 1
 579 120 l 2
 569 98 562 76 562 70 c 0
 562 63 576 52 598 40 c 0
 648 15 672 -13 667 -35 c 0
 658 -69 646 -71 613 -44 c 0
 597 -30 582 -19 579 -19 c 0
 576 -19 567 -13 557 -6 c 0
 547 1 534 8 528 8 c 0xdc
 521 8 496 -11 472 -34 c 0
 406 -99 385 -113 345 -118 c 0
 323 -121 310 -120 310 -116 c 0
 310 -97 321 -87 352 -76 c 0
 413 -56 486 2 478 24 c 0
 475 30 465 36 455 36 c 0xbc
 445 37 433 37 429 38 c 0
 426 39 402 41 377 41 c 0
 351 42 330 45 330 49 c 0
 330 53 344 70 361 88 c 0
 378 106 392 125 392 131 c 0
 392 141 369 153 362 146 c 0
 360 145 335 142 306 141 c 0
 271 140 239 134 215 124 c 0
 175 108 170 109 177 130 c 0
 184 155 244 176 337 188 c 0
 384 194 424 201 427 204 c 0
 430 207 434 227 436 249 c 0
 439 271 444 294 447 298 c 0
 457 310 448 313 417 307 c 0
 368 297 323 299 323 311 c 0
 323 325 349 340 378 344 c 0
 521 363 566 370 568 373 c 0
712 319 m 0
 706 328 521 328 494 319 c 0
 471 311 471 310 469 262 c 0
 466 204 468 202 528 209 c 0
 559 212 569 217 576 230 c 0
 587 251 598 250 608 229 c 0
 612 219 619 212 624 212 c 0
 629 212 649 210 667 208 c 0
 697 205 701 206 702 217 c 0
 703 224 706 248 709 271 c 0
 712 295 714 316 712 319 c 0
556 141 m 0
 558 154 553 154 496 156 c 2
 434 158 l 1
 417 136 l 2
 389 99 389 91 414 86 c 0xbc
 426 84 456 82 483 81 c 2
 530 79 l 1
 542 103 l 2
 549 117 555 134 556 141 c 0
EndSplineSet
EndChar
StartChar: uni5BB6
Encoding: 12872 23478 846
Width: 1000
VWidth: 0
Flags: W
HStem: -69 49<704.886 776.866> 49 71<529.019 570.487> 270 37<456.581 562.999> 422 50<355.228 536.798>
VStem: 220 36<222.161 387.535> 447 7<44 85>
LayerCount: 2
Back
Fore
SplineSet
352 478 m 0
 363 497 361 497 411 484 c 0
 433 479 469 473 492 472 c 0
 529 471 534 470 537 456 c 0
 541 434 520 410 502 416 c 0
 494 418 470 421 448 422 c 0
 401 424 352 439 347 452 c 0
 345 457 347 468 352 478 c 0
562 408 m 0
 654 417 681 418 688 411 c 0
 694 405 658 283 643 261 c 0
 628 239 605 235 613 255 c 0
 629 294 644 348 641 355 c 0
 636 369 500 361 388 341 c 0
 353 335 316 331 305 332 c 0
 285 334 284 335 292 351 c 0
 296 360 306 369 311 372 c 0
 329 382 418 394 562 408 c 0
230 388 m 0
 239 394 247 396 250 393 c 0
 260 382 270 340 266 324 c 0
 264 314 259 293 256 275 c 0
 249 235 239 215 225 215 c 0
 215 215 215 219 220 241 c 0
 227 270 226 324 219 355 c 0
 215 373 217 378 230 388 c 0
447 307 m 0
 535 320 569 320 569 306 c 0
 569 286 549 270 522 270 c 0
 489 270 456 258 451 244 c 0
 448 237 457 224 477 206 c 0
 494 190 508 174 508 170 c 0
 508 158 542 120 552 120 c 0
 557 120 584 143 613 171 c 0
 660 217 685 233 685 217 c 0
 685 214 661 187 630 158 c 2
 575 104 l 1
 601 78 l 2
 640 39 723 -15 754 -20 c 0
 788 -25 790 -31 772 -54 c 0
 759 -70 754 -72 725 -69 c 0
 689 -66 653 -44 588 12 c 0
 566 32 543 49 539 49 c 0
 535 49 529 32 526 12 c 0
 513 -81 467 -159 425 -159 c 0
 399 -159 402 -148 433 -119 c 0
 451 -103 465 -81 473 -57 c 0
 487 -21 493 52 484 66 c 0
 480 73 454 55 454 44 c 0
 454 25 309 -114 268 -135 c 0
 229 -155 229 -155 229 -142 c 0
 229 -130 260 -100 287 -88 c 0
 326 -69 447 61 447 85 c 0
 447 90 452 100 458 107 c 0
 468 119 466 147 454 147 c 0
 451 147 434 127 414 102 c 0
 370 45 318 -6 272 -39 c 0
 239 -62 222 -70 222 -60 c 0
 222 -48 240 -28 266 -10 c 0
 282 2 319 35 348 64 c 0
 389 105 400 122 403 142 c 0
 406 156 411 170 414 172 c 0
 417 174 417 180 413 185 c 0
 407 192 394 182 349 136 c 0
 297 84 270 67 270 87 c 0
 270 91 295 117 324 145 c 0
 383 199 417 241 410 247 c 0
 408 250 388 251 365 250 c 2
 324 249 l 1
 334 269 l 2
 346 291 353 293 447 307 c 0
EndSplineSet
EndChar
StartChar: uni5C09
Encoding: 12371 23561 669
Width: 1000
VWidth: 0
Flags: W
HStem: 19 41<430.5 467.5> 97 51<357.706 381.732 429 524.688> 175 140<320 378> 242 64<558.115 676.427> 387 44<314.469 447.339> 397 34<319.782 468.885>
VStem: 280 44<211.036 258.708 315 339> 392 39<-104.355 18.9847>
LayerCount: 2
Back
Fore
SplineSet
419 437 m 0xeb
 462 447 505 449 514 444 c 0
 517 442 517 431 513 418 c 0
 497 368 491 321 499 316 c 0
 502 314 504 304 502 294 c 0
 499 274 474 262 452 270 c 0
 428 279 343 271 333 259 c 0
 328 253 324 232 324 214 c 0
 325 181 324 179 333 195 c 0
 338 205 348 214 355 217 c 0
 375 225 472 223 477 216 c 0
 480 212 477 202 471 193 c 0
 460 176 454 175 346 175 c 0
 324 175 317 172 313 161 c 0
 306 138 318 134 379 142 c 0
 410 145 457 148 482 148 c 0
 522 148 528 147 528 136 c 0
 528 109 511 98 469 97 c 2
 429 97 l 1
 427 60 l 1
 425 23 l 1
 443 42 l 2
 453 52 462 60 464 60 c 0
 471 60 528 0 528 -7 c 0
 528 -20 507 -49 497 -49 c 0
 492 -49 481 -39 472 -27 c 0
 458 -6 434 19 431 19 c 0
 430 19 430 -2 431 -28 c 0
 433 -69 431 -78 418 -96 c 0
 410 -108 401 -115 398 -113 c 0
 395 -112 393 -87 392 -60 c 0
 391 -33 389 11 386 39 c 0
 382 84 381 89 367 91 c 0
 354 93 352 92 357 78 c 0
 365 56 358 23 338 -14 c 0
 307 -71 294 -89 278 -96 c 0
 258 -105 257 -94 276 -78 c 0
 283 -71 290 -63 290 -60 c 0
 290 -57 296 -47 303 -37 c 0
 322 -10 332 32 322 44 c 0
 317 51 318 59 330 74 c 0
 346 95 344 97 319 90 c 0
 309 87 303 80 303 73 c 0
 303 66 301 53 297 46 c 0
 294 39 286 25 282 18 c 0
 278 10 274 -1 273 -8 c 0
 270 -27 228 -90 214 -97 c 0
 197 -106 197 -105 226 -51 c 0
 261 18 275 76 280 186 c 0
 283 232 281 282 276 316 c 0
 267 377 272 404 295 412 c 0
 302 415 309 420 312 425 c 0
 316 432 328 433 350 431 c 0
 368 430 399 432 419 437 c 0xeb
470 381 m 0
 474 396 472 397 448 397 c 0xe7
 434 397 414 395 402 393 c 0
 391 390 367 388 350 387 c 0
 315 386 310 380 317 339 c 2
 320 315 l 1
 358 316 l 2
 378 317 410 319 427 322 c 0
 455 326 459 330 462 346 c 0
 465 356 468 371 470 381 c 0
676 435 m 0
 697 459 701 451 714 367 c 2
 722 315 l 1xe3
 755 310 l 2
 796 305 803 299 794 276 c 0
 786 256 758 237 754 250 c 0
 749 264 731 258 724 240 c 0
 721 230 717 170 716 108 c 0
 714 7 713 -9 699 -40 c 0
 688 -64 674 -80 656 -92 c 0
 611 -122 600 -111 639 -74 c 0
 652 -62 666 -42 670 -28 c 0
 679 0 684 246 676 254 c 0
 666 264 603 260 533 242 c 0
 487 230 481 238 514 265 c 0
 533 281 630 308 663 306 c 0xd3
 680 305 680 304 671 372 c 0
 665 416 666 424 676 435 c 0
573 150 m 0
 587 166 589 165 626 144 c 0
 663 124 666 118 661 97 c 0
 655 73 636 71 597 91 c 0
 560 110 552 127 573 150 c 0
EndSplineSet
EndChar
StartChar: uni5C4B
Encoding: 12848 23627 822
Width: 1000
VWidth: 0
Flags: W
HStem: -111 51<556.396 698.794> 12 53<423.763 502.894 551 629.89> 226 48<620.035 652.197> 425 46<364.56 621.469> 428 53<371.562 622>
VStem: 506 41<-49.5 -19 65.2072 102.817>
LayerCount: 2
Back
Fore
SplineSet
483 476 m 0xf4
 502 479 550 481 591 481 c 2
 666 481 l 1
 664 444 l 2
 661 399 637 345 610 320 c 0
 592 303 589 301 565 308 c 0
 551 312 538 314 536 312 c 0
 534 311 526 311 517 314 c 0
 507 318 480 316 441 308 c 2
 381 296 l 1
 378 259 l 1
 376 222 l 1
 392 237 l 2
 408 252 445 262 540 274 c 0
 628 284 663 283 663 269 c 0
 663 255 637 226 624 226 c 0
 608 226 615 208 646 162 c 0
 679 114 683 97 666 80 c 0
 652 66 651 66 627 86 c 0
 612 98 599 103 577 103 c 0
 548 103 547 102 547 84 c 0
 547 66 549 65 573 65 c 0
 627 66 636 63 636 50 c 0
 636 30 614 17 581 14 c 2
 551 12 l 1
 552 -16 l 2
 554 -50 568 -60 608 -60 c 0
 652 -60 725 -72 730 -79 c 0
 732 -82 742 -87 753 -90 c 0
 775 -95 778 -120 758 -138 c 0
 744 -150 743 -150 708 -136 c 0
 664 -119 620 -113 519 -111 c 0
 448 -110 391 -114 335 -124 c 0
 320 -127 316 -126 316 -116 c 0
 317 -87 346 -70 411 -63 c 0
 428 -61 458 -57 476 -54 c 2
 510 -49 l 1
 508 -19 l 2
 507 -3 504 12 503 14 c 0
 501 15 482 14 460 10 c 0
 410 0 396 9 418 37 c 0
 429 51 440 56 469 59 c 0
 508 64 507 63 506 102 c 0
 506 105 482 107 453 107 c 0
 405 107 401 108 403 120 c 0
 404 127 420 148 436 167 c 0
 452 186 466 205 466 208 c 0
 466 213 395 209 384 202 c 0
 381 200 377 178 374 153 c 0
 364 56 346 -3 315 -44 c 0
 276 -94 249 -121 237 -121 c 0
 223 -121 226 -113 247 -93 c 0
 288 -54 307 -7 322 83 c 0
 334 154 335 180 330 241 c 0
 325 308 318 330 294 363 c 0
 288 372 289 378 298 392 c 0
 305 402 314 410 319 410 c 0
 329 410 364 369 364 357 c 0
 364 341 380 341 454 356 c 0
 518 368 535 370 559 363 c 0
 605 351 613 352 618 376 c 0
 620 388 622 405 622 413 c 2
 622 428 l 1xec
 490 425 l 2
 408 423 357 425 354 429 c 0
 352 432 357 443 364 453 c 0
 376 468 384 470 413 471 c 0
 433 471 465 474 483 476 c 0xf4
564 192 m 0
 542 227 524 227 489 192 c 0
 475 177 465 164 467 161 c 0
 473 156 581 154 581 160 c 0
 581 163 574 177 564 192 c 0
EndSplineSet
EndChar
StartChar: uni5CA1
Encoding: 12844 23713 818
Width: 1000
VWidth: 0
Flags: W
HStem: 228 48<523.678 532 583 677.618> 396 51<500 532 582.31 683.552>
VStem: 293 50<-2.37109 177.081 438.457 445.33> 298 56<242.104 365.614> 420 47<269.832 395.856> 471 44<50.4096 215.84> 532 51<276 396> 598 44<43 79> 692 49<-113.728 218.561 276.625 396.854>
LayerCount: 2
Back
Fore
SplineSet
306 437 m 0xef80
 320 452 325 453 333 447 c 0
 338 442 343 433 343 427 c 0xef80
 344 418 346 419 356 431 c 0
 368 445 374 446 529 447 c 0
 617 447 703 448 719 451 c 0
 751 456 754 451 740 415 c 0
 732 394 730 275 738 201 c 0
 741 165 743 33 741 -88 c 0
 741 -110 717 -127 704 -114 c 0
 699 -109 695 -53 692 51 c 0
 689 178 686 210 678 219 c 0
 670 227 653 229 610 228 c 0
 578 227 547 227 541 227 c 0
 533 227 527 218 522 201 c 0
 515 175 509 60 515 55 c 0
 516 53 536 50 558 47 c 2
 598 43 l 1
 593 79 l 2
 591 99 588 122 587 132 c 0
 583 153 605 184 619 178 c 0
 631 174 639 132 642 57 c 0
 644 -3 636 -29 610 -42 c 0
 592 -52 591 -52 589 -31 c 0
 587 -11 584 -8 559 -3 c 0
 513 7 454 -1 414 -23 c 0
 394 -33 376 -40 373 -37 c 0
 371 -34 372 -12 376 12 c 0
 386 67 386 107 376 117 c 0
 370 123 370 129 378 142 c 0
 390 166 403 168 420 151 c 0
 433 138 433 132 430 84 c 0
 427 28 430 20 455 38 c 0
 463 44 467 64 471 129 c 0
 474 183 473 213 468 216 c 0
 465 219 444 217 422 214 c 0
 347 201 352 206 346 155 c 0
 343 129 341 100 340 88 c 0
 338 55 312 -47 300 -71 c 0
 288 -94 263 -115 253 -110 c 0
 250 -108 253 -95 259 -81 c 0
 279 -34 290 33 298 146 c 0xdf80
 306 255 303 384 293 408 c 0
 290 416 293 425 306 437 c 0xef80
684 397 m 0
 675 402 630 404 607 401 c 0
 586 397 581 388 582 358 c 0
 582 343 583 318 583 303 c 2
 583 276 l 1
 630 276 l 1
 678 276 l 1
 683 316 l 2
 685 337 688 363 689 373 c 0
 690 383 689 394 684 397 c 0
413 396 m 0
 399 401 358 400 354 394 c 0xdf80
 349 386 353 242 358 242 c 0
 361 242 365 246 367 249 c 0
 369 253 387 255 405 255 c 0
 435 255 456 265 439 271 c 0
 430 274 417 348 420 373 c 0
 422 385 419 393 413 396 c 0
532 334 m 1
 532 396 l 1
 500 398 l 1
 467 400 l 1
 467 374 l 2
 467 360 470 336 474 321 c 0
 481 296 481 293 467 282 c 0
 446 265 452 261 495 267 c 2
 532 273 l 1
 532 334 l 1
EndSplineSet
EndChar
StartChar: uni5EFB
Encoding: 12918 24315 892
Width: 1000
VWidth: 0
Flags: W
HStem: -105 55<607.603 814.518> 56 50<431.082 726.772> 290 46<581.194 642.232> 384 53<465.375 750.772>
VStem: 421 44<116.135 374> 537 44<196 289.195> 643 43<193.011 290> 728 47<106.827 340.804>
LayerCount: 2
Back
Fore
SplineSet
622 437 m 0
 625 440 685 437 754 429 c 2
 794 424 l 1
 789 389 l 2
 781 334 779 320 775 199 c 0
 771 68 766 52 729 51 c 0
 682 50 601 52 515 56 c 0
 448 59 425 58 425 52 c 0
 425 48 430 42 437 40 c 0
 443 37 456 30 465 23 c 0
 474 16 488 11 496 11 c 0
 504 11 516 6 523 1 c 0
 537 -9 611 -31 663 -43 c 0
 680 -47 725 -50 764 -50 c 0
 842 -50 850 -57 811 -87 c 0
 791 -103 781 -105 730 -105 c 0
 657 -104 578 -91 540 -71 c 0
 524 -63 495 -50 476 -43 c 0
 458 -37 416 -18 385 0 c 0
 354 17 325 31 323 31 c 0
 320 31 312 20 304 6 c 0
 269 -58 166 -119 166 -78 c 0
 166 -62 176 -54 209 -43 c 0
 235 -35 278 4 294 36 c 0
 303 52 302 55 280 78 c 0
 226 134 207 188 231 208 c 0
 240 215 243 215 251 204 c 0
 256 197 262 187 262 184 c 0
 262 174 328 109 333 114 c 0
 335 116 337 126 338 137 c 0
 339 152 335 160 316 172 c 0
 262 207 258 211 268 231 c 0
 273 241 282 250 289 252 c 0
 305 257 333 316 323 326 c 0
 319 330 297 340 274 347 c 0
 224 364 213 376 229 400 c 2
 240 417 l 1
 289 401 l 2
 316 393 345 385 353 385 c 0
 360 385 372 382 377 378 c 0
 387 372 381 357 357 317 c 0
 343 295 323 249 323 240 c 0
 323 235 336 223 353 215 c 0
 387 199 388 197 374 142 c 0
 360 88 361 80 386 65 c 0
 398 58 409 52 411 52 c 0
 413 52 420 62 425 74 c 0
 440 107 458 109 641 106 c 0
 687 105 727 107 728 108 c 0
 729 109 731 151 734 201 c 0
 736 251 742 305 745 320 c 0
 758 376 758 376 685 384 c 0
 621 391 548 389 489 379 c 2
 462 374 l 1
 465 259 l 2
 467 148 466 143 452 125 c 0
 444 115 433 107 430 108 c 0
 425 110 422 154 421 225 c 0
 420 289 417 348 415 356 c 0
 407 390 445 427 486 425 c 0
 510 424 618 433 622 437 c 0
549 324 m 0
 560 337 568 337 624 336 c 0
 686 334 687 334 686 317 c 0
 679 175 669 142 635 145 c 0
 626 146 600 147 578 148 c 2
 537 150 l 1
 537 230 l 2
 537 297 539 312 549 324 c 0
643 243 m 2
 643 290 l 1
 612 290 l 1
 581 290 l 1
 581 243 l 1
 581 196 l 1
 604 193 l 2
 640 189 643 192 643 243 c 2
EndSplineSet
EndChar
StartChar: uni5F15
Encoding: 12410 24341 708
Width: 1000
VWidth: 0
Flags: W
HStem: -122 54<361.202 405.966> 145 43<350.119 477.462> 147 149<323 394> 394 32<312.285 462.469>
VStem: 482 42<19.8868 138.221 306.054 383> 642 42<-23.5814 389.301>
LayerCount: 2
Back
Fore
SplineSet
630 442 m 0x9c
 635 449 644 456 649 456 c 0
 673 456 674 457 684 181 c 0
 685 136 690 91 694 79 c 0
 705 45 707 -35 697 -55 c 0
 688 -73 669 -85 664 -76 c 0
 663 -73 659 -51 657 -27 c 0
 654 -3 651 28 650 41 c 0
 648 54 645 119 642 184 c 0
 635 379 634 391 627 409 c 0
 622 423 623 431 630 442 c 0x9c
323 426 m 0
 328 430 352 432 378 431 c 0
 404 430 448 430 475 430 c 2
 524 429 l 1
 524 377 l 2
 524 324 513 290 491 270 c 0
 484 263 457 258 415 255 c 0
 380 252 348 249 346 248 c 0
 341 245 345 197 350 192 c 0
 352 190 388 188 429 188 c 0
 516 187 519 186 526 128 c 0
 529 97 527 82 509 34 c 0
 497 3 482 -30 475 -38 c 0
 468 -45 463 -54 463 -58 c 0
 463 -66 378 -122 365 -122 c 0
 363 -122 360 -117 358 -111 c 0
 352 -95 372 -68 390 -68 c 0
 438 -68 482 5 483 83 c 0
 483 142 479 143 384 145 c 2xdc
 303 147 l 1
 299 194 l 2
 296 234 297 246 309 269 c 2
 323 296 l 1xbc
 394 300 l 2
 433 303 470 305 475 306 c 0
 481 307 483 318 482 345 c 2
 480 383 l 1
 446 386 l 2
 411 389 362 393 326 394 c 0
 310 395 308 397 311 407 c 0
 313 413 318 423 323 426 c 0
EndSplineSet
EndChar
StartChar: uni5F71
Encoding: 12614 24433 750
Width: 1000
VWidth: 0
Flags: W
HStem: 13 42<355.095 395.996> 101 42<355.891 461.346> 139 38<243.4 314.546> 162 44<408 551.867> 267 39<326.109 367.769> 440 43<319.922 484.647>
VStem: 319 34<-48.8108 -8.23801> 490 36<321 433.842> 678 37<391.328 481.124>
LayerCount: 2
Back
Fore
SplineSet
360 477 m 0xaf80
 377 480 420 482 456 483 c 2
 521 483 l 1
 526 404 l 2
 531 337 530 323 520 308 c 0
 514 298 503 290 496 288 c 0
 489 286 481 278 476 269 c 0
 464 247 448 242 444 259 c 0
 442 268 434 272 424 272 c 0
 409 272 408 270 408 239 c 2
 408 206 l 1x9f80
 489 209 l 2
 579 213 587 210 564 177 c 2xaf80
 550 157 l 1
 466 162 l 2
 420 164 371 163 357 161 c 0
 336 157 333 154 337 141 c 0
 339 133 341 126 342 125 c 0
 343 124 359 128 377 133 c 0
 395 138 431 143 457 143 c 2
 503 143 l 1xdf80
 503 88 l 2
 503 44 500 29 490 15 c 2
 476 -4 l 1
 521 -29 l 2
 545 -43 564 -56 564 -58 c 0
 564 -71 543 -109 536 -109 c 0
 531 -108 515 -95 500 -81 c 0
 485 -66 467 -52 461 -50 c 0
 446 -45 445 -35 459 -15 c 0
 471 3 471 5 452 8 c 0
 439 10 438 7 440 -47 c 0
 442 -96 441 -109 429 -127 c 0
 421 -140 409 -149 401 -149 c 0
 389 -149 389 -148 394 -132 c 0
 403 -110 402 -15 393 2 c 0
 388 12 380 15 358 13 c 0
 326 11 327 10 313 85 c 0
 308 114 308 127 314 134 c 0
 326 150 315 152 271 144 c 0
 249 139 228 137 226 139 c 0
 219 146 244 177 257 177 c 0
 264 177 291 182 318 188 c 0
 370 200 376 207 368 247 c 0
 363 269 363 269 328 267 c 0
 287 265 288 262 283 355 c 0
 281 388 276 420 273 427 c 0
 268 435 269 444 276 457 c 0
 286 477 295 481 302 469 c 0
 305 465 312 464 319 467 c 0
 325 470 343 474 360 477 c 0xaf80
481 434 m 0
 476 439 389 444 377 440 c 0
 374 438 359 435 345 432 c 0
 322 429 319 426 319 408 c 0
 319 385 319 385 368 395 c 0
 417 405 461 405 470 396 c 0
 475 391 473 384 465 371 c 0
 454 354 450 353 417 357 c 0
 395 360 370 358 354 353 c 0
 330 346 326 343 326 326 c 2
 326 306 l 1
 369 310 l 2
 392 312 429 315 451 317 c 2
 490 321 l 1
 488 374 l 2
 487 404 484 431 481 434 c 0
461 83 m 0
 459 98 455 99 421 101 c 0xcf80
 378 103 347 87 355 66 c 0
 358 56 369 54 404 55 c 0
 456 56 464 61 461 83 c 0
685 472 m 0
 705 494 717 481 715 439 c 0
 712 396 633 287 616 304 c 0
 608 312 611 320 642 354 c 0
 675 391 683 411 678 441 c 0
 676 453 679 465 685 472 c 0
736 304 m 0
 760 333 761 286 738 240 c 0
 716 196 633 120 621 132 c 0
 614 140 628 164 648 177 c 0xaf80
 686 200 714 235 721 266 c 0
 725 282 732 299 736 304 c 0
745 87 m 0
 751 109 760 123 766 123 c 0
 791 123 762 56 716 6 c 0
 679 -34 608 -88 594 -88 c 0
 579 -88 583 -62 600 -53 c 0
 622 -41 687 6 713 30 c 0
 727 44 738 65 745 87 c 0
328 -8 m 0
 340 4 353 2 353 -11 c 0
 353 -50 266 -134 246 -114 c 0
 236 -104 250 -74 264 -74 c 0
 284 -74 319 -47 319 -31 c 0
 319 -23 323 -13 328 -8 c 0
EndSplineSet
EndChar
StartChar: uni5F80
Encoding: 12669 24448 805
Width: 1000
VWidth: 0
Flags: W
HStem: -92 62<376.022 497.387> 132 55<406.899 506> 288 61<557.633 698.43>
VStem: 281 53<-132.258 112.629> 508 49<203.263 284.846>
LayerCount: 2
Back
Fore
SplineSet
310 463 m 0
 328 492 350 488 347 456 c 0
 343 417 333 399 230 230 c 0
 212 201 193 184 186 191 c 0
 181 196 218 273 245 316 c 0
 274 362 298 413 298 429 c 0
 298 436 304 452 310 463 c 0
445 448 m 2
 456 470 l 1
 520 466 l 2
 588 462 598 460 598 446 c 0
 598 434 565 399 558 404 c 0
 555 405 529 409 499 411 c 0
 469 414 442 418 439 421 c 0
 436 424 438 436 445 448 c 2
577 351 m 0
 582 355 652 353 681 349 c 0
 701 346 707 342 707 329 c 0
 707 311 675 283 661 288 c 0
 639 297 592 299 575 293 c 0
 558 286 557 284 557 245 c 0
 557 199 553 202 624 204 c 0
 655 205 659 203 659 191 c 0
 659 164 627 148 563 143 c 0
 561 142 557 122 555 97 c 0
 552 71 549 40 546 26 c 0
 540 -8 552 -14 658 -21 c 0
 753 -28 786 -35 809 -53 c 2
 824 -66 l 1
 805 -88 l 1
 785 -110 l 1
 758 -98 l 2
 742 -91 691 -84 630 -79 c 0
 532 -72 473 -74 390 -92 c 0
 363 -98 356 -89 369 -63 c 0
 381 -39 387 -36 440 -30 c 0
 487 -25 496 -21 499 -3 c 0
 504 32 510 123 507 131 c 0
 504 138 495 139 452 132 c 0
 398 123 394 125 394 143 c 0
 394 163 420 179 464 187 c 2
 506 194 l 1
 508 237 l 2
 509 261 508 282 505 285 c 0
 502 288 476 286 448 281 c 0
 382 269 374 270 369 282 c 0
 359 309 422 334 526 344 c 0
 553 347 576 350 577 351 c 0
316 289 m 0
 322 299 333 305 339 304 c 0
 356 301 349 247 326 206 c 0
 312 181 308 169 313 164 c 0
 323 154 337 16 334 -56 c 0
 332 -108 330 -116 314 -132 c 0
 283 -163 281 -159 281 -43 c 0
 281 118 272 142 231 87 c 0
 209 57 184 36 178 43 c 0
 168 52 187 82 236 140 c 0
 284 196 305 235 305 264 c 0
 305 268 310 279 316 289 c 0
EndSplineSet
EndChar
StartChar: uni5FDC
Encoding: 12670 24540 806
Width: 1000
VWidth: 0
Flags: W
HStem: 338 58<402.158 695> 439 54<414.472 547.809>
VStem: 259 38<93.6602 302.738> 359 43<-5.28979 192.684> 452 44<32.39 213.12> 561 46<141.152 210.378> 690 44<109.588 227.286>
LayerCount: 2
Back
Fore
SplineSet
414 481 m 0
 424 491 438 493 487 493 c 0
 546 493 548 492 550 478 c 0
 551 469 547 455 542 447 c 0
 532 433 526 433 478 434 c 0
 449 435 420 437 414 439 c 0
 398 444 398 465 414 481 c 0
442 382 m 0
 504 394 538 397 612 396 c 0
 663 395 708 393 713 391 c 0
 725 387 724 371 708 352 c 2
 695 335 l 1
 591 338 l 2
 496 341 479 339 393 321 c 0
 341 310 298 299 297 298 c 0
 295 297 298 273 302 244 c 0
 307 207 306 175 301 128 c 0
 289 29 282 -9 274 -24 c 0
 270 -31 255 -62 240 -92 c 0
 224 -125 207 -150 197 -155 c 0
 173 -167 169 -152 187 -123 c 0
 239 -39 259 35 259 149 c 0
 258 208 256 227 241 288 c 0
 234 316 273 349 325 359 c 0
 346 363 399 374 442 382 c 0
695 211 m 0
 712 239 724 231 734 188 c 0
 745 140 744 128 730 117 c 0
 708 101 698 110 690 151 c 0
 683 186 684 193 695 211 c 0
471 211 m 0
 478 218 487 223 490 221 c 0
 493 219 495 185 495 145 c 0
 495 104 496 65 496 58 c 0
 497 43 543 9 593 -13 c 0
 617 -24 640 -27 691 -28 c 0
 754 -29 797 -25 811 -17 c 0
 825 -8 830 -23 819 -41 c 0
 797 -78 733 -95 641 -88 c 0
 587 -83 571 -79 531 -57 c 0
 458 -18 456 -16 452 30 c 0
 447 102 456 195 471 211 c 0
572 199 m 0
 592 224 602 219 607 180 c 0
 610 162 616 144 619 141 c 0
 630 130 628 105 614 88 c 0
 592 60 570 85 561 147 c 0
 558 174 560 183 572 199 c 0
368 181 m 0
 386 201 392 201 402 184 c 0
 412 165 411 146 398 85 c 0
 392 55 385 19 383 5 c 0
 380 -13 374 -24 361 -34 c 0
 351 -41 340 -48 338 -48 c 0
 331 -48 334 -26 350 47 c 0
 362 101 364 123 359 141 c 0
 354 161 355 167 368 181 c 0
EndSplineSet
EndChar
StartChar: uni6028
Encoding: 12645 24616 781
Width: 1000
VWidth: 0
Flags: W
HStem: 137 52<605.482 734.582>
VStem: 310 19<65.4046 92.5957> 488 65<12.6581 80.7949>
LayerCount: 2
Back
Fore
SplineSet
326 451 m 0
 336 475 352 483 358 467 c 0
 359 462 380 450 404 441 c 0
 465 418 468 415 458 379 c 0
 454 363 443 333 434 313 c 0
 420 284 418 275 425 267 c 0
 431 260 431 252 424 237 c 0
 415 215 403 207 387 213 c 0
 382 216 376 215 376 211 c 0
 376 199 271 94 259 94 c 0
 243 94 244 102 266 126 c 0
 335 201 359 233 353 243 c 0
 350 247 333 259 315 269 c 0
 296 279 281 290 281 292 c 0
 281 294 286 301 291 308 c 0
 301 322 295 324 381 293 c 0
 389 290 410 338 410 359 c 0
 410 366 404 376 396 380 c 0
 387 385 378 390 376 393 c 0
 374 396 365 400 353 403 c 0
 334 407 331 404 300 362 c 0
 270 321 255 312 249 330 c 0
 248 334 252 343 259 350 c 0
 277 368 314 423 326 451 c 0
506 454 m 0
 519 475 521 475 552 472 c 0
 570 470 602 467 623 464 c 0
 648 461 666 455 673 447 c 0
 684 435 684 432 674 409 c 0
 668 395 659 372 655 358 c 0
 648 335 607 291 593 291 c 0
 583 291 588 310 600 326 c 0
 607 335 617 355 623 371 c 0
 636 405 635 405 574 421 c 0
 541 429 538 430 529 418 c 0
 520 406 517 298 524 269 c 0
 528 251 598 208 640 198 c 0
 662 193 692 190 708 189 c 0
 734 189 737 188 737 172 c 0
 737 143 710 132 651 137 c 0
 587 142 552 158 511 199 c 2
 479 231 l 1
 483 283 l 2
 491 414 493 433 506 454 c 0
402 115 m 0
 408 122 414 128 417 128 c 0
 420 128 424 93 426 52 c 0
 430 -17 432 -27 446 -37 c 0
 498 -76 705 -101 749 -74 c 0
 765 -64 771 -77 759 -98 c 0
 738 -134 709 -143 627 -140 c 0
 527 -137 448 -115 402 -77 c 0
 384 -63 384 96 402 115 c 0
500 90 m 0
 508 100 516 106 517 105 c 0
 524 99 553 38 553 31 c 0
 553 20 533 -2 523 -2 c 0
 516 -2 509 10 488 64 c 0
 486 68 492 80 500 90 c 0
641 92 m 0
 650 99 656 96 674 75 c 0
 699 46 701 36 685 18 c 0
 669 0 657 2 638 31 c 0
 620 59 621 76 641 92 c 0
310 86 m 0
 324 103 334 95 329 71 c 0
 316 12 265 -70 242 -70 c 0
 228 -70 231 -60 257 -28 c 0
 271 -12 287 19 292 39 c 0
 298 59 307 81 310 86 c 0
EndSplineSet
EndChar
StartChar: uni602A
Encoding: 12920 24618 894
Width: 1000
VWidth: 0
Flags: W
HStem: 80 51<475.505 558> 89 55<605 696.471> 184 45<701.846 782.789> 216 41<350.217 387.449> 386 47<490.154 620.305>
VStem: 233 38<162.383 272.287> 305 46<-53.3088 207.663 257 363.03> 558 47<144 221.192>
LayerCount: 2
Back
Fore
SplineSet
314 446 m 0x1f
 320 455 327 460 330 457 c 0
 333 454 337 407 340 355 c 0
 343 303 347 258 348 257 c 0x1f
 349 255 354 258 358 262 c 0
 372 276 391 271 413 249 c 0
 434 229 434 229 465 237 c 0
 500 247 532 259 537 269 c 0
 539 272 527 290 510 306 c 2
 480 336 l 1
 492 351 l 2
 507 368 516 365 558 333 c 0
 585 313 598 313 615 335 c 0
 638 365 640 364 537 386 c 0
 515 391 493 397 490 400 c 0
 479 410 508 433 528 433 c 0
 559 433 645 419 662 411 c 0
 677 404 683 377 671 369 c 0
 658 362 622 302 625 294 c 0
 629 283 718 239 757 229 c 0
 788 221 792 211 772 192 c 0
 762 183 753 181 733 184 c 0x2f
 719 186 701 188 694 189 c 0
 687 189 676 192 671 197 c 0
 666 201 657 205 652 206 c 0
 644 207 609 229 578 251 c 0
 573 254 561 251 549 240 c 0
 537 230 518 217 504 212 c 0
 483 203 481 200 484 186 c 0
 489 166 478 144 460 139 c 0
 450 137 436 147 408 176 c 0
 386 198 366 216 361 216 c 0
 349 216 340 151 347 116 c 0
 350 102 351 47 351 -5 c 0
 350 -91 348 -101 336 -113 c 0
 307 -140 307 -135 305 155 c 0
 304 393 305 432 314 446 c 0x1f
242 263 m 0
 260 283 266 280 271 256 c 0
 278 219 275 200 258 172 c 0
 249 157 238 137 235 129 c 0
 231 121 221 111 214 107 c 0
 200 100 200 100 204 115 c 0
 207 123 215 141 222 153 c 0
 234 171 236 183 233 212 c 0
 230 242 231 251 242 263 c 0
565 206 m 0
 584 235 596 225 602 175 c 2
 605 144 l 1
 654 144 l 2
 681 144 705 143 707 141 c 0
 708 139 705 127 699 115 c 0
 686 89 666 75 654 85 c 0
 649 89 638 91 627 89 c 0x4f
 606 85 600 70 603 25 c 2
 605 -5 l 1
 660 -11 l 2
 739 -19 794 -31 798 -41 c 0
 799 -46 794 -58 784 -67 c 2
 768 -84 l 1
 700 -73 l 2
 638 -63 607 -63 451 -66 c 0
 422 -67 398 -67 398 -66 c 0
 398 -42 432 -25 503 -18 c 2
 558 -12 l 1
 560 34 l 1
 562 80 l 1
 517 80 l 2
 476 80 473 80 473 95 c 0
 474 121 487 131 524 131 c 2
 558 131 l 1x8f
 556 160 l 2
 555 178 558 196 565 206 c 0
EndSplineSet
EndChar
StartChar: uni6062
Encoding: 12922 24674 896
Width: 1000
VWidth: 0
Flags: W
HStem: -85 45<706.408 809.837> -74 41<400.021 464.249> 137 20<536.86 542.615> 300 53<488.151 547.081 592.905 720.816>
VStem: 262 37<-2.63184 401.352> 477 116<177 285> 477 40<162.419 219.495>
LayerCount: 2
Back
Fore
SplineSet
273 453 m 0x38
 278 458 286 463 291 463 c 0
 299 463 301 443 300 323 c 0
 299 245 298 121 299 48 c 0
 300 -70 299 -87 288 -101 c 0
 274 -119 255 -133 251 -128 c 0
 249 -126 250 -106 253 -84 c 0
 256 -62 261 66 262 200 c 0
 264 378 267 446 273 453 c 0x38
432 439 m 0
 446 461 463 455 468 424 c 0
 470 410 473 389 476 376 c 2
 481 352 l 1
 579 353 l 2
 711 354 747 340 706 301 c 0
 692 288 687 287 676 293 c 0
 668 297 646 300 627 300 c 0
 596 300 593 299 593 285 c 0
 591 190 587 136 581 129 c 0
 577 124 572 113 570 105 c 0
 566 92 567 89 578 89 c 0
 587 89 596 81 603 69 c 0
 617 41 655 3 682 -9 c 0
 713 -23 778 -40 799 -40 c 0
 821 -40 822 -52 802 -73 c 0
 789 -88 783 -89 742 -85 c 0xbc
 694 -81 645 -63 623 -41 c 0
 616 -34 596 -9 580 14 c 0
 549 58 538 64 538 42 c 0
 538 35 526 14 511 -2 c 0
 496 -18 484 -34 484 -39 c 0
 484 -52 441 -74 414 -74 c 0
 400 -74 389 -71 389 -68 c 0
 389 -59 422 -33 433 -33 c 0
 451 -33 496 16 516 57 c 0
 545 118 552 137 545 137 c 0
 542 137 538 131 535 124 c 0
 531 110 514 101 504 107 c 0
 494 113 477 157 477 177 c 0x7c
 477 187 482 202 488 210 c 0
 500 228 519 230 517 214 c 0x7a
 515 200 535 157 544 157 c 0
 559 157 563 216 551 250 c 0
 546 266 545 277 550 288 c 0
 557 303 556 303 525 301 c 0
 508 300 491 296 488 293 c 0
 484 290 479 270 476 251 c 0
 461 137 445 95 388 17 c 0
 354 -30 325 -54 316 -45 c 0
 313 -42 321 -28 333 -14 c 0
 402 68 429 131 434 230 c 0
 438 300 435 307 399 293 c 0
 377 284 372 287 378 307 c 0
 381 315 394 326 406 331 c 0
 419 336 430 343 431 346 c 0
 433 349 431 368 428 387 c 0
 422 417 422 425 432 439 c 0
206 293 m 0
 216 310 236 312 242 296 c 0
 258 253 218 137 187 137 c 0
 181 137 183 146 193 172 c 0
 203 199 205 217 202 244 c 0
 199 268 200 283 206 293 c 0
318 280 m 1
 337 301 l 1
 361 276 l 2
 374 263 393 246 404 238 c 0
 414 231 423 219 423 214 c 0
 423 200 403 178 391 178 c 0
 386 178 363 196 340 219 c 2
 299 261 l 1
 318 280 l 1
638 235 m 0
 650 253 664 258 671 246 c 0
 682 228 627 123 608 123 c 0
 596 123 597 127 617 161 c 0
 628 180 633 196 630 204 c 0
 628 212 631 225 638 235 c 0
EndSplineSet
EndChar
StartChar: uni6069
Encoding: 12856 24681 830
Width: 1000
VWidth: 0
Flags: W
HStem: -145 54<460.641 711.857> 316 46<338.679 397.161> 318 51<495.616 530.746> 414 65<370.076 426> 424 55<481.218 603.997>
VStem: 265 44<171.254 402> 599 49<196 423.797>
LayerCount: 2
Back
Fore
SplineSet
499 477 m 0x8e
 500 478 534 480 573 479 c 2
 645 478 l 1
 648 335 l 2
 649 256 649 186 650 177 c 0
 651 159 632 142 612 142 c 0
 558 141 504 142 501 144 c 0
 499 146 483 144 466 141 c 0
 449 138 420 133 401 131 c 0
 383 129 346 124 320 120 c 0
 294 117 272 115 271 117 c 0
 269 118 266 168 265 228 c 0
 264 287 259 360 256 390 c 0
 250 436 250 446 260 456 c 0
 272 469 287 471 290 460 c 0
 293 452 327 451 377 458 c 0
 428 465 496 475 499 477 c 0x8e
601 424 m 0
 594 431 505 434 480 428 c 0
 469 425 461 416 458 403 c 0
 449 369 454 364 496 369 c 0
 539 374 546 368 531 339 c 0
 524 324 515 317 505 318 c 0xae
 466 321 464 318 489 301 c 0
 503 291 530 276 548 267 c 0
 566 257 582 248 582 245 c 0
 582 232 559 209 545 209 c 0
 523 209 443 259 440 273 c 0
 439 280 443 292 450 299 c 0
 456 306 459 313 458 315 c 0
 451 321 428 299 415 273 c 0
 400 244 399 243 374 212 c 0
 364 200 357 189 357 186 c 0
 357 181 452 185 496 192 c 0
 503 193 531 194 557 195 c 2
 604 196 l 1
 599 249 l 2
 597 278 598 327 601 359 c 0
 605 395 605 420 601 424 c 0
422 392 m 2
 426 414 l 1
 396 414 l 2
 380 414 364 412 363 411 c 0
 361 409 347 406 333 405 c 2
 306 402 l 1
 307 369 l 2xb6
 308 351 308 298 309 252 c 0
 310 206 313 169 315 169 c 0
 324 169 398 292 398 307 c 0
 398 309 384 313 367 316 c 0
 334 321 328 332 348 353 c 0
 355 361 364 364 379 362 c 0xc6
 406 358 416 364 422 392 c 2
235 63 m 0
 244 73 253 80 256 80 c 0
 266 80 275 54 275 25 c 0
 275 -9 234 -99 214 -110 c 0
 195 -120 197 -108 218 -60 c 0
 236 -18 239 13 226 33 c 0
 219 44 221 48 235 63 c 0
352 65 m 0
 359 81 374 86 375 72 c 0
 377 40 385 -27 388 -37 c 0
 390 -44 396 -49 400 -49 c 0
 405 -49 433 -58 462 -70 c 0
 512 -89 522 -91 601 -91 c 0
 679 -92 690 -91 724 -75 c 0
 745 -65 766 -52 771 -46 c 0
 783 -32 799 -33 799 -47 c 0
 798 -67 778 -88 734 -112 c 0
 686 -139 646 -146 554 -145 c 0
 496 -144 481 -141 424 -118 c 0
 378 -100 358 -88 352 -76 c 0
 342 -57 342 42 352 65 c 0
609 67 m 0
 627 85 631 83 645 63 c 0
 651 54 664 40 671 33 c 0
 685 20 685 19 674 2 c 0
 658 -22 640 -19 616 12 c 0
 592 43 591 49 609 67 c 0
478 56 m 0
 482 66 489 73 492 73 c 0
 495 73 511 58 526 40 c 0
 551 11 554 4 548 -12 c 0
 543 -26 538 -29 522 -27 c 0
 508 -26 499 -18 486 6 c 0
 472 33 471 41 478 56 c 0
EndSplineSet
EndChar
StartChar: uni6094
Encoding: 12921 24724 895
Width: 1000
VWidth: 0
Flags: W
HStem: -21 50<466.004 520.19> 42 42<331 363> 63 55<487.648 520.997> 200 46<495.549 534.669 580.599 627.615> 320 46<502.029 710.117> 326 53<480.006 712.52>
VStem: 290 41<-25.6529 42 84.0058 435.707> 432 48<380.392 437.226> 446 41<118.088 149.469> 535 43<126.634 197.637> 616 39<22.179 64.4375>
LayerCount: 2
Back
Fore
SplineSet
432 437 m 0xd760
 450 471 480 450 480 403 c 0
 480 380 482 379 503 379 c 0xd760
 598 378 709 371 714 366 c 0
 717 363 715 350 708 338 c 0
 698 320 693 317 675 320 c 0x9b60
 664 322 614 323 563 324 c 2
 472 326 l 1
 449 279 l 1
 425 232 l 1
 442 215 l 1
 460 197 l 1
 460 214 l 2
 461 241 476 258 492 249 c 0
 500 245 508 243 510 246 c 0
 515 250 672 249 680 244 c 0
 683 242 681 231 676 218 c 0
 671 206 665 179 664 161 c 0
 662 129 663 128 682 124 c 0
 694 121 713 120 727 119 c 0
 753 118 788 103 801 88 c 0
 820 65 787 44 745 53 c 0
 733 55 710 59 695 61 c 2
 666 65 l 1
 659 29 l 2
 655 10 653 -10 655 -13 c 0
 660 -23 640 -51 624 -56 c 0
 616 -59 603 -55 591 -47 c 0
 565 -28 526 -20 464 -21 c 0
 435 -22 409 -20 408 -17 c 0
 406 -14 410 0 418 16 c 0
 436 50 433 66 410 57 c 0
 401 53 380 49 363 46 c 2
 331 42 l 1
 327 -28 l 2
 324 -83 320 -100 310 -110 c 0
 302 -117 292 -121 287 -120 c 0
 279 -117 279 -99 283 -28 c 0
 286 21 289 139 290 235 c 0
 292 390 293 412 304 428 c 0
 321 453 333 446 331 414 c 0
 330 379 329 126 330 103 c 0
 331 92 335 84 338 84 c 0
 356 84 446 116 446 122 c 0xd6e0
 446 126 428 149 405 173 c 0
 382 198 364 220 364 223 c 0
 364 226 358 234 353 239 c 0
 342 251 349 274 366 285 c 0
 374 290 381 289 393 277 c 2
 410 262 l 1
 421 287 l 2
 437 325 442 375 432 400 c 0
 425 416 425 423 432 437 c 0xd760
535 159 m 2
 535 197 533 200 519 200 c 0
 502 200 487 171 487 137 c 0
 487 121 490 118 511 118 c 2
 535 118 l 1xb2e0
 535 159 l 2
627 168 m 0
 632 199 631 200 616 200 c 0
 589 200 577 186 578 156 c 0
 579 133 582 128 596 127 c 0
 617 124 622 129 627 168 c 0
616 41 m 0
 614 66 612 67 588 69 c 0
 565 71 562 69 558 53 c 0
 553 33 557 27 575 26 c 0
 581 25 593 23 602 20 c 0
 617 15 618 16 616 41 c 0
521 50 m 0
 521 60 517 64 503 63 c 0xb260
 476 62 466 57 466 42 c 0xd260
 466 33 471 29 483 29 c 0
 508 29 521 36 521 50 c 0
246 281 m 0
 251 289 260 295 264 294 c 0
 280 289 275 246 254 191 c 0
 227 121 226 118 207 105 c 0
 191 95 191 95 196 118 c 0
 199 130 207 154 214 170 c 0
 222 186 228 215 231 233 c 0
 233 251 241 272 246 281 c 0
EndSplineSet
EndChar
StartChar: uni60A6
Encoding: 12633 24742 769
Width: 1000
VWidth: 0
Flags: W
HStem: 165 41<495.228 521.733>
VStem: 167 32<172.66 245.871> 234 32<197.321 464.305> 240 42<-145.798 167.877> 391 28<281.353 330.812> 408 38<374.869 458.643> 523 35<28.1342 158.843> 560 38<355.87 467.667>
LayerCount: 2
Back
Fore
SplineSet
238 467 m 0xe3
 254 504 261 482 266 389 c 0xe3
 271 294 278 96 282 -39 c 0
 284 -108 282 -119 270 -136 c 0
 260 -149 254 -153 249 -148 c 0
 245 -144 242 -70 240 38 c 0xd3
 239 137 236 269 234 332 c 0
 232 410 233 454 238 467 c 0xe3
564 468 m 0
 578 484 590 479 598 455 c 0
 606 430 600 395 581 359 c 0
 569 336 574 329 598 329 c 0
 635 329 639 318 640 246 c 0
 641 190 639 178 626 160 c 2
 611 139 l 1
 589 152 l 2
 575 160 564 163 562 159 c 0
 560 156 557 130 558 101 c 0
 559 34 571 17 642 -22 c 0
 678 -42 763 -60 798 -55 c 0
 810 -53 825 -55 830 -58 c 0
 839 -64 839 -68 830 -84 c 0
 806 -128 684 -119 599 -67 c 0
 521 -19 523 -23 523 78 c 0
 523 151 522 165 513 165 c 0
 501 165 493 148 486 104 c 0
 481 77 468 46 432 -23 c 0
 419 -47 369 -93 355 -93 c 0
 338 -93 346 -74 374 -48 c 0
 390 -34 409 -9 419 7 c 0xcb
 443 48 462 113 457 142 c 0
 454 163 451 165 430 165 c 0
 410 165 407 167 410 179 c 0
 412 186 411 193 408 194 c 0xc7
 405 195 401 212 399 230 c 0
 397 249 393 278 391 295 c 0
 387 322 387 327 398 331 c 0
 406 334 414 332 419 325 c 0xcb
 430 310 443 236 438 220 c 0
 433 204 429 205 526 206 c 0
 574 206 596 208 600 214 c 0
 605 222 601 264 594 276 c 0
 593 278 570 282 545 284 c 0
 520 287 491 291 479 292 c 0
 468 293 455 299 451 305 c 0
 447 310 440 315 437 315 c 0
 430 315 408 404 408 430 c 0
 408 444 433 469 440 462 c 0
 443 459 445 448 446 436 c 0xc7
 447 425 450 409 454 401 c 0
 458 394 463 381 465 374 c 0
 467 367 472 364 477 367 c 0
 482 370 483 367 481 357 c 0
 476 339 478 338 511 333 c 0
 527 330 539 333 542 338 c 0
 556 360 563 396 560 425 c 0
 557 447 559 461 564 468 c 0
293 312 m 2
 308 330 l 1
 332 304 l 2
 346 289 362 270 372 260 c 0
 386 244 387 240 380 226 c 0
 363 192 351 192 333 225 c 0
 317 256 296 281 286 281 c 0
 274 281 277 291 293 312 c 2
179 300 m 0
 203 337 221 243 199 196 c 0
 192 181 181 168 174 167 c 0
 163 165 162 167 167 184 c 0
 170 194 172 223 172 247 c 0
 173 271 176 295 179 300 c 0
EndSplineSet
EndChar
StartChar: uni610F
Encoding: 12373 24847 671
Width: 1000
VWidth: 0
Flags: W
HStem: -179 53<438.28 727.231> -152 28<712.468 740.43> 9 46<369.134 533.621> 12 56<481 567> 102 50<415.541 562.996> 262 55<435.849 503.627 536.062 736.496> 378 52<433.645 503.849 545.003 612.365> 453 53<407.865 525.891>
VStem: 255 42<-59.2278 -10.3542> 337 32<17 75> 357 27<-79.8375 -9.07245> 582 30<150.759 186.452>
LayerCount: 2
Back
Fore
SplineSet
520 506 m 0x0f90
 544 516 548 516 548 502 c 0
 548 486 511 454 491 453 c 0
 464 452 422 454 411 457 c 0
 396 461 402 485 420 497 c 0
 430 504 445 506 469 503 c 0
 488 502 510 503 520 506 c 0x0f90
451 425 m 0
 476 428 515 431 537 430 c 0
 559 429 589 428 603 427 c 0
 653 426 635 378 584 376 c 0
 561 375 555 372 545 356 c 0
 524 319 526 317 619 317 c 0
 707 317 738 310 738 290 c 0
 738 284 733 274 726 268 c 0
 716 258 704 257 633 262 c 0
 543 269 377 267 365 260 c 0
 361 257 336 254 311 253 c 0
 286 252 254 248 241 245 c 0
 204 238 199 238 196 247 c 0
 188 269 252 295 330 301 c 0
 388 306 393 309 388 333 c 0
 383 358 366 373 350 368 c 0
 328 359 278 352 273 357 c 0
 270 360 275 371 284 381 c 0
 300 400 356 415 451 425 c 0
504 371 m 0
 501 375 484 378 466 378 c 0
 433 377 432 375 432 357 c 0
 432 332 448 317 476 317 c 0
 497 317 500 319 504 340 c 0
 506 353 506 367 504 371 c 0
480 225 m 0
 515 230 562 234 584 235 c 2
 624 236 l 1
 619 197 l 2
 617 175 613 130 612 97 c 0
 609 17 604 11 535 12 c 0x1fd0
 506 13 450 11 410 9 c 0
 344 6 337 7 337 17 c 0x2fd0
 336 45 324 167 320 183 c 0
 317 195 319 204 329 216 c 2
 344 232 l 1
 355 217 l 2
 366 203 370 202 391 209 c 0
 404 213 445 220 480 225 c 0
582 180 m 0
 582 202 379 177 372 155 c 0
 370 149 384 149 427 152 c 0
 505 159 551 159 563 149 c 0
 571 142 575 143 578 155 c 0
 580 164 582 175 582 180 c 0
569 100 m 2
 570 118 571 134 571 134 c 2
 570 134 565 127 560 119 c 0
 550 105 544 103 479 102 c 0
 365 101 372 103 369 75 c 0
 366 54 368 52 380 55 c 0x2fd0
 388 57 433 60 481 63 c 2
 567 68 l 1
 569 100 l 2
255 -45 m 0
 269 -16 280 -2 289 -2 c 0
 299 -2 301 -5 297 -17 c 0
 279 -80 180 -187 180 -146 c 0
 180 -143 193 -128 207 -114 c 0
 222 -99 243 -69 255 -45 c 0
635 -21 m 0
 645 3 660 2 675 -23 c 0
 681 -34 690 -43 695 -43 c 0
 707 -43 706 -51 688 -73 c 0
 674 -89 670 -91 659 -85 c 0
 639 -75 627 -43 635 -21 c 0
357 -22 m 0x8fb0
 361 -15 367 -9 370 -9 c 0
 377 -9 384 -34 384 -58 c 0
 384 -85 447 -116 514 -123 c 0
 542 -126 570 -127 575 -126 c 0x8fb0
 580 -125 611 -125 643 -124 c 0
 704 -123 778 -105 793 -87 c 0
 803 -75 820 -74 820 -84 c 0
 820 -96 759 -152 746 -152 c 0x4fb0
 740 -152 727 -157 718 -163 c 0
 702 -174 647 -179 548 -179 c 0
 498 -179 487 -178 443 -163 c 0
 390 -145 359 -126 354 -110 c 0
 348 -86 350 -37 357 -22 c 0x8fb0
500 -22 m 0
 508 -7 527 -5 527 -19 c 0
 527 -24 532 -33 537 -39 c 0
 555 -57 554 -95 534 -100 c 0
 504 -107 482 -57 500 -22 c 0
EndSplineSet
EndChar
StartChar: uni6212
Encoding: 12924 25106 898
Width: 1000
VWidth: 0
Flags: W
HStem: -71 50<720.625 811.941> 91 57<424 503.031> 295 51<254.777 447.75 670.939 701.535>
VStem: 374 48<-68.511 91> 378 42<150.811 243.921> 456 37<360.806 465.667> 476 36<-137.717 -45.843> 608 46<360.667 446.701>
LayerCount: 2
Back
Fore
SplineSet
471 466 m 0xed
 478 471 487 475 489 475 c 0
 491 475 493 455 493 429 c 0xed
 492 370 505 351 543 356 c 0
 556 358 577 359 589 360 c 2
 612 360 l 1
 608 387 l 2
 605 407 607 419 614 431 c 0
 632 458 642 452 654 408 c 0
 666 367 681 346 701 346 c 0
 716 346 716 326 702 306 c 0
 692 292 687 292 663 295 c 0
 648 297 611 301 580 303 c 0
 514 308 511 305 529 246 c 0
 536 224 545 194 550 178 c 0
 555 162 565 143 574 135 c 2
 590 120 l 1
 626 157 l 2
 646 177 669 198 678 203 c 0
 691 210 693 209 693 197 c 0
 693 189 681 175 665 163 c 0
 638 144 604 102 604 88 c 0
 604 85 613 75 623 69 c 0
 633 62 647 50 655 43 c 0
 683 15 758 -21 787 -21 c 0
 809 -21 815 -23 815 -33 c 0
 815 -58 800 -69 761 -71 c 0
 730 -72 718 -70 687 -52 c 0
 667 -40 643 -25 635 -18 c 0
 627 -11 609 5 595 16 c 0
 565 38 567 39 535 -27 c 0
 523 -51 513 -82 512 -97 c 0
 510 -130 494 -150 480 -138 c 0
 473 -132 472 -123 476 -104 c 0
 486 -60 506 -8 529 28 c 2
 552 63 l 1
 535 92 l 2
 526 108 517 122 514 122 c 0
 511 122 504 115 499 107 c 0
 491 96 482 93 457 92 c 2
 424 91 l 1
 422 20 l 2
 421 -43 418 -53 406 -64 c 0
 394 -74 390 -74 381 -67 c 0
 373 -60 371 -47 374 9 c 0xf3
 376 46 377 81 375 86 c 0
 372 95 340 97 328 89 c 0
 320 84 305 56 287 14 c 0
 273 -19 222 -76 206 -76 c 0
 193 -76 199 -64 220 -47 c 0
 239 -32 272 43 269 63 c 0
 268 75 262 79 242 80 c 0
 228 81 210 78 203 74 c 0
 181 62 179 70 199 97 c 0
 211 113 225 123 241 126 c 0
 254 128 265 132 267 135 c 0
 269 138 266 155 261 173 c 0
 249 206 251 227 267 233 c 0
 280 238 298 212 308 171 c 2
 316 139 l 1
 343 141 l 2
 357 142 373 145 376 147 c 0
 379 149 380 168 378 190 c 0
 376 218 377 233 384 243 c 0
 398 263 414 261 415 239 c 0
 415 228 416 218 417 214 c 0
 418 211 419 198 420 186 c 0
 421 154 429 149 469 148 c 0
 504 147 505 147 504 163 c 0
 503 185 478 274 468 292 c 0
 459 308 444 309 318 296 c 0
 268 291 226 287 224 288 c 0
 223 290 226 298 232 308 c 0
 244 326 279 336 357 343 c 0
 417 348 443 352 448 358 c 0
 451 361 455 384 456 410 c 0
 458 445 461 459 471 466 c 0xed
EndSplineSet
EndChar
StartChar: uni62BC
Encoding: 12833 25276 807
Width: 1000
VWidth: 0
Flags: W
HStem: 78 37<241.896 331.252> 261 54<627.713 724.75> 263 59<217.457 340.352>
VStem: 334 42<326.055 460.486> 452 42<325.391 453.977> 480 41<175.519 252.575> 573 47<186 253.568> 588 42<-132.43 125.101> 739 44<310.68 399>
LayerCount: 2
Back
Fore
SplineSet
341 461 m 0xb980
 348 468 357 473 361 472 c 0
 365 471 371 449 376 423 c 0
 381 397 386 365 389 352 c 0
 394 319 400 315 436 320 c 2
 467 325 l 1
 463 350 l 2
 461 364 456 386 452 398 c 0
 447 416 448 424 456 437 c 0
 462 447 470 454 473 454 c 0
 480 454 494 422 494 406 c 0
 494 399 497 391 501 389 c 0
 504 386 508 377 507 370 c 0
 506 362 508 342 511 327 c 2
 516 299 l 1
 544 302 l 2
 559 304 574 307 575 308 c 0
 576 309 570 327 561 348 c 0
 547 380 543 386 527 386 c 0
 505 386 502 398 520 419 c 0
 529 430 541 434 579 436 c 0
 606 438 652 441 684 444 c 0
 777 453 783 453 782 437 c 0
 778 400 778 322 783 267 c 0
 791 178 790 153 776 143 c 0
 759 130 752 132 752 150 c 0
 752 163 751 162 739 143 c 0
 725 121 713 115 701 127 c 0
 697 130 682 134 666 137 c 0
 644 140 636 140 633 133 c 0
 628 117 625 -36 630 -67 c 0
 633 -89 631 -101 621 -117 c 0
 594 -159 589 -146 588 -18 c 0
 587 37 585 94 584 106 c 0
 580 133 573 133 477 111 c 2
 409 95 l 1
 405 45 l 2
 399 -30 373 -99 342 -125 c 0
 310 -152 293 -133 322 -102 c 0
 349 -73 366 -16 363 44 c 0
 362 78 358 89 352 88 c 0
 323 83 264 76 251 78 c 0
 232 81 231 100 248 115 c 0
 254 121 278 128 302 130 c 0
 369 137 366 135 361 198 c 0
 359 228 355 255 354 258 c 0
 352 261 339 263 325 263 c 0
 299 263 223 276 213 282 c 0
 210 283 214 294 220 306 c 0
 232 326 232 326 278 322 c 0
 303 320 328 317 333 316 c 0
 343 315 343 363 334 415 c 0
 330 442 331 450 341 461 c 0xb980
739 351 m 2
 739 399 l 1
 693 399 l 2
 667 398 639 396 627 393 c 0
 605 388 605 387 614 333 c 2
 617 310 l 1
 667 315 l 2xd080
 704 318 722 317 729 311 c 0
 738 304 739 308 739 351 c 2
745 200 m 0
 744 214 742 242 740 261 c 2
 735 295 l 1
 719 276 l 2
 707 261 700 257 688 261 c 0
 671 266 642 267 627 261 c 0
 619 258 617 249 618 222 c 2
 620 186 l 1xd280
 675 185 l 2
 705 184 733 182 737 179 c 0
 743 176 746 182 745 200 c 0
467 263 m 0xb480
 452 278 444 279 421 270 c 0
 407 265 405 259 406 228 c 0
 407 167 414 151 433 152 c 0
 480 157 480 158 480 206 c 0
 480 241 478 252 467 263 c 0xb480
573 219 m 0x9680
 572 255 570 257 533 252 c 0
 519 250 514 245 517 238 c 0
 519 233 521 216 521 201 c 0
 521 177 522 175 540 175 c 0
 568 175 574 182 573 219 c 0x9680
EndSplineSet
EndChar
StartChar: uni62D0
Encoding: 12925 25296 899
Width: 1000
VWidth: 0
Flags: W
HStem: 77 59<413 499.515> 184 38<458.12 570.956 607 687.32> 261 42<278.605 350.578>
VStem: 347 43<328.25 451.815> 362 34<-17.1424 74.5684> 669 38<327.578 409.79>
LayerCount: 2
Back
Fore
SplineSet
481 448 m 0xf4
 496 462 506 462 510 446 c 0
 514 430 518 428 532 441 c 0
 539 447 570 452 624 455 c 2
 706 460 l 1
 707 371 l 2
 708 287 708 282 694 272 c 0
 682 265 672 264 645 269 c 0
 609 276 532 272 512 262 c 0
 506 259 497 258 494 261 c 0
 486 268 411 277 408 270 c 0
 407 267 407 236 409 201 c 2
 413 136 l 1
 440 135 l 2
 455 134 477 132 487 127 c 0
 503 121 505 116 501 103 c 0
 493 76 487 74 449 77 c 0
 416 80 411 78 404 62 c 0
 399 52 396 38 396 31 c 0
 396 -10 326 -126 300 -126 c 0
 289 -126 294 -107 316 -74 c 0
 345 -28 362 18 362 54 c 2
 362 85 l 1
 340 80 l 2
 328 78 311 72 301 67 c 0
 281 57 253 55 253 64 c 0
 253 76 294 104 316 109 c 0
 370 121 376 136 362 219 c 2xec
 354 263 l 1
 311 261 l 2
 287 260 265 262 263 264 c 0
 257 270 279 303 289 303 c 0
 293 303 310 306 324 310 c 2
 351 318 l 1
 347 372 l 2
 342 428 348 452 366 452 c 0
 377 452 378 447 390 372 c 2
 398 322 l 1
 438 324 l 1
 480 325 l 1
 475 381 l 2
 471 428 472 438 481 448 c 0xf4
669 405 m 0
 664 410 590 419 585 415 c 0
 584 413 569 410 553 408 c 0
 537 406 521 402 519 401 c 0
 514 395 534 323 541 320 c 0
 546 318 575 319 607 322 c 2
 665 327 l 1
 669 364 l 2
 671 384 671 403 669 405 c 0
504 222 m 0
 581 227 674 225 709 218 c 2
 747 211 l 1
 746 133 l 2
 745 65 743 49 727 10 c 0
 709 -33 680 -72 671 -63 c 0
 669 -61 674 -40 684 -16 c 0
 701 28 715 141 704 157 c 0
 701 161 687 166 672 169 c 0
 657 172 636 176 626 178 c 0
 610 181 607 179 607 166 c 0
 607 125 560 20 523 -24 c 0
 503 -46 453 -85 443 -85 c 0
 431 -85 439 -70 472 -39 c 0
 515 1 550 61 564 114 c 0
 580 177 580 176 506 180 c 2
 443 184 l 1
 457 202 l 2
 469 216 479 221 504 222 c 0
EndSplineSet
EndChar
StartChar: uni6309
Encoding: 12356 25353 654
Width: 1000
VWidth: 0
Flags: W
HStem: 85 52<207.355 305.745> 190 41<654.25 807.244> 201 49<552.042 611.077> 307 48<196.544 294.538 344.958 400.731> 443 54<510.238 631.135>
VStem: 290 30<391.726 492.744> 305 41<193.871 306.821> 415 7<244.594 245> 516 36<250 316.149> 718 39<299.346 385.382>
LayerCount: 2
Back
Fore
SplineSet
293 487 m 0xddc0
 304 507 320 504 320 483 c 0xddc0
 320 454 336 376 343 366 c 0
 348 361 361 358 381 359 c 0
 411 361 412 362 410 380 c 0
 409 394 413 403 424 413 c 2
 439 426 l 1
 445 409 l 2
 451 391 460 386 467 398 c 0
 469 402 483 405 498 405 c 0
 513 405 547 410 574 415 c 0
 647 430 716 438 739 437 c 2
 759 436 l 1
 757 385 l 2
 755 336 740 290 724 285 c 0
 720 284 718 301 718 335 c 0
 719 374 716 388 710 387 c 0
 705 386 673 383 639 381 c 0
 604 379 549 372 518 366 c 2
 460 354 l 1
 453 320 l 2
 443 276 432 251 422 245 c 0
 408 236 407 248 415 287 c 0
 422 315 421 327 416 332 c 0
 411 337 406 336 398 325 c 0
 390 313 382 310 366 311 c 0
 349 312 344 311 345 302 c 0
 345 295 345 262 346 228 c 0
 347 169 355 149 364 184 c 0
 369 205 385 214 456 232 c 2
 514 247 l 1
 516 273 l 2
 519 300 535 326 545 319 c 0
 548 317 552 301 552 283 c 2
 552 250 l 1
 628 250 l 2xbbc0
 725 249 783 243 799 231 c 0
 811 223 812 220 805 205 c 0
 794 181 785 179 726 190 c 0
 665 202 657 197 652 156 c 0
 651 140 644 118 639 105 c 0
 610 40 610 42 627 31 c 0
 643 20 684 -20 702 -41 c 0
 721 -65 721 -77 705 -96 c 2
 690 -115 l 1
 643 -66 l 2
 617 -39 591 -17 584 -17 c 0
 578 -17 567 -24 560 -32 c 0
 529 -71 495 -96 462 -107 c 0
 442 -113 425 -117 423 -115 c 0
 415 -107 436 -87 471 -69 c 0
 512 -49 546 -15 543 2 c 0
 542 9 524 19 497 28 c 0
 451 44 440 57 458 77 c 0
 474 95 504 162 504 180 c 0
 504 196 502 196 463 192 c 0
 441 189 409 181 392 174 c 0
 376 167 358 160 355 160 c 0
 351 160 350 155 352 150 c 0
 357 136 395 138 432 154 c 0
 462 167 463 166 463 154 c 0
 463 138 431 113 387 94 c 0
 358 81 355 77 354 57 c 0
 353 0 345 -33 327 -74 c 0
 307 -120 270 -166 254 -166 c 0
 240 -166 244 -157 266 -136 c 0
 299 -104 319 -19 308 48 c 0
 303 85 306 84 241 85 c 0
 199 86 189 98 213 122 c 0
 225 134 236 138 269 137 c 2
 309 135 l 1
 305 217 l 2xdbc0
 301 307 298 312 259 307 c 0
 228 303 191 309 191 319 c 0
 192 333 210 353 226 355 c 0
 235 356 255 357 269 357 c 2
 295 358 l 1
 290 415 l 2
 287 452 289 479 293 487 c 0xddc0
602 197 m 0
 596 199 581 201 568 201 c 0xb9c0
 548 201 543 198 537 180 c 0
 533 168 522 145 513 128 c 0
 504 110 497 94 497 91 c 0
 497 89 516 80 539 73 c 0
 579 59 583 59 591 70 c 0
 613 101 621 190 602 197 c 0
510 492 m 0
 515 497 525 499 530 497 c 0
 535 495 560 494 586 494 c 0
 631 494 633 493 633 477 c 0
 633 451 617 444 558 443 c 0
 519 442 502 445 498 452 c 0
 491 464 495 480 510 492 c 0
EndSplineSet
EndChar
StartChar: uni6328
Encoding: 12327 25384 625
Width: 1000
VWidth: 0
Flags: W
HStem: -81 54<671.51 762.241> 48 57<612.845 680.657> 67 51<244.414 333.752> 154 49<626 660.178> 250 67<390.102 455> 250 55<481 576> 262 45<243.521 332.457>
VStem: 345 45<146.641 259.799> 468 50<188.852 239.25> 523 56<106.008 132.204>
LayerCount: 2
Back
Fore
SplineSet
517 441 m 0x99c0
 529 455 539 456 539 444 c 0
 539 435 514 382 490 335 c 0
 483 321 478 307 481 305 c 0
 487 299 570 299 576 305 c 0
 579 308 572 323 560 340 c 0
 536 375 534 382 550 400 c 0
 566 418 573 415 603 374 c 0
 618 354 644 323 660 306 c 0
 691 275 693 259 671 237 c 0
 664 229 659 229 643 240 c 0
 626 251 612 252 526 250 c 0
 439 247 427 249 420 260 c 0
 415 267 407 270 400 267 c 0
 390 263 389 253 390 203 c 0
 392 137 389 142 439 150 c 0
 469 155 473 160 468 188 c 0
 465 208 467 217 477 229 c 2
 491 245 l 1
 505 229 l 2
 512 220 518 207 518 200 c 0
 518 187 522 187 551 190 c 0
 569 193 602 196 626 199 c 2
 669 203 l 1
 664 187 l 2
 657 163 648 154 630 154 c 0
 603 154 579 140 579 122 c 0
 579 108 583 106 612 105 c 0
 630 104 650 105 658 105 c 0
 680 107 691 91 681 70 c 0
 675 56 666 52 635 48 c 2xd5c0
 597 43 l 1
 620 24 l 2
 645 4 697 -20 738 -27 c 0
 770 -33 776 -50 752 -70 c 0
 737 -83 730 -84 706 -81 c 0
 665 -74 625 -56 580 -21 c 2
 541 9 l 1
 515 -21 l 2
 477 -66 412 -99 390 -85 c 0
 382 -80 383 -77 390 -65 c 0
 395 -58 404 -50 410 -50 c 0
 439 -50 504 -2 514 27 c 0
 518 39 516 40 479 35 c 0
 457 32 429 29 415 30 c 0
 393 31 389 29 385 13 c 0
 373 -35 314 -118 292 -118 c 0
 283 -118 286 -112 311 -72 c 0
 337 -28 350 17 347 52 c 0
 346 68 341 75 334 73 c 0
 329 72 305 68 282 67 c 0
 245 64 239 65 239 75 c 0
 239 102 258 117 291 118 c 0
 344 120 348 125 345 186 c 0
 341 266 342 266 258 262 c 0
 229 261 226 267 246 288 c 0
 255 298 272 304 294 307 c 0xb3c0
 335 312 341 325 326 377 c 0
 317 407 317 414 326 426 c 0
 331 433 339 439 343 439 c 0
 355 439 370 403 371 367 c 0
 373 322 378 317 419 317 c 2
 455 317 l 1
 481 373 l 2
 495 404 512 434 517 441 c 0x99c0
523 113 m 0
 521 141 498 140 475 110 c 0
 452 80 452 77 479 82 c 0
 523 91 524 92 523 113 c 0
418 72 m 2
 430 92 l 1
 413 92 l 2
 393 92 386 83 392 65 c 0
 398 47 404 48 418 72 c 2
EndSplineSet
EndChar
StartChar: uni65ED
Encoding: 12336 26093 634
Width: 1000
VWidth: 0
Flags: W
HStem: 59 46<568 656.661> 178 49<580.173 663.766> 251 51<239.973 329.679> 289 51<577.358 667.449>
VStem: 426 42<41.8574 225.222> 530 185<99 338.115> 668 47<114.33 199 227 287.688>
LayerCount: 2
Back
Fore
SplineSet
327 417 m 0xe8
 335 425 344 431 347 431 c 0
 358 431 374 388 378 345 c 0
 383 287 386 283 419 275 c 0
 471 261 479 256 475 235 c 0
 473 225 469 183 468 142 c 0
 463 43 466 40 596 -3 c 0
 649 -21 667 -24 731 -23 c 0
 771 -23 806 -24 808 -26 c 0
 814 -32 797 -58 781 -66 c 0
 730 -94 600 -78 517 -37 c 0
 510 -34 501 -31 498 -31 c 0
 494 -31 478 -22 461 -10 c 0
 440 4 428 17 424 32 c 0
 418 54 419 61 426 164 c 0
 430 216 429 220 416 224 c 0
 401 229 375 222 377 215 c 0
 380 201 364 130 348 84 c 0
 312 -16 271 -72 220 -92 c 0
 179 -108 182 -83 224 -56 c 0
 253 -38 275 -11 283 16 c 0
 286 26 291 37 294 40 c 0
 308 60 323 122 326 180 c 2
 330 246 l 1
 296 251 l 2
 260 256 239 265 239 275 c 0
 239 291 263 302 298 302 c 0
 318 302 334 305 334 308 c 0
 334 318 322 380 317 392 c 0
 314 399 318 408 327 417 c 0xe8
543 335 m 0
 550 347 556 349 564 345 c 0
 570 342 606 340 642 340 c 0
 720 340 713 353 715 203 c 2
 716 99 l 1
 695 78 l 2
 674 57 673 57 603 58 c 2
 533 59 l 1
 530 80 l 2xdc
 523 124 533 319 543 335 c 0
663 289 m 0
 660 289 645 291 630 292 c 0
 588 297 574 288 578 260 c 0
 582 231 588 227 632 227 c 2
 668 227 l 1
 668 258 l 2xda
 668 275 666 288 663 289 c 0
657 114 m 0
 666 121 667 130 666 161 c 2
 664 199 l 1
 649 187 l 2
 637 178 627 176 603 178 c 0
 580 181 573 179 572 172 c 0
 572 167 571 150 570 134 c 2
 568 105 l 1
 607 105 l 2
 628 105 650 109 657 114 c 0
EndSplineSet
EndChar
StartChar: uni65FA
Encoding: 12834 26106 808
Width: 1000
VWidth: 0
Flags: W
HStem: -77 61<385.442 564.979> 180 52<259.714 367.848 465.157 564.594> 203 54<619 711.574> 369 50<469.162 561 611.198 712.622>
VStem: 217 39<78 171.092> 373 41<90.7676 185.991 236 332> 563 44<259 363.751>
LayerCount: 2
Back
Fore
SplineSet
610 422 m 0xde
 611 423 636 424 665 424 c 0
 723 423 732 416 713 389 c 0
 705 379 693 376 660 375 c 0
 633 374 615 369 611 364 c 0
 608 359 606 334 607 307 c 2
 609 259 l 1
 654 257 l 2
 689 256 703 252 712 242 c 0
 723 230 723 228 713 212 c 0
 703 197 698 196 660 199 c 2
 619 203 l 1xbe
 618 138 l 2
 615 4 616 -12 624 -12 c 0
 629 -12 663 -15 702 -19 c 0
 798 -29 825 -46 791 -80 c 0
 781 -90 774 -93 765 -88 c 0
 725 -67 455 -59 395 -77 c 0
 357 -89 347 -82 363 -57 c 0
 380 -30 430 -18 525 -16 c 2
 568 -15 l 1
 572 30 l 2
 578 90 579 170 574 183 c 0
 571 193 540 193 484 186 c 0
 471 184 455 188 455 193 c 0
 456 205 482 230 497 232 c 0
 506 234 525 237 539 239 c 2
 565 243 l 1
 563 306 l 1
 561 369 l 1
 508 369 l 2
 479 370 453 372 451 374 c 0
 447 378 460 408 469 413 c 0
 472 415 505 418 542 419 c 0
 578 420 609 421 610 422 c 0xde
205 386 m 0
 221 403 227 403 232 385 c 0
 237 371 241 371 275 375 c 0
 296 378 336 381 364 384 c 2
 415 388 l 1
 414 293 l 2
 413 241 416 164 419 122 c 0
 424 56 425 44 415 30 c 0
 399 7 387 4 382 21 c 0
 379 32 372 37 350 38 c 0
 335 39 313 38 301 35 c 0
 290 33 266 29 249 27 c 2
 217 23 l 1
 213 165 l 2
 211 243 206 321 201 339 c 0
 193 368 193 373 205 386 c 0
373 284 m 1
 373 332 l 1
 319 330 l 2
 289 329 260 325 257 322 c 0
 249 314 247 261 254 236 c 0
 258 219 257 219 347 232 c 2xde
 373 236 l 1
 373 284 l 1
374 156 m 0
 373 173 371 186 368 186 c 0
 365 185 346 183 325 180 c 0
 257 171 256 171 256 122 c 2
 256 78 l 1
 289 82 l 2
 360 89 377 94 376 110 c 0
 376 118 375 139 374 156 c 0
EndSplineSet
EndChar
StartChar: uni6687
Encoding: 12875 26247 849
Width: 1000
VWidth: 0
Flags: W
HStem: 20 49<218.129 325> 47 48<451.15 536.687> 149 52<447.906 493.399> 337 40<217.597 330> 415 41<576.377 654.288>
VStem: 176 41<69.0973 158.892> 330 37<282 337> 400 42<-122.607 39.8382 320 404.625> 519 34<326.867 400.812> 553 28<176.192 201.724> 655 39<340.009 408.387>
LayerCount: 2
Back
Fore
SplineSet
589 449 m 0x3f60
 606 461 618 462 664 456 c 2
 696 451 l 1
 694 379 l 2
 693 309 692 307 676 297 c 0
 655 285 581 292 581 306 c 0
 581 322 609 345 623 342 c 0
 647 335 655 344 655 375 c 0
 655 407 658 405 600 415 c 0
 571 420 567 433 589 449 c 0x3f60
394 434 m 2
 404 453 l 1
 477 449 l 2
 531 446 552 442 559 434 c 0
 564 427 565 421 560 416 c 0
 557 413 553 388 553 362 c 0
 553 317 546 291 530 281 c 0
 526 278 509 276 491 276 c 0
 457 276 434 262 440 244 c 0
 443 239 447 226 449 217 c 0
 452 203 457 201 479 201 c 0
 527 201 521 156 472 149 c 0
 445 144 438 136 443 109 c 0
 446 95 450 94 491 95 c 0
 532 96 536 94 538 81 c 0
 541 61 523 49 487 47 c 0x7fa0
 470 46 454 43 451 40 c 0
 448 37 443 5 442 -30 c 0
 439 -96 431 -125 414 -125 c 0
 397 -125 396 -99 400 81 c 0
 403 213 401 278 394 337 c 0
 386 404 386 418 394 434 c 2
504 401 m 0
 474 408 438 406 434 395 c 0
 431 390 433 370 436 352 c 2
 442 320 l 1
 472 322 l 2
 518 325 519 327 519 364 c 0
 519 393 517 397 504 401 c 0
251 371 m 0
 263 374 293 377 319 377 c 2
 367 378 l 1
 367 319 l 2
 367 286 369 216 372 164 c 0
 377 66 376 63 344 24 c 0
 343 22 310 21 272 20 c 0xbf20
 234 19 197 17 191 16 c 0
 180 14 179 26 176 140 c 0
 175 209 169 282 165 302 c 0
 156 347 166 363 205 364 c 0
 219 364 240 368 251 371 c 0
326 282 m 2
 330 337 l 1
 311 337 l 2
 288 336 229 326 217 321 c 0
 210 319 207 305 208 275 c 0
 209 212 212 209 266 213 c 0
 292 215 314 219 317 222 c 0
 320 225 324 251 326 282 c 2
315 167 m 0
 308 170 301 173 300 173 c 0
 299 172 283 170 264 168 c 0
 246 165 227 162 223 159 c 0
 220 157 217 136 217 112 c 2
 217 69 l 1
 270 69 l 1
 325 69 l 1
 331 92 l 2
 338 123 331 158 315 167 c 0
611 244 m 0
 697 250 697 250 692 234 c 0
 690 225 676 192 660 159 c 0
 633 102 632 100 642 77 c 0
 671 13 736 -36 808 -47 c 0
 841 -52 845 -59 828 -83 c 0
 806 -115 718 -93 662 -42 c 0
 648 -30 629 -5 619 13 c 0
 608 31 598 45 595 45 c 0
 592 45 585 36 579 26 c 0
 565 2 482 -85 472 -85 c 0
 460 -85 464 -77 511 -23 c 0
 536 6 563 41 570 54 c 2
 583 78 l 1
 561 124 l 2
 545 156 541 171 546 176 c 0
 550 180 553 190 553 198 c 0x3f60
 554 225 574 241 611 244 c 0
649 203 m 0
 649 208 622 208 596 203 c 0
 587 202 581 197 581 194 c 0
 581 186 615 140 621 140 c 0
 625 140 649 193 649 203 c 0
EndSplineSet
EndChar
StartChar: uni6697
Encoding: 12357 26263 655
Width: 1000
VWidth: 0
Flags: W
HStem: -118 46<492 625.193> -4 48<495.417 593.473> 0 54<496.609 610.491> 310 45<260.152 345 397.803 466.848 513.367 584 624.279 695.233>
VStem: 214 37<206.722 297.729> 345 43<78.104 152.764 210.875 308.52>
LayerCount: 2
Back
Fore
SplineSet
475 442 m 0x9c
 481 449 499 452 543 452 c 0
 614 452 625 445 605 412 c 0
 598 400 590 393 588 395 c 0
 585 398 559 401 528 404 c 0
 481 407 471 410 469 420 c 0
 468 427 471 437 475 442 c 0x9c
583 361 m 0
 588 366 699 364 702 359 c 0
 703 356 700 343 695 331 c 0
 686 309 684 308 658 313 c 0
 633 317 630 316 624 299 c 0
 614 274 615 242 626 241 c 0
 630 240 651 239 671 238 c 0
 690 237 718 234 732 231 c 0
 746 228 765 225 773 224 c 0
 795 222 795 222 784 195 c 2
 774 172 l 1
 731 177 l 2
 668 185 499 187 477 180 c 0
 466 177 447 172 433 170 c 0
 390 164 385 155 383 92 c 0
 381 47 378 34 367 23 c 0
 356 11 351 10 339 17 c 0
 324 24 265 24 228 14 c 2
 209 9 l 1
 209 65 l 2
 209 96 211 166 214 220 c 0
 219 348 221 350 309 354 c 0
 344 355 374 354 375 351 c 0
 377 348 381 315 382 276 c 0
 384 237 387 205 388 204 c 0
 389 203 410 208 434 214 c 2
 477 225 l 1
 475 262 l 2
 474 282 470 303 467 306 c 0
 464 310 446 312 427 312 c 0
 391 311 386 318 402 340 c 0
 409 350 425 352 496 355 c 0
 542 357 582 360 583 361 c 0
345 266 m 2
 345 310 l 1
 320 308 l 2
 258 305 253 299 251 240 c 0
 250 204 250 205 301 208 c 0
 340 210 345 216 345 266 c 2
584 283 m 2
 584 310 l 1
 550 310 l 2
 518 310 517 308 513 286 c 0
 507 247 514 235 539 235 c 0
 569 235 584 250 584 283 c 2
339 153 m 0
 326 160 295 160 266 155 c 0
 254 153 250 147 249 134 c 0
 246 76 258 62 305 69 c 0
 322 71 337 75 340 78 c 0
 343 80 346 96 348 114 c 0
 350 141 349 148 339 153 c 0
549 152 m 0
 590 161 664 161 669 153 c 0
 676 142 675 55 669 -8 c 0
 666 -43 667 -61 673 -71 c 0
 680 -83 680 -87 664 -102 c 0
 646 -118 642 -119 557 -118 c 0
 486 -117 468 -115 468 -108 c 0
 468 -103 463 -99 458 -99 c 0
 451 -99 449 -77 449 9 c 0
 449 71 452 122 456 131 c 0
 461 143 469 145 494 146 c 0
 511 147 536 149 549 152 c 0
613 108 m 2
 598 111 578 112 566 111 c 0
 493 104 490 102 494 68 c 2
 496 44 l 1xdc
 535 49 l 2
 556 52 583 53 594 54 c 0
 612 54 614 53 613 35 c 0
 611 9 595 -7 579 0 c 0
 565 6 565 6 520 0 c 2xbc
 488 -4 l 1xdc
 490 -39 l 1
 492 -75 l 1
 541 -72 l 2
 569 -71 599 -68 609 -65 c 0
 629 -60 628 -64 635 38 c 2
 640 104 l 1
 613 108 l 2
EndSplineSet
EndChar
StartChar: uni66F3
Encoding: 12616 26355 752
Width: 1000
VWidth: 0
Flags: W
HStem: -118 55<624.455 751.762> 108 52<598.748 673.754> 331 51<309.946 363.94> 340 52<419 549>
VStem: 268 44<165.13 219.901 280.606 323.613> 273 46<-144.94 -72.24> 371 46<392.35 479.918> 549 48<179.736 235.444>
LayerCount: 2
Back
Fore
SplineSet
385 470 m 0xeb
 404 499 415 489 417 439 c 2
 419 392 l 1
 499 395 l 2
 548 396 583 394 588 390 c 0
 594 385 597 351 597 266 c 0
 597 152 597 149 610 153 c 0
 618 155 638 158 654 160 c 0
 680 164 682 164 682 151 c 0
 682 130 656 108 632 108 c 0
 587 108 484 64 484 46 c 0
 484 36 539 -8 567 -21 c 0
 607 -39 698 -63 723 -63 c 0
 737 -63 747 -67 752 -77 c 0
 758 -89 757 -94 743 -108 c 0
 728 -123 724 -124 686 -118 c 0
 635 -110 531 -77 517 -65 c 0
 512 -60 503 -56 499 -56 c 0
 495 -56 476 -41 458 -22 c 0
 440 -3 422 12 419 12 c 0
 416 12 394 -7 371 -30 c 0
 343 -59 326 -84 319 -104 c 0
 308 -138 296 -152 280 -152 c 0
 271 -152 270 -147 273 -124 c 0xd7
 278 -88 309 -44 362 7 c 2
 404 46 l 1
 393 82 l 1
 383 118 l 1
 341 118 l 2
 318 118 294 114 289 109 c 0
 269 93 264 106 268 168 c 0
 272 228 267 270 250 312 c 0
 240 336 244 351 267 364 c 0
 276 370 280 369 288 359 c 0
 298 346 299 347 313 364 c 0
 322 376 334 382 347 382 c 0
 365 382 367 384 371 418 c 0
 374 437 380 461 385 470 c 0xeb
551 316 m 2
 549 338 l 1
 494 340 l 2
 434 342 419 335 412 306 c 0
 408 290 410 288 427 285 c 0
 464 278 524 278 538 286 c 0
 549 292 552 300 551 316 c 2
364 307 m 0
 364 331 363 330 334 331 c 0
 307 331 305 330 308 318 c 0
 310 310 312 298 312 291 c 0xeb
 312 281 317 279 338 281 c 0
 362 283 364 284 364 307 c 0
549 218 m 0
 544 247 540 250 526 234 c 0
 519 226 507 225 471 228 c 0
 421 233 412 228 420 199 c 0
 423 187 429 185 478 184 c 0
 509 183 536 181 539 180 c 0
 549 174 554 191 549 218 c 0
362 211 m 0
 361 225 351 227 325 220 c 0
 316 218 312 209 312 191 c 2
 312 165 l 1
 338 169 l 2
 363 173 365 175 362 211 c 0
522 120 m 0
 521 121 506 125 488 128 c 0
 449 135 440 130 449 106 c 2
 456 88 l 1
 490 103 l 2
 509 111 523 119 522 120 c 0
EndSplineSet
EndChar
StartChar: uni679C
Encoding: 12876 26524 850
Width: 1000
VWidth: 0
Flags: W
HStem: 72 66<598.534 704.38> 90 48<274.923 357.994 382.033 437.153> 187 46<338 432.228 478.202 558.666> 286 49<477.323 562.077> 403 43<333.078 419> 414 41<467.629 572.797>
VStem: 419 48<373 403> 441 44<-120.255 59.122> 579 38<196.1 407.837>
LayerCount: 2
Back
Fore
SplineSet
451 450 m 0x7980
 469 453 514 456 549 455 c 2
 613 454 l 1
 617 345 l 2
 621 218 620 208 602 198 c 0
 580 186 576 201 579 306 c 0
 580 372 578 405 573 408 c 0
 569 411 544 413 517 414 c 2
 467 416 l 1
 467 386 l 2
 467 338 470 335 518 335 c 0
 566 335 576 328 560 304 c 0
 551 291 542 287 513 286 c 2
 477 284 l 1
 477 260 l 1
 477 236 l 1
 520 234 l 2
 555 233 562 230 562 220 c 0
 562 213 556 201 547 193 c 0
 535 181 525 179 509 182 c 0
 491 186 487 185 480 169 c 0
 466 140 477 135 570 134 c 0
 694 132 738 115 708 82 c 0
 697 70 690 69 668 72 c 0xb680
 582 86 568 82 600 49 c 0
 611 38 623 29 626 29 c 0
 629 29 644 19 658 8 c 0
 690 -17 724 -32 773 -42 c 0
 803 -48 811 -52 811 -63 c 0
 811 -73 803 -79 783 -84 c 0
 729 -100 676 -81 603 -20 c 0
 583 -2 564 13 562 15 c 0
 560 17 547 27 532 39 c 0
 517 50 503 62 500 65 c 0
 490 79 488 64 485 -18 c 0
 482 -105 475 -128 451 -119 c 0
 443 -116 441 -99 441 -26 c 0
 442 79 438 90 414 90 c 0x7180
 400 90 391 83 375 58 c 0
 331 -12 206 -127 190 -111 c 0
 188 -109 207 -86 234 -61 c 0
 295 -4 358 69 358 83 c 0
 358 91 350 93 321 93 c 0
 301 93 283 91 283 89 c 0
 283 84 216 67 211 72 c 0xb180
 191 92 314 138 387 138 c 0
 435 138 442 143 435 171 c 0
 431 187 423 188 341 187 c 2
 299 187 l 1
 294 280 l 2
 291 331 288 384 286 399 c 0
 281 442 293 449 361 446 c 0
 392 445 432 447 451 450 c 0x7980
423 373 m 2
 419 403 l 1
 375 403 l 1
 331 403 l 1x3a80
 331 373 l 2
 331 356 334 341 339 338 c 0
 353 329 418 327 423 335 c 0
 426 339 426 356 423 373 c 2
432 264 m 0
 430 282 428 284 397 284 c 0
 349 284 338 277 338 253 c 0
 338 233 338 233 377 233 c 0
 425 233 435 239 432 264 c 0
EndSplineSet
EndChar
StartChar: uni6804
Encoding: 12617 26628 753
Width: 1000
VWidth: 0
Flags: W
HStem: 94 57<306.456 428.794> 122 45<496.461 663.707> 302 46<601.015 662.64>
VStem: 209 41<147.758 292.304> 441 41<166.153 266.75> 459 44<-147.742 32.1345> 665 44<189.828 299.24>
LayerCount: 2
Back
Fore
SplineSet
446 473 m 2x32
 460 487 l 1
 472 467 l 2
 478 456 494 440 507 429 c 0
 529 411 529 409 519 391 c 0
 502 361 483 365 456 402 c 0
 428 440 426 453 446 473 c 2x32
630 462 m 0
 648 484 657 484 652 461 c 0
 647 440 638 421 616 382 c 0
 608 368 601 355 601 354 c 0
 601 353 622 349 648 348 c 0
 675 347 698 344 701 341 c 0
 704 338 707 311 709 282 c 0
 712 234 711 225 697 203 c 0
 675 168 666 177 665 233 c 0
 664 305 667 302 589 302 c 0
 552 302 520 299 516 296 c 0
 513 293 502 288 492 287 c 0
 478 286 476 282 477 268 c 0
 478 258 480 233 482 211 c 0xba
 483 189 487 169 490 166 c 0
 493 163 517 163 542 167 c 0
 609 176 665 172 668 158 c 0
 669 152 663 140 654 132 c 0
 640 118 634 117 573 122 c 0
 514 126 507 125 501 115 c 0
 491 97 498 75 510 85 c 0
 521 95 541 89 562 69 c 0
 586 47 701 -9 747 -21 c 0
 793 -33 805 -41 805 -60 c 0
 805 -91 779 -110 760 -94 c 0
 757 -91 744 -84 731 -79 c 0
 641 -46 549 4 529 29 c 0
 524 34 515 37 509 34 c 0
 499 31 499 20 503 -48 c 0
 507 -123 507 -125 492 -139 c 0
 462 -167 460 -161 459 -37 c 0x76
 458 27 455 84 452 89 c 0
 448 96 441 90 424 60 c 0
 402 21 249 -140 235 -140 c 0
 231 -140 224 -142 218 -144 c 0
 211 -147 207 -144 207 -135 c 0
 207 -120 220 -106 251 -90 c 0
 299 -65 443 95 429 109 c 0
 426 112 333 101 301 94 c 0
 280 90 279 91 289 114 c 0
 297 131 323 139 407 151 c 2
 441 156 l 1
 441 207 l 2xba
 441 235 444 262 447 267 c 0
 454 279 393 272 351 256 c 0
 317 244 313 246 322 269 c 0
 329 289 370 305 439 315 c 0
 463 318 502 327 525 333 c 2
 567 344 l 1
 592 395 l 2
 606 423 623 453 630 462 c 0
280 439 m 0
 286 446 292 452 294 452 c 0
 297 452 315 433 335 411 c 0
 373 368 376 350 350 332 c 0
 334 320 325 327 295 369 c 0
 265 410 263 421 280 439 c 0
199 293 m 0
 206 307 210 308 222 305 c 0
 248 297 251 290 250 231 c 0
 250 184 248 172 235 154 c 0
 210 118 204 125 209 190 c 0
 213 240 213 251 203 262 c 0
 193 273 193 278 199 293 c 0
EndSplineSet
EndChar
StartChar: uni6848
Encoding: 12358 26696 656
Width: 1000
VWidth: 0
Flags: W
HStem: -105 53<708.14 818.3> 32 57<514.877 543.412 599 772.104> 161 60<442.798 464.59> 245 52<549 675.485> 403 54<398.448 551.904>
VStem: 535 11<331.328 343.745>
LayerCount: 2
Back
Fore
SplineSet
409 450 m 0
 417 457 427 460 443 457 c 0
 456 455 487 452 512 451 c 0
 536 451 558 448 559 444 c 0
 560 441 556 429 549 420 c 0
 537 404 531 403 478 403 c 0
 405 403 379 420 409 450 c 0
616 399 m 0
 644 402 679 405 693 406 c 0
 722 407 724 401 711 336 c 0
 704 303 705 295 713 285 c 0
 725 270 724 245 709 231 c 0
 699 221 696 220 677 232 c 0
 661 241 640 244 591 245 c 0
 531 246 526 245 516 231 c 0
 506 217 507 216 528 206 c 0
 541 201 565 193 581 189 c 0
 615 179 619 162 592 144 c 0
 576 134 572 134 541 144 c 0
 523 150 506 155 503 155 c 0
 494 155 500 100 510 95 c 0
 514 92 535 90 555 89 c 0
 678 85 776 79 781 74 c 0
 784 71 779 60 770 50 c 0
 752 30 731 28 640 31 c 2
 599 33 l 1
 616 19 l 2
 639 1 728 -43 743 -43 c 0
 750 -43 769 -47 786 -52 c 0
 810 -59 818 -64 819 -78 c 0
 822 -108 806 -115 750 -105 c 0
 678 -92 541 -11 541 19 c 0
 541 27 536 32 528 32 c 0
 517 32 516 24 511 -17 c 0
 506 -67 491 -106 477 -102 c 0
 474 -101 470 -74 469 -42 c 0
 467 32 465 35 436 30 c 0
 418 27 400 14 361 -25 c 0
 324 -62 297 -82 260 -100 c 0
 209 -125 194 -129 194 -119 c 0
 194 -107 243 -63 255 -63 c 0
 279 -63 371 4 371 21 c 0
 371 26 354 29 327 29 c 0
 303 29 283 27 283 24 c 0
 283 21 278 18 271 18 c 0
 264 18 256 17 253 14 c 0
 250 11 245 9 243 8 c 0
 240 8 230 4 219 -1 c 0
 185 -15 167 5 193 27 c 0
 216 48 393 88 411 77 c 0
 414 75 427 76 439 80 c 0
 457 87 460 91 460 114 c 0
 460 134 464 143 475 150 c 0
 483 156 486 161 481 161 c 0
 477 161 459 151 441 138 c 0
 395 105 337 90 337 110 c 0
 337 116 354 129 377 140 c 0
 435 168 438 170 422 176 c 0
 415 179 397 181 382 181 c 0
 355 182 355 183 369 218 c 0
 374 230 371 232 330 227 c 0
 250 217 252 217 254 236 c 0
 256 252 255 254 245 240 c 0
 235 228 235 231 239 294 c 0
 244 365 250 386 265 386 c 0
 280 386 284 339 273 297 c 0
 268 277 264 260 265 259 c 0
 269 255 395 278 403 285 c 0
 415 295 416 332 404 329 c 0
 399 327 377 324 356 322 c 0
 314 317 305 325 329 346 c 0
 345 360 459 382 616 399 c 0
677 339 m 0
 677 357 676 359 652 358 c 0
 611 356 549 348 546 345 c 0
 544 343 545 332 546 320 c 2
 549 297 l 1
 609 297 l 2
 674 297 677 300 677 339 c 0
535 342 m 0
 535 346 502 344 477 339 c 0
 456 335 432 301 443 291 c 0
 446 288 462 287 478 289 c 0
 502 291 509 296 521 316 c 0
 528 329 535 340 535 342 c 0
486 231 m 0
 487 240 482 242 463 241 c 0
 439 240 420 233 426 227 c 0
 428 226 441 222 456 221 c 0
 477 220 484 222 486 231 c 0
EndSplineSet
EndChar
StartChar: uni6A2A
Encoding: 12835 27178 809
Width: 1000
VWidth: 0
Flags: W
HStem: 87 42<624.267 686.765> 163 54<546.65 569.089> 300 47<273.308 363.354> 319 47<569 588.947> 326 50<631.38 660.375>
VStem: 319 36<213.448 276.898> 367 56<230.515 300.722> 382 41<-131.753 109.77> 512 35<375 449.828> 574 46<134.237 162.814> 593 36<285.641 318.969> 689 43<50.8787 86.9942>
LayerCount: 2
Back
Fore
SplineSet
368 460 m 0xe690
 380 477 399 482 393 466 c 0
 391 461 393 455 396 455 c 0
 399 455 403 435 404 410 c 0
 406 358 404 359 476 370 c 2
 512 375 l 1
 512 403 l 2
 512 428 526 455 540 455 c 0
 543 455 546 436 547 413 c 0
 549 372 550 370 569 368 c 2
 589 366 l 1xd690
 584 406 l 2
 581 435 582 449 589 458 c 0
 606 481 619 467 624 419 c 2
 629 374 l 1
 654 378 l 2
 668 380 682 379 684 376 c 0
 690 366 662 326 648 326 c 0
 641 326 634 320 632 308 c 0
 630 297 629 288 629 287 c 0
 630 286 663 285 702 283 c 0
 741 281 775 279 776 279 c 0
 782 277 773 261 755 240 c 2
 733 215 l 1
 732 113 l 2
 732 22 731 10 719 2 c 0
 712 -3 700 -7 691 -7 c 0
 656 -7 682 -41 736 -66 c 0
 771 -82 775 -94 754 -115 c 0
 734 -134 726 -132 665 -92 c 0
 616 -60 604 -45 613 -28 c 0
 625 -7 622 -2 603 -4 c 0
 591 -5 569 -22 542 -49 c 0
 490 -102 458 -130 446 -130 c 0
 428 -130 438 -112 481 -72 c 0
 527 -28 535 -12 510 -15 c 0
 496 -17 495 -15 493 37 c 0
 491 95 493 90 447 125 c 0
 418 147 418 149 423 -50 c 0
 424 -94 423 -107 412 -121 c 0
 388 -153 383 -148 382 -94 c 0xcdb0
 380 67 375 166 368 174 c 0
 354 190 344 184 324 145 c 0
 297 92 236 27 225 38 c 0
 218 45 224 54 248 80 c 0
 289 124 314 175 319 223 c 0
 323 261 335 285 353 285 c 0
 363 285 364 275 355 231 c 0
 350 204 350 202 359 214 c 0
 366 223 368 240 367 264 c 2
 365 302 l 1
 320 300 l 2
 270 298 260 305 276 330 c 0
 286 344 292 347 321 347 c 0
 362 347 370 359 362 411 c 0
 358 438 359 448 368 460 c 0xe690
514 296 m 0
 506 327 432 328 416 298 c 0
 411 287 411 279 416 267 c 0
 420 258 423 244 423 235 c 0
 423 220 424 220 471 243 c 0
 519 266 521 269 514 296 c 0
593 299 m 0xd4b0
 593 315 591 319 580 319 c 0
 573 319 564 314 562 309 c 0
 556 293 564 279 580 279 c 0
 591 279 593 283 593 299 c 0xd4b0
725 224 m 0
 720 230 621 237 616 232 c 0
 606 221 621 217 672 218 c 0
 704 219 728 221 725 224 c 0
569 224 m 0
 567 228 560 231 555 231 c 0
 550 231 546 228 546 224 c 0
 546 221 552 217 560 217 c 0
 567 217 571 221 569 224 c 0
503 190 m 0
 519 212 515 215 484 203 c 0
 462 194 461 192 471 180 c 0
 483 166 486 167 503 190 c 0
687 148 m 0
 686 162 681 166 668 167 c 0
 634 169 620 163 620 145 c 0xc4d0
 620 130 623 129 655 129 c 0
 688 129 689 130 687 148 c 0
574 153 m 0
 573 160 565 163 552 163 c 0
 534 163 532 161 532 140 c 0
 532 118 532 117 554 121 c 0
 566 124 577 129 576 134 c 0
 575 139 574 148 574 153 c 0
689 68 m 0
 689 79 687 87 684 87 c 0
 681 86 666 84 651 82 c 0
 631 79 624 75 624 66 c 0
 624 56 630 53 657 51 c 0
 688 49 689 49 689 68 c 0
585 59 m 0
 587 73 584 74 559 74 c 0
 534 74 531 73 533 59 c 0
 534 46 539 44 559 44 c 0
 579 44 584 46 585 59 c 0
EndSplineSet
EndChar
StartChar: uni6C38
Encoding: 12618 27704 754
Width: 1000
VWidth: 0
Flags: W
HStem: 117 45<182.844 332.231>
VStem: 442 23<-137.845 -116.171>
LayerCount: 2
Back
Fore
SplineSet
435 473 m 0
 483 483 517 483 521 471 c 0
 527 457 498 419 486 426 c 0
 481 429 448 428 414 425 c 0
 360 420 351 420 339 430 c 0
 312 455 331 475 377 470 c 0
 392 469 418 470 435 473 c 0
459 341 m 0
 471 342 482 344 485 345 c 0
 492 346 490 321 482 313 c 0
 472 303 473 74 484 -8 c 0
 494 -82 490 -101 465 -131 c 0
 445 -155 428 -150 442 -124 c 0
 448 -113 449 -93 446 -60 c 0
 443 -33 439 16 438 49 c 0
 437 82 433 112 432 115 c 0
 430 118 431 121 435 124 c 0
 439 127 442 160 441 210 c 2
 439 291 l 1
 408 287 l 2
 391 285 367 278 354 273 c 0
 326 261 265 260 265 272 c 0
 265 289 289 304 313 304 c 0
 327 304 361 312 388 321 c 0
 416 331 448 340 459 341 c 0
661 287 m 0
 665 297 674 304 679 304 c 0
 706 304 654 215 597 165 c 2
 561 134 l 1
 609 90 l 2
 676 28 696 15 757 -1 c 0
 820 -17 823 -19 823 -35 c 0
 823 -69 775 -73 701 -45 c 0
 662 -31 646 -19 584 42 c 0
 544 81 506 120 500 130 c 0
 488 147 488 149 500 162 c 0
 511 174 514 173 526 166 c 0
 538 158 543 159 569 173 c 0
 600 191 653 246 653 261 c 0
 653 266 656 277 661 287 c 0
303 174 m 0
 315 177 335 180 349 179 c 0
 378 178 380 172 365 117 c 0
 341 29 266 -79 218 -96 c 0
 179 -109 186 -75 227 -49 c 0
 282 -16 333 64 333 116 c 0
 333 130 328 131 213 117 c 0
 184 114 177 114 177 122 c 0
 177 144 194 156 238 162 c 0
 262 165 292 171 303 174 c 0
EndSplineSet
EndChar
StartChar: uni6C5A
Encoding: 12664 27738 800
Width: 1000
VWidth: 0
Flags: W
HStem: 196 55<240.111 402.379> 237 52<442.694 530.846> 262 56<588 783.348>
VStem: 699 48<-14.8488 87.5177>
LayerCount: 2
Back
Fore
SplineSet
626 490 m 0x50
 649 500 665 497 670 485 c 0
 677 467 647 444 603 435 c 0
 565 427 563 426 573 415 c 0
 580 408 585 387 586 360 c 2
 588 318 l 1
 698 318 l 2
 759 319 810 316 812 313 c 0
 818 303 803 280 784 268 c 0
 770 259 762 259 735 264 c 0
 717 268 700 269 696 266 c 0
 693 263 675 261 658 262 c 0
 599 265 587 261 578 228 c 0
 568 189 573 178 603 173 c 0
 641 167 729 141 739 134 c 0
 744 130 747 111 747 85 c 0
 746 9 671 -171 643 -161 c 0
 628 -156 630 -137 648 -110 c 0
 674 -71 699 5 699 45 c 0
 699 80 700 79 671 90 c 0
 635 103 560 122 543 122 c 0
 527 122 523 133 530 163 c 0
 537 194 538 251 531 251 c 0xb0
 528 251 506 244 482 237 c 0
 432 220 421 227 438 260 c 0
 445 274 456 281 487 289 c 0
 508 295 530 301 535 302 c 0
 548 307 548 346 535 372 c 0
 530 384 530 390 538 403 c 0
 548 419 548 420 527 426 c 0
 503 433 498 446 512 465 c 0
 519 475 533 479 567 481 c 0
 591 482 618 487 626 490 c 0x50
250 395 m 0
 262 411 266 412 336 411 c 0
 403 410 410 409 412 397 c 0
 413 390 406 375 396 365 c 0
 382 350 376 348 369 354 c 0
 364 359 357 360 353 358 c 0
 341 350 257 352 247 360 c 0
 234 371 234 375 250 395 c 0
295 251 m 0
 390 263 422 251 400 212 c 0
 389 193 367 184 360 196 c 0
 357 200 336 200 303 196 c 0
 245 189 230 191 230 207 c 0
 230 229 255 246 295 251 c 0
250 40 m 0
 303 48 409 49 418 40 c 0
 426 32 422 1 411 -6 c 0
 407 -9 371 -10 332 -10 c 0
 293 -10 244 -14 224 -17 c 2
 187 -23 l 1
 192 -3 l 2
 199 26 209 33 250 40 c 0
EndSplineSet
EndChar
StartChar: uni6CF3
Encoding: 12619 27891 755
Width: 1000
VWidth: 0
Flags: W
HStem: -68 49<129.87 277.454> -35 50<781.363 876.288> 175 50<172.303 266.847> 175 40<364.853 468.645> 298 40<378.471 528.562> 306 48<173.144 322.787> 432 45<464.334 594.852>
VStem: 530 33<212.697 313> 538 43<-139.616 115.953>
LayerCount: 2
Back
Fore
SplineSet
464 467 m 0x02
 471 475 486 478 527 477 c 0
 556 476 584 476 589 475 c 0
 599 474 599 460 589 437 c 0
 580 417 586 418 484 432 c 0
 453 436 446 447 464 467 c 0x02
202 354 m 0x06
 271 361 303 359 315 345 c 0
 326 333 326 331 316 315 c 0
 306 299 302 300 269 303 c 0
 249 305 219 306 201 306 c 0
 168 306 166 309 173 337 c 0
 176 348 183 352 202 354 c 0x06
499 347 m 0
 514 352 535 357 545 358 c 2
 564 359 l 1
 563 300 l 2x4b
 562 218 563 216 571 216 c 0
 575 216 583 211 588 206 c 0
 594 201 602 196 606 196 c 0
 618 196 676 254 701 290 c 0
 713 307 724 317 725 313 c 0
 730 299 701 255 663 213 c 2
 626 172 l 1
 686 113 l 2
 748 52 772 35 835 15 c 0
 883 -1 886 -2 869 -24 c 0
 853 -44 834 -47 795 -35 c 0
 744 -19 722 -3 659 60 c 0
 564 155 568 152 573 104 c 0
 575 82 580 52 582 39 c 0
 584 26 584 -3 583 -25 c 0
 582 -47 581 -77 581 -90 c 0
 580 -117 562 -147 549 -143 c 0
 543 -141 540 -107 538 -14 c 0x4a80
 537 55 534 142 533 179 c 0
 532 216 531 262 530 280 c 2
 529 313 l 1
 501 308 l 2
 428 296 382 293 377 298 c 0
 373 302 375 311 380 322 c 0
 388 338 393 339 430 338 c 0x4b
 453 337 484 341 499 347 c 0
458 224 m 0
 518 238 526 226 499 165 c 0
 458 74 436 31 426 21 c 0
 419 15 414 7 414 4 c 0
 414 -6 360 -74 344 -86 c 0
 324 -100 313 -89 327 -68 c 0
 332 -59 347 -42 359 -29 c 0
 391 5 410 31 430 68 c 0
 452 110 476 175 469 176 c 0
 466 176 441 176 412 175 c 0
 383 174 359 177 359 180 c 0
 359 196 382 216 399 215 c 0x92
 409 215 436 219 458 224 c 0
230 225 m 0x22
 253 228 299 224 304 219 c 0
 305 218 303 204 298 189 c 0
 289 162 277 154 267 169 c 0
 264 173 244 176 216 175 c 0
 190 174 168 174 165 176 c 0
 163 179 165 188 169 198 c 0
 178 216 187 221 230 225 c 0x22
165 -19 m 0x82
 204 -5 300 -5 312 -19 c 0
 319 -28 320 -33 311 -48 c 0
 303 -62 296 -65 280 -64 c 0
 226 -59 151 -61 137 -68 c 0
 123 -75 121 -75 121 -64 c 0
 121 -45 135 -30 165 -19 c 0x82
EndSplineSet
EndChar
StartChar: uni6DB2
Encoding: 12629 28082 765
Width: 1000
VWidth: 0
Flags: W
HStem: -84 58<760.178 868.256> -31 59<140.558 336.441> 43 81<568.696 598.389> 168 39<159.255 262.734 288.984 310.965> 318 59<173.812 332.652> 359 55<516.178 592.622> 444 61<494.312 604.295> 456 39<498.859 533.063>
VStem: 263 34<145.19 160.604> 437 42<-135.407 180.112>
LayerCount: 2
Back
Fore
SplineSet
539 501 m 0x31c0
 546 503 565 504 581 505 c 0
 608 506 610 504 610 487 c 0
 610 467 593 444 578 444 c 0x32c0
 573 444 569 447 569 450 c 0
 569 453 553 455 534 454 c 0
 514 453 495 455 490 456 c 0
 478 461 494 492 511 495 c 0
 519 496 532 500 539 501 c 0x31c0
596 414 m 0x34c0
 597 415 624 415 657 414 c 0
 754 410 767 401 739 362 c 0
 725 343 725 343 696 354 c 0
 661 367 634 361 622 339 c 0
 599 297 533 222 503 204 c 0
 481 190 499 221 541 271 c 0
 601 343 606 354 590 359 c 0
 574 364 519 357 516 350 c 0
 515 347 502 321 488 292 c 0
 464 246 462 240 472 232 c 0
 482 225 482 204 479 73 c 0
 474 -94 467 -152 449 -165 c 0
 431 -179 424 -170 429 -135 c 0
 432 -118 435 -76 437 -43 c 0
 438 -9 442 19 443 20 c 0
 444 21 442 34 439 48 c 0
 436 62 437 97 441 130 c 0
 449 197 443 212 418 182 c 0
 385 142 326 84 319 84 c 0
 305 84 310 97 330 117 c 0
 391 179 436 237 457 283 c 0
 489 352 488 357 452 352 c 0
 436 350 414 345 404 341 c 0
 380 332 374 337 386 358 c 0
 399 383 449 400 542 407 c 0
 570 410 595 413 596 414 c 0x34c0
181 369 m 0
 193 381 212 382 309 377 c 0
 336 376 344 355 328 331 c 0
 318 317 312 315 298 318 c 0x38c0
 278 323 265 326 207 332 c 0
 164 337 158 346 181 369 c 0
621 311 m 0
 632 322 641 322 680 307 c 0
 710 295 709 276 677 212 c 0
 661 181 646 154 643 153 c 0
 640 152 637 146 637 141 c 0
 637 136 632 129 627 124 c 0
 611 110 615 94 643 66 c 0
 675 33 746 -4 819 -26 c 0
 850 -35 875 -46 875 -50 c 0
 875 -53 868 -64 861 -72 c 0
 848 -86 842 -87 815 -84 c 0xb0c0
 773 -79 692 -52 692 -45 c 0
 692 -42 677 -32 658 -22 c 0
 640 -12 614 6 601 19 c 0
 587 32 574 43 571 43 c 0
 568 43 556 31 543 17 c 0
 516 -12 494 -24 494 -10 c 0
 494 -5 505 12 519 26 c 0
 556 67 558 71 535 99 c 0
 510 130 503 159 518 174 c 0
 533 188 541 185 564 152 c 0
 575 137 586 124 589 124 c 0
 592 124 600 132 605 141 c 0
 615 156 615 158 595 179 c 0
 578 198 576 204 582 218 c 0
 590 236 602 237 621 223 c 0
 640 209 647 211 657 231 c 0
 667 252 660 262 630 274 c 0
 607 284 605 295 621 311 c 0
203 207 m 0
 233 209 252 209 290 207 c 0
 307 206 311 203 311 189 c 0
 311 179 308 172 304 172 c 0
 301 172 297 167 297 162 c 0
 297 157 291 149 284 145 c 0
 266 136 263 136 263 147 c 0
 263 160 222 171 186 168 c 0
 164 166 154 167 154 173 c 0
 155 192 173 205 203 207 c 0
167 18 m 0
 185 23 225 28 261 28 c 0
 313 28 326 26 335 16 c 0
 345 6 344 1 337 -13 c 0
 325 -35 318 -38 294 -31 c 0x70c0
 263 -22 167 -19 149 -26 c 0
 127 -34 119 -28 128 -8 c 0
 133 4 146 11 167 18 c 0
EndSplineSet
EndChar
StartChar: uni6E26
Encoding: 12594 28198 730
Width: 1000
VWidth: 0
Flags: W
HStem: -52 52<588.944 676.941> 238 54<617.125 725 765 799> 431 47<526.865 703.79>
VStem: 413 38<-138.16 183.389> 470 36<325.367 465.688> 476 43<269.934 474.544> 538 26<152.609 162.827> 681 40<5.16248 115.039> 813 27<62.1087 197.5>
LayerCount: 2
Back
Fore
SplineSet
474 461 m 0xfb80
 488 488 501 483 506 450 c 0xfb80
 513 398 522 279 519 274 c 0
 515 267 525 267 560 273 c 2
 586 277 l 1
 582 323 l 2
 579 356 581 371 588 381 c 0
 595 391 599 392 605 386 c 0
 611 381 620 381 642 391 c 0
 657 398 676 404 683 404 c 0
 704 405 719 416 710 425 c 0
 702 433 586 436 553 429 c 0
 542 427 529 428 524 431 c 0
 516 436 515 440 525 454 c 0
 538 474 555 476 675 478 c 2
 755 480 l 1
 755 457 l 2
 756 445 758 402 761 363 c 2
 765 292 l 1
 802 293 l 1
 840 294 l 1
 840 252 l 2
 841 207 846 113 856 10 c 0
 863 -73 846 -151 824 -137 c 0
 821 -135 816 -72 813 4 c 0
 810 80 807 164 804 190 c 2
 799 238 l 1
 707 236 l 2
 657 235 596 231 574 228 c 0
 533 221 481 214 461 214 c 0
 451 213 450 198 451 52 c 0
 452 -94 451 -111 440 -128 c 0
 416 -165 412 -149 413 -20 c 0
 414 47 411 129 407 162 c 0
 400 220 401 223 415 237 c 0
 429 251 430 251 438 240 c 0
 446 229 448 229 462 249 c 0
 476 267 477 277 476 324 c 0xf780
 475 353 473 392 470 410 c 0
 467 434 467 448 474 461 c 0xfb80
717 355 m 0
 712 368 641 359 622 343 c 0
 612 336 617 291 628 287 c 0
 632 286 657 285 681 287 c 2
 725 290 l 1
 723 318 l 2
 722 333 718 350 717 355 c 0
237 395 m 0
 264 407 323 406 333 393 c 0
 346 378 333 345 315 348 c 0
 308 349 279 350 250 350 c 0
 209 350 197 352 197 359 c 0
 197 370 213 383 237 395 c 0
220 206 m 0
 249 213 318 215 323 208 c 0
 328 198 319 161 309 157 c 0
 304 156 288 157 273 161 c 0
 255 166 235 166 215 161 c 0
 197 158 181 157 179 160 c 0
 173 171 198 200 220 206 c 0
538 157 m 0
 548 169 564 169 564 157 c 0
 564 149 570 149 602 156 c 0
 623 161 656 164 678 163 c 2
 717 163 l 1
 721 123 l 2
 726 69 717 -29 707 -41 c 0
 701 -48 684 -52 642 -52 c 0
 592 -52 585 -50 585 -39 c 0
 585 -15 601 -3 639 0 c 0
 659 2 676 4 677 5 c 0
 680 8 682 41 681 74 c 0
 680 106 678 109 659 116 c 0
 643 122 632 123 610 116 c 2
 581 108 l 1
 581 59 l 2
 581 20 579 7 567 -9 c 0
 559 -19 551 -26 549 -24 c 0
 547 -22 541 17 537 63 c 0
 531 128 532 150 538 157 c 0
275 -5 m 0
 374 10 409 -3 376 -44 c 0
 365 -56 355 -58 302 -59 c 0
 239 -60 175 -67 155 -75 c 0
 145 -78 142 -77 142 -67 c 0
 142 -50 172 -18 188 -17 c 0
 204 -16 227 -12 275 -5 c 0
EndSplineSet
EndChar
StartChar: uni6EA2
Encoding: 12398 28322 696
Width: 1000
VWidth: 0
Flags: W
HStem: -98 29<356.1 415.09> 88 46<457.737 491.213 687.867 778.789> 156 50<234.125 351> 289 57<244.181 383.953>
VStem: 423 40<-43.6804 87.9539> 646 32<-39.5833 12>
LayerCount: 2
Back
Fore
SplineSet
477 433 m 0
 484 440 503 445 503 438 c 0
 503 437 490 403 475 365 c 0
 460 326 448 294 448 291 c 0
 448 289 464 293 484 300 c 0
 503 307 542 315 569 317 c 0
 596 319 618 323 618 325 c 0
 618 326 606 343 591 361 c 0
 560 400 559 405 575 427 c 2
 585 442 l 1
 617 416 l 2
 635 402 652 386 657 380 c 0
 662 374 686 356 710 340 c 0
 755 311 765 292 746 273 c 0
 735 262 724 263 696 276 c 0
 674 287 671 287 657 273 c 0
 646 263 639 261 632 265 c 0
 616 275 508 273 476 261 c 0
 450 252 448 252 448 263 c 0
 447 276 400 226 369 182 c 2
 351 156 l 1
 291 156 l 2
 237 156 231 157 231 168 c 0
 231 194 245 201 305 206 c 0
 349 209 367 215 378 225 c 0
 396 243 459 369 465 401 c 0
 468 414 474 428 477 433 c 0
247 329 m 0
 257 345 262 347 304 346 c 0
 361 345 383 339 386 323 c 0
 387 317 383 305 376 298 c 0
 365 286 359 285 309 289 c 0
 244 294 230 304 247 329 c 0
472 210 m 0
 488 237 503 246 503 230 c 0
 503 220 483 184 467 167 c 0
 445 143 455 132 496 134 c 0
 550 137 584 143 584 149 c 0
 584 152 577 164 567 174 c 0
 547 196 546 204 563 225 c 2
 576 241 l 1
 600 215 l 2
 613 201 630 185 639 180 c 0
 678 158 715 141 736 138 c 0
 790 129 789 129 781 113 c 0
 769 91 761 88 726 88 c 0
 688 88 687 84 682 12 c 2
 678 -39 l 1
 738 -44 l 2
 824 -51 840 -63 806 -96 c 0
 794 -106 785 -110 777 -107 c 0
 746 -95 547 -90 430 -98 c 0
 368 -102 353 -101 353 -94 c 0
 353 -80 367 -69 385 -69 c 0
 394 -69 407 -63 414 -56 c 0
 426 -44 426 -35 423 28 c 0
 421 67 418 100 417 101 c 0
 416 103 405 96 395 86 c 0
 373 64 346 61 346 80 c 0
 346 87 352 94 362 97 c 0
 380 101 447 170 472 210 c 0
646 93 m 0
 645 103 604 100 599 89 c 0
 596 83 591 51 590 18 c 2
 588 -41 l 1
 617 -41 l 1
 646 -41 l 1
 646 -1 l 2
 647 51 647 86 646 93 c 0
564 81 m 0
 567 88 562 92 549 93 c 0
 539 94 530 93 528 90 c 0
 525 85 520 2 522 -26 c 0
 523 -38 527 -42 539 -40 c 0
 553 -38 554 -34 557 16 c 0
 560 46 563 76 564 81 c 0
493 76 m 0
 496 84 494 88 484 88 c 0
 471 88 452 72 458 67 c 0
 459 65 462 39 463 8 c 0
 464 -42 469 -58 478 -43 c 0
 480 -40 483 -15 485 13 c 0
 488 41 491 69 493 76 c 0
244 12 m 0
 286 24 331 26 360 16 c 0
 376 11 379 -17 365 -26 c 0
 360 -29 325 -31 288 -32 c 0
 251 -32 211 -34 199 -37 c 0
 174 -43 171 -38 188 -16 c 0
 195 -6 217 4 244 12 c 0
EndSplineSet
EndChar
StartChar: uni6F14
Encoding: 12649 28436 785
Width: 1000
VWidth: 0
Flags: W
HStem: -138 74<714.858 778.265> -100 56<232.714 360.112> -64 46<337.205 436.909> 14 44<503.146 513.276> 94 46<506.172 564.837> 128 55<256.548 409.174> 313 54<256.731 427.904> 366 54<648 734> 428 51<539.2 580.667>
VStem: 425 44<245.024 305.951 367.712 403.625> 663 31<58.3428 86.4396> 670 34<139 162> 734 43<302.991 368>
LayerCount: 2
Back
Fore
SplineSet
534 459 m 2x11c8
 542 479 l 1
 590 475 l 2
 648 470 657 465 652 439 c 2
 648 420 l 1
 712 421 l 1
 775 422 l 1
 777 379 l 2
 778 355 775 322 771 306 c 0
 752 241 715 228 731 291 c 0
 735 307 737 332 736 345 c 2
 734 368 l 1
 680 366 l 2
 650 365 606 360 584 357 c 0
 498 343 486 342 486 352 c 0
 486 372 507 392 527 392 c 0
 538 392 553 395 562 398 c 0
 571 401 586 407 598 409 c 0
 616 413 616 415 606 420 c 0
 599 424 588 424 581 422 c 0
 574 420 560 423 548 428 c 0
 529 438 528 441 534 459 c 2x11c8
443 400 m 0
 463 422 472 404 469 351 c 0
 466 286 460 262 445 242 c 0
 425 216 416 231 425 275 c 0
 434 323 433 330 421 314 c 0
 416 307 409 303 406 305 c 0
 403 307 371 311 336 313 c 0
 264 318 247 325 259 352 c 0
 266 367 269 368 349 367 c 0x12c8
 417 367 431 368 431 377 c 0
 431 382 436 393 443 400 c 0
567 316 m 0
 617 324 665 322 668 311 c 0
 669 307 667 294 663 282 c 0x90e8
 656 266 651 264 641 267 c 0
 634 269 620 269 611 267 c 0
 597 264 594 258 596 243 c 0
 598 223 602 223 656 235 c 0
 701 245 705 237 704 158 c 0x90d8
 703 122 701 85 697 76 c 0
 694 67 693 58 694 56 c 0
 699 52 685 25 671 9 c 0
 663 -1 658 -1 650 6 c 0
 641 13 641 12 645 5 c 0
 651 -5 741 -64 750 -64 c 0
 753 -64 763 -71 773 -80 c 0
 787 -94 790 -100 786 -116 c 0
 783 -127 775 -137 770 -138 c 0x90e8
 750 -142 681 -100 637 -59 c 0
 597 -22 594 -17 602 -4 c 0
 613 14 612 15 576 20 c 0
 552 23 546 23 543 13 c 0
 523 -52 410 -180 411 -137 c 0
 411 -125 418 -118 447 -96 c 0
 461 -86 472 -73 472 -70 c 0
 472 -66 483 -49 496 -32 c 0
 525 5 526 19 504 14 c 0
 492 11 486 14 476 28 c 0
 466 44 465 55 468 100 c 0
 471 132 470 158 466 166 c 0
 453 190 477 226 494 209 c 0
 498 205 509 205 522 210 c 0
 534 213 547 217 551 218 c 0
 555 219 556 230 555 244 c 0
 552 267 552 268 526 265 c 0
 502 262 499 263 499 275 c 0
 499 295 523 309 567 316 c 0
668 162 m 2
 666 182 664 184 642 186 c 0
 611 188 600 180 603 160 c 0
 605 146 608 143 637 141 c 2
 670 139 l 1x10d8
 668 162 l 2
566 156 m 0
 565 167 560 172 544 173 c 0
 521 175 504 167 502 151 c 0
 501 142 508 140 535 140 c 0x18c8
 566 140 568 142 566 156 c 0
566 88 m 0
 561 93 523 97 512 94 c 0
 499 91 496 86 503 69 c 0
 506 62 516 58 533 58 c 0
 553 58 561 62 564 73 c 0
 567 80 567 87 566 88 c 0
642 88 m 0
 613 93 603 93 598 86 c 0
 591 74 615 58 639 58 c 0
 657 58 663 61 663 71 c 0x10e8
 663 80 656 85 642 88 c 0
316 183 m 0x14c8
 398 188 408 187 410 169 c 0
 415 136 396 127 324 128 c 0
 259 129 258 130 256 148 c 0
 253 172 266 180 316 183 c 0x14c8
387 -18 m 0x30c8
 437 -8 445 -8 445 -20 c 0
 445 -36 425 -64 414 -64 c 0x30c8
 409 -64 381 -71 352 -81 c 0
 300 -98 240 -107 222 -100 c 0
 196 -90 225 -41 256 -44 c 0x50c8
 277 -46 337 -36 346 -29 c 0
 350 -26 369 -21 387 -18 c 0x30c8
EndSplineSet
EndChar
StartChar: uni706B
Encoding: 12880 28779 854
Width: 1000
VWidth: 0
Flags: W
VStem: 590 49<265.013 385.547>
LayerCount: 2
Back
Fore
SplineSet
450 439 m 0
 464 461 472 460 486 439 c 0
 499 420 504 336 495 306 c 0
 487 277 474 220 471 196 c 0
 469 184 464 166 458 157 c 0
 450 145 449 137 454 127 c 0
 458 119 464 114 467 114 c 0
 470 114 489 97 510 77 c 0
 531 57 559 35 574 27 c 0
 589 19 619 3 642 -9 c 0
 693 -36 755 -58 786 -58 c 0
 815 -58 817 -71 792 -91 c 0
 750 -125 661 -100 569 -30 c 0
 550 -16 527 0 518 5 c 0
 509 10 486 28 467 46 c 0
 448 64 427 79 421 79 c 0
 409 78 385 49 351 -5 c 0
 328 -41 236 -118 211 -121 c 0
 179 -124 185 -108 223 -83 c 0
 315 -23 406 91 432 179 c 0
 464 292 468 336 450 390 c 0
 440 420 440 423 450 439 c 0
595 369 m 0
 617 403 639 388 639 339 c 0
 639 301 603 224 574 201 c 0
 553 185 542 189 558 207 c 0
 592 245 607 311 590 338 c 0
 584 348 585 355 595 369 c 0
238 336 m 0
 246 368 268 359 288 314 c 0
 298 292 309 272 312 268 c 0
 315 265 324 252 332 242 c 0
 340 231 353 219 363 216 c 0
 386 207 390 191 372 172 c 2
 356 155 l 1
 330 168 l 2
 316 176 300 189 296 198 c 0
 291 206 282 217 275 222 c 0
 269 226 261 240 258 252 c 0
 256 264 249 284 243 296 c 0
 237 309 235 325 238 336 c 0
EndSplineSet
EndChar
StartChar: uni708E
Encoding: 12650 28814 786
Width: 1000
VWidth: 0
Flags: W
HStem: -92 57<588.892 753.272> 151 25<264.247 309.38>
VStem: 467 34<342.202 450.17> 553 54<337.199 430.839>
LayerCount: 2
Back
Fore
SplineSet
472 443 m 0
 487 461 500 455 501 428 c 0
 502 383 499 372 472 314 c 0
 450 270 435 248 397 212 c 0
 356 173 350 166 357 155 c 0
 365 142 420 106 431 106 c 0
 442 106 444 126 437 148 c 0
 431 166 432 170 444 182 c 2
 457 196 l 1
 469 179 l 2
 479 163 479 158 469 119 c 0
 464 96 455 73 452 69 c 0
 443 59 449 53 464 57 c 0
 486 62 509 104 508 139 c 0
 508 157 510 175 514 180 c 0
 526 194 539 189 544 170 c 0
 549 150 518 69 502 63 c 0
 483 56 493 34 522 17 c 0
 574 -13 631 -31 688 -35 c 0
 756 -40 764 -43 754 -69 c 0
 749 -85 743 -89 714 -92 c 0
 633 -103 513 -62 451 -3 c 2
 425 23 l 1
 406 -5 l 2
 389 -29 352 -62 293 -103 c 0
 264 -123 245 -125 243 -108 c 0
 242 -98 251 -89 283 -71 c 0
 331 -44 411 31 411 48 c 0
 411 54 405 60 399 63 c 0
 377 71 323 121 323 133 c 0
 323 139 326 148 331 153 c 0
 338 160 337 161 323 157 c 0
 313 154 295 152 282 151 c 0
 252 150 249 166 278 176 c 0
 354 199 420 250 444 306 c 0
 460 343 470 394 467 414 c 0
 465 424 467 438 472 443 c 0
553 418 m 0
 560 430 567 432 583 431 c 0
 601 430 606 426 607 410 c 0
 610 383 582 320 563 310 c 0
 542 299 535 305 548 325 c 0
 553 334 562 351 566 363 c 0
 572 382 571 385 559 393 c 0
 547 401 546 404 553 418 c 0
320 396 m 0
 334 417 339 416 353 394 c 0
 360 383 379 362 396 346 c 0
 427 317 426 318 414 304 c 0
 399 287 369 286 355 302 c 0
 349 308 337 329 327 347 c 0
 311 378 310 381 320 396 c 0
461 265 m 0
 466 287 474 287 510 267 c 0
 532 253 594 231 661 211 c 0
 673 208 671 197 653 177 c 0
 637 159 636 158 608 167 c 0
 569 179 500 212 476 231 c 0
 460 244 458 251 461 265 c 0
EndSplineSet
EndChar
StartChar: uni70BA
Encoding: 12377 28858 675
Width: 1000
VWidth: 0
Flags: W
HStem: 290 52<442.66 460> 291 44<522.803 566.941>
VStem: 416 33<-58.0781 50.7387> 493 40<12.0625 60.7656> 505 32<350.975 461.936>
LayerCount: 2
Back
Fore
SplineSet
516 458 m 0xa8
 523 465 532 470 535 471 c 0
 547 471 548 436 537 405 c 0
 517 346 517 344 541 339 c 0
 553 337 575 335 589 335 c 0x68
 613 335 616 333 616 319 c 0
 616 310 612 301 609 300 c 0
 606 299 602 287 599 274 c 2
 594 250 l 1
 627 248 l 2
 645 247 662 244 665 241 c 0
 669 237 667 226 656 182 c 0
 652 164 658 158 680 158 c 0
 692 158 712 155 724 151 c 0
 744 144 745 142 745 107 c 0
 745 87 742 68 738 66 c 0
 735 64 731 50 731 35 c 0
 731 -19 663 -125 621 -136 c 0
 601 -141 597 -121 616 -108 c 0
 670 -71 695 -25 702 53 c 0
 707 105 702 110 614 115 c 0
 579 117 540 120 527 121 c 0
 514 122 475 125 440 127 c 2
 377 131 l 1
 325 80 l 2
 296 52 269 29 264 29 c 0
 247 29 255 46 287 77 c 0
 326 114 405 202 419 226 c 0
 424 236 436 254 445 268 c 2
 460 294 l 1
 406 290 l 2
 367 287 350 289 346 295 c 0
 343 300 345 301 350 298 c 0
 355 295 357 298 356 305 c 0
 354 317 362 324 386 331 c 0
 398 334 398 338 382 358 c 0
 368 376 365 385 368 401 c 0
 373 430 388 425 428 379 c 0
 446 359 467 342 474 342 c 0
 493 342 509 380 505 415 c 0
 502 441 504 448 516 458 c 0xa8
567 281 m 0
 566 285 548 290 528 291 c 0
 499 293 491 291 480 279 c 0
 462 259 463 256 487 251 c 0
 528 243 554 246 561 261 c 0
 565 268 568 278 567 281 c 0
590 199 m 0
 572 199 528 201 492 203 c 0
 430 207 426 208 419 194 c 0
 406 170 410 165 444 166 c 0
 462 167 509 165 548 164 c 2
 619 162 l 1
 621 181 l 2
 623 199 622 199 590 199 c 0
341 58 m 0
 351 76 352 77 362 68 c 0
 371 58 370 52 354 8 c 0
 338 -40 308 -81 298 -71 c 0
 295 -68 301 -49 311 -28 c 0
 321 -8 330 16 330 23 c 0
 330 30 335 46 341 58 c 0
602 57 m 0
 613 76 623 73 648 43 c 0
 673 12 673 13 658 -5 c 0
 641 -24 628 -22 611 4 c 0
 593 29 592 38 602 57 c 0
409 50 m 0
 424 67 433 59 449 15 c 0
 463 -21 464 -36 452 -50 c 0
 439 -66 426 -61 416 -36 c 0
 398 8 395 35 409 50 c 0
500 46 m 0
 508 67 529 67 533 46 c 0
 534 39 542 24 552 13 c 2
 569 -7 l 1
 550 -26 l 2
 540 -37 529 -44 526 -42 c 0
 521 -39 493 18 493 25 c 0x30
 493 26 497 36 500 46 c 0
EndSplineSet
EndChar
StartChar: uni70CF
Encoding: 12584 28879 720
Width: 1000
VWidth: 0
Flags: W
HStem: -89 89<624.75 661.586> 124 50<399.963 642>
VStem: 232 45<-142.254 -113.538 -81.3077 -7.99798> 350 41<84.2114 118.037> 602 82<-66.1685 -22.9725> 729 44<-86.7678 32.9285>
LayerCount: 2
Back
Fore
SplineSet
486 500 m 0
 512 526 513 506 488 467 c 0
 474 446 459 423 454 417 c 0
 449 412 444 403 444 400 c 0
 444 397 483 397 532 400 c 0
 638 405 645 403 644 352 c 0
 643 311 625 239 613 227 c 0
 607 220 580 216 526 215 c 0
 483 214 439 211 429 208 c 0
 413 204 410 206 410 218 c 0
 410 238 436 249 516 263 c 0
 554 270 589 276 594 278 c 0
 604 281 605 339 595 345 c 0
 589 349 480 350 420 347 c 2
 400 345 l 1
 399 252 l 2
 398 184 400 159 406 162 c 0
 415 168 416 168 550 174 c 0
 662 179 669 178 652 143 c 2
 642 123 l 1
 540 124 l 2
 406 124 392 121 391 95 c 0
 390 77 392 75 405 82 c 0
 427 94 638 103 697 95 c 0
 765 85 773 78 773 20 c 0
 773 -29 764 -64 735 -122 c 0
 719 -155 687 -185 679 -176 c 0
 677 -174 688 -148 702 -119 c 0
 725 -73 729 -60 729 -20 c 0
 729 5 727 28 724 31 c 0
 719 35 657 48 640 49 c 0
 556 49 440 45 414 40 c 0
 375 33 367 37 377 55 c 0
 384 69 383 69 367 58 c 0
 344 43 342 49 350 143 c 0
 358 244 353 303 335 326 c 0
 323 342 322 346 331 358 c 0
 336 366 347 373 355 372 c 0
 365 372 387 388 421 422 c 0
 449 449 472 476 472 479 c 0
 472 483 478 492 486 500 c 0
377 -13 m 2
 392 2 l 1
 406 -15 l 2
 414 -25 431 -46 443 -62 c 0
 468 -93 468 -106 442 -118 c 0
 421 -127 412 -122 383 -78 c 0
 358 -42 357 -33 377 -13 c 2
613 -15 m 0
 618 -7 625 0 627 -0 c 0
 637 0 684 -38 684 -46 c 0
 684 -59 664 -89 655 -89 c 0
 645 -89 602 -48 602 -38 c 0
 602 -34 607 -23 613 -15 c 0
232 -18 m 0
 252 6 270 -9 277 -57 c 0
 282 -93 267 -140 247 -148 c 0
 231 -154 222 -141 232 -124 c 0
 240 -110 239 -88 229 -46 c 0
 226 -35 227 -24 232 -18 c 0
506 -20 m 0
 517 -1 535 -5 560 -31 c 0
 582 -54 583 -56 575 -75 c 0
 561 -107 547 -108 522 -79 c 0
 498 -52 495 -41 506 -20 c 0
EndSplineSet
EndChar
StartChar: uni7114
Encoding: 12651 28948 787
Width: 1000
VWidth: 0
Flags: W
HStem: 63 43<641.016 727.597> 173 37<633.328 748.889> 360 64<611.168 673.189>
VStem: 357 41<157.709 390.854> 442 31<206.033 251.616> 495 42<-103.837 -26.9237> 600 39<-30.8931 63.2841 102 173.644> 758 37<-26 167.875>
LayerCount: 2
Back
Fore
SplineSet
587 450 m 0
 602 467 609 465 609 441 c 0
 609 423 610 421 622 424 c 0
 632 427 644 424 658 412 c 0
 670 403 692 392 706 388 c 0
 720 383 734 375 735 370 c 0
 737 365 728 346 716 328 c 0
 703 310 689 287 684 277 c 0
 679 267 668 251 659 243 c 0
 644 229 644 229 637 243 c 0
 632 253 632 260 642 272 c 0
 649 281 660 299 666 311 c 0
 678 333 678 335 666 347 c 0
 660 354 650 360 645 360 c 0
 640 360 628 368 616 378 c 2
 595 395 l 1
 586 372 l 2
 570 335 515 266 493 254 c 0
 482 249 473 239 473 232 c 0
 473 217 460 203 447 203 c 0
 440 203 439 208 442 222 c 0
 445 232 448 261 448 286 c 0
 449 334 457 351 475 344 c 0
 482 341 486 330 486 308 c 2
 486 276 l 1
 501 289 l 2
 521 307 568 389 573 416 c 0
 575 428 582 443 587 450 c 0
358 436 m 0
 380 477 398 402 398 268 c 0
 399 211 394 157 389 135 c 2
 380 98 l 1
 439 59 l 2
 508 12 506 9 504 133 c 0
 503 218 509 243 529 235 c 0
 547 228 549 144 537 -40 c 0
 534 -83 521 -110 501 -110 c 0
 494 -110 492 -100 495 -54 c 0
 499 -2 499 1 489 -13 c 0
 484 -21 474 -28 469 -28 c 0
 457 -28 398 13 398 20 c 0
 398 23 389 28 379 33 c 0
 363 40 359 39 352 29 c 0
 347 22 343 12 343 7 c 0
 343 -1 335 -19 317 -52 c 0
 284 -113 258 -133 221 -126 c 0
 188 -119 196 -106 241 -93 c 0
 258 -88 270 -77 284 -54 c 0
 302 -26 346 92 354 132 c 0
 361 164 363 312 357 365 c 0
 353 404 353 427 358 436 c 0
272 312 m 0
 280 326 296 319 303 301 c 0
 307 290 319 263 330 241 c 0
 347 208 349 200 342 190 c 0
 318 160 311 162 292 205 c 0
 275 244 265 300 272 312 c 0
608 219 m 0
 618 230 619 231 626 221 c 0
 632 212 650 210 717 210 c 2
 799 210 l 1
 794 182 l 2
 787 145 788 98 795 -5 c 0
 800 -77 799 -88 789 -98 c 0
 774 -113 761 -112 757 -97 c 0
 754 -88 745 -83 727 -80 c 0
 684 -73 626 -75 617 -84 c 0
 613 -88 607 -90 606 -88 c 0
 604 -86 601 -20 600 60 c 0
 598 185 598 209 608 219 c 0
749 168 m 0
 747 169 722 172 692 173 c 0
 631 176 630 173 635 127 c 2
 637 102 l 1
 681 106 l 2
 718 109 725 109 728 99 c 0
 735 80 711 59 687 63 c 0
 648 69 639 60 639 14 c 0
 639 -9 643 -29 646 -31 c 0
 650 -32 677 -31 706 -29 c 2
 758 -26 l 1
 755 69 l 2
 753 121 750 166 749 168 c 0
EndSplineSet
EndChar
StartChar: uni7159
Encoding: 12652 29017 788
Width: 1000
VWidth: 0
Flags: W
HStem: 59 61<618.844 723.347> 164 57<514.494 539.711> 324 56<672 724> 392 68<658.91 701.047> 392 60<470.748 528.124>
VStem: 239 63<162.652 301.957> 310 49<100.375 366.334> 391 44<181.554 364.458> 391 33<174.828 363.4> 467 45<222.255 309.761> 541 48<228.09 310.406> 576 37<123.906 163.883> 603 49<228.106 316.899>
LayerCount: 2
Back
Fore
SplineSet
307 462 m 0xe640
 322 488 334 486 342 456 c 0
 352 414 364 204 359 151 c 0
 356 115 357 104 363 107 c 0
 371 112 456 44 468 25 c 0
 476 12 458 -21 444 -24 c 0
 437 -25 412 -10 387 11 c 0
 362 32 340 50 337 50 c 0
 334 49 320 23 306 -9 c 0
 279 -65 223 -136 198 -145 c 0
 175 -152 184 -130 228 -72 c 0
 257 -34 277 2 291 39 c 0
 310 91 311 99 310 194 c 0
 309 249 305 327 302 368 c 0
 297 433 297 446 307 462 c 0xe640
555 452 m 0xee50
 583 455 631 459 660 460 c 0xf650
 711 461 713 460 713 444 c 0
 713 420 686 391 670 396 c 0
 660 399 657 397 659 391 c 0
 661 385 673 382 689 381 c 0
 703 381 719 380 724 380 c 0
 734 379 733 210 722 191 c 0
 713 175 667 158 643 163 c 0
 627 166 622 164 617 148 c 0
 613 138 612 128 613 127 c 0
 616 124 643 122 711 120 c 0
 736 119 740 116 740 102 c 0
 740 93 733 79 724 71 c 0
 710 58 701 56 672 59 c 0
 627 63 618 56 615 11 c 2
 613 -25 l 1
 641 -29 l 2
 673 -34 764 -52 787 -59 c 0
 813 -67 820 -83 808 -106 c 0
 796 -127 786 -129 733 -117 c 0
 712 -113 687 -106 675 -104 c 0
 583 -83 437 -84 395 -104 c 0
 363 -120 350 -112 362 -84 c 0
 375 -55 453 -29 535 -24 c 2
 565 -22 l 1
 565 19 l 2
 565 56 564 60 552 59 c 0
 491 51 466 51 463 57 c 0
 457 66 472 104 482 105 c 0
 486 105 495 107 500 108 c 0
 505 109 523 112 538 115 c 0
 568 120 576 128 576 152 c 0
 576 168 575 168 525 164 c 0
 465 160 470 152 467 262 c 0
 466 328 466 335 480 350 c 0
 494 365 496 365 504 355 c 0
 514 343 522 350 530 377 c 0
 535 391 534 392 501 392 c 0
 462 392 455 397 467 422 c 0
 475 442 479 442 555 452 c 0xee50
600 385 m 0
 600 390 595 396 591 398 c 0
 586 399 582 394 582 385 c 0
 582 376 586 372 591 374 c 0
 595 375 600 380 600 385 c 0
685 272 m 0
 685 319 684 324 672 324 c 0
 656 324 649 305 652 258 c 0xe648
 654 229 656 224 670 222 c 0
 684 220 685 223 685 272 c 0
541 261 m 0xe660
 541 306 535 319 521 310 c 0
 513 305 511 294 512 269 c 0
 514 230 518 221 532 221 c 0
 539 221 541 231 541 261 c 0xe660
603 272 m 0xe668
 603 297 600 317 596 317 c 0
 593 317 589 301 589 283 c 0
 589 265 587 245 585 239 c 0
 582 231 584 228 592 228 c 0
 601 228 603 236 603 272 c 0xe668
391 344 m 0xe740
 402 371 423 371 428 346 c 0
 430 335 433 304 435 276 c 0xe740
 438 231 438 221 424 198 c 0xe6c0
 399 156 390 158 391 209 c 0
 392 232 390 268 387 288 c 0
 384 312 386 331 391 344 c 0xe740
239 313 m 0
 245 326 251 330 263 329 c 0
 276 327 278 322 282 286 c 0
 285 263 291 238 295 229 c 0
 298 220 302 208 302 201 c 0
 302 188 277 152 267 152 c 0
 250 152 227 286 239 313 c 0
EndSplineSet
EndChar
StartChar: uni733F
Encoding: 12654 29503 790
Width: 1000
VWidth: 0
Flags: W
HStem: -84 56<706.109 792.724> 115 47<543.148 600.622> 203 38<494.252 590.22> 270 47<557.116 665.754> 366 51<443.972 518.993 558.419 636.542>
VStem: 322 68<311.062 339.901> 485 39<-94.5368 22.9879> 519 38<415.276 474.418>
LayerCount: 2
Back
Fore
SplineSet
531 468 m 0xfd
 537 475 545 480 548 480 c 0
 553 480 554 477 556 436 c 2
 557 415 l 1
 595 417 l 2
 639 420 647 413 635 384 c 0
 628 368 622 365 608 366 c 0
 581 367 562 359 558 343 c 0
 555 335 555 325 557 322 c 0xfd
 559 319 592 316 629 317 c 0
 670 318 699 316 704 311 c 0
 723 292 686 245 666 262 c 0
 661 266 640 269 620 270 c 0
 570 271 416 264 412 260 c 0
 410 258 407 217 406 169 c 0
 405 121 401 70 397 55 c 0
 390 28 388 -3 393 -8 c 0
 394 -10 410 1 428 15 c 0
 484 58 516 103 495 111 c 0
 489 113 481 110 478 105 c 0
 469 91 464 101 461 134 c 0
 460 150 456 173 454 185 c 0
 452 197 455 214 459 224 c 0
 467 242 467 242 546 241 c 0
 590 240 628 237 633 234 c 0
 647 222 643 161 627 134 c 0
 613 112 612 111 580 115 c 0
 559 118 546 117 543 112 c 0
 537 102 573 65 588 65 c 0
 595 65 613 81 629 99 c 0
 656 130 669 140 669 128 c 0
 669 125 657 106 641 86 c 0
 626 66 615 47 616 42 c 0
 618 38 639 25 663 13 c 0
 703 -7 716 -11 774 -28 c 0
 799 -35 803 -54 784 -74 c 0
 771 -88 767 -89 742 -84 c 0
 698 -74 635 -45 596 -16 c 0
 576 -1 557 10 552 9 c 0
 547 8 543 14 543 21 c 0
 543 34 535 45 525 45 c 0
 523 45 522 19 524 -12 c 0
 527 -62 525 -70 512 -87 c 0
 504 -97 494 -105 491 -105 c 0
 488 -105 485 -75 485 -40 c 0xfe
 485 -5 482 24 479 24 c 0
 476 24 464 16 453 5 c 0
 426 -20 386 -51 377 -51 c 0
 373 -51 362 -66 352 -84 c 0
 335 -118 308 -146 291 -146 c 0
 275 -146 280 -125 301 -106 c 0
 322 -86 339 -54 346 -17 c 0
 353 19 367 152 364 160 c 0
 361 167 315 112 315 102 c 0
 315 92 250 19 232 8 c 0
 193 -16 197 1 242 50 c 0
 286 98 314 138 337 187 c 0
 353 220 355 229 350 262 c 0
 343 320 338 322 306 281 c 0
 274 241 220 187 213 187 c 0
 210 187 206 192 204 197 c 0
 201 203 210 216 225 230 c 0
 267 269 322 332 322 344 c 0
 322 356 284 388 252 404 c 0
 232 415 229 425 242 438 c 0
 254 450 264 448 310 426 c 0
 332 415 351 405 352 405 c 0
 353 405 356 414 359 425 c 0
 362 437 368 446 378 449 c 0
 385 451 394 452 395 451 c 0
 396 450 391 433 386 415 c 0
 374 377 373 346 383 340 c 0
 387 338 390 329 390 320 c 0
 390 312 395 302 401 300 c 0
 411 296 502 307 513 314 c 0
 516 316 519 328 519 341 c 0
 519 364 519 364 489 364 c 0
 436 364 425 376 451 404 c 0
 463 416 470 418 492 415 c 0
 519 410 519 410 519 432 c 0
 519 445 524 461 531 468 c 0xfd
591 197 m 0
 575 203 517 207 503 203 c 0
 494 201 492 194 493 182 c 0
 495 166 499 164 526 162 c 0
 572 159 601 166 601 180 c 0
 601 187 596 194 591 197 c 0
EndSplineSet
EndChar
StartChar: uni738B
Encoding: 12838 29579 812
Width: 1000
VWidth: 0
Flags: W
HStem: 152 44<336.125 423.308> 156 54<492.063 638.27> 354 28<342 563>
VStem: 443 49<211.219 343.734> 448 42<15 156>
LayerCount: 2
Back
Fore
SplineSet
531 407 m 0xb0
 533 409 556 408 582 406 c 0
 609 404 635 403 642 402 c 0
 657 402 657 387 641 367 c 0
 629 352 624 352 563 354 c 0
 482 356 481 355 487 271 c 0
 490 239 491 214 492 213 c 0xb0
 493 212 516 211 545 210 c 0
 623 208 640 204 640 190 c 0
 640 163 623 156 555 156 c 2
 490 156 l 1
 491 85 l 1
 493 15 l 1
 592 18 l 2
 679 20 784 11 784 1 c 0
 784 -1 779 -12 773 -24 c 2
 762 -45 l 1
 720 -39 l 2
 650 -30 415 -35 377 -47 c 0
 331 -60 222 -79 217 -74 c 0
 215 -72 217 -63 222 -54 c 0
 234 -30 258 -22 353 -9 c 0
 380 -5 415 2 428 6 c 2
 452 13 l 1
 450 59 l 2
 449 84 448 116 448 130 c 2
 448 156 l 1x68
 387 152 l 2
 334 148 325 149 325 158 c 0
 325 172 340 180 398 196 c 2
 445 209 l 1
 443 262 l 2
 440 337 434 349 406 344 c 0
 394 342 375 339 363 337 c 0
 328 331 284 341 284 354 c 0
 284 375 300 382 342 382 c 0
 365 382 396 386 411 389 c 0
 426 392 458 398 483 400 c 0
 508 403 529 406 531 407 c 0xb0
EndSplineSet
EndChar
StartChar: uni73C2
Encoding: 12881 29634 855
Width: 1000
VWidth: 0
Flags: W
HStem: 0 44<253.962 369.796> 136 40<518.769 596.25> 196 46<289.003 364.46> 201 50<421.64 455.805> 270 43<520.904 603.767> 351 48<280.225 351> 366 39<404.958 474.751> 390 63<534.056 711.432>
VStem: 373 46<55.1721 197.969> 479 40<149.949 271.92> 709 40<-4.12509 314.284>
LayerCount: 2
Back
Fore
SplineSet
692 450 m 0xc9e0
 693 451 703 453 714 453 c 0
 728 453 733 449 733 440 c 0
 733 409 685 395 564 390 c 0
 510 389 495 395 509 417 c 0
 518 431 534 435 638 443 c 0
 666 445 691 449 692 450 c 0xc9e0
443 405 m 0xcae0
 472 411 485 401 473 382 c 0
 468 374 457 367 450 366 c 0
 400 359 398 356 409 297 c 0
 416 256 419 253 437 251 c 0
 448 250 459 246 462 243 c 0
 469 236 444 201 430 201 c 0xdae0
 423 201 420 187 420 133 c 0
 420 96 420 63 419 60 c 0
 418 57 434 52 454 49 c 0
 474 46 502 42 514 40 c 0
 540 36 542 25 520 5 c 0
 505 -9 501 -9 450 -3 c 0
 421 1 365 2 326 0 c 0
 267 -3 256 -2 253 7 c 0
 246 25 262 35 313 44 c 0
 340 49 366 54 370 55 c 0
 376 57 378 167 373 196 c 0
 373 199 352 199 328 196 c 0
 289 193 284 193 284 204 c 0
 284 223 305 242 326 242 c 0
 368 242 372 252 358 317 c 2
 351 351 l 1
 323 351 l 2
 287 351 275 359 280 377 c 0
 286 395 293 397 362 399 c 0xece0
 395 400 431 402 443 405 c 0xcae0
707 383 m 0
 717 395 730 395 735 383 c 0
 739 372 749 177 749 109 c 0
 749 42 738 1 707 -44 c 0
 687 -74 639 -119 627 -119 c 0
 613 -119 624 -98 649 -76 c 0
 661 -66 680 -39 690 -18 c 0
 708 18 708 27 709 113 c 0
 710 163 708 243 705 289 c 0
 702 348 702 377 707 383 c 0
486 309 m 0
 496 323 509 329 509 319 c 0
 509 316 538 313 573 313 c 0
 608 313 639 312 641 309 c 0
 651 299 646 196 635 169 c 2
 624 141 l 1
 575 136 l 2
 512 129 514 128 511 136 c 0
 506 152 528 169 563 176 c 2
 601 184 l 1
 603 227 l 2
 605 267 604 269 589 270 c 0
 580 270 566 271 556 273 c 0
 528 277 520 267 519 227 c 0
 518 188 499 134 489 144 c 0
 486 147 481 183 479 223 c 0
 476 279 478 298 486 309 c 0
EndSplineSet
EndChar
StartChar: uni745B
Encoding: 12621 29787 757
Width: 1000
VWidth: 0
Flags: W
HStem: 43 39<393.348 464.804> 115 48<338.241 388.524> 116 37<235.237 283.947> 203 40<527.682 574.288> 259 46<203.468 274.5> 326 48<573.591 625>
VStem: 292 41<-20.2688 112.792> 463 34<105.154 243.042> 521 29<377.673 454.746> 561 34<48.0342 55.7969> 584 38<111.202 208.632> 633 36<381.779 468.752>
LayerCount: 2
Back
Fore
SplineSet
643 469 m 0x9fb0
 661 491 670 475 669 424 c 0
 668 381 672 378 706 384 c 0
 739 390 745 388 745 371 c 0
 745 353 724 338 697 335 c 0
 677 333 674 330 672 313 c 0
 671 302 664 286 659 277 c 0
 645 257 648 254 677 262 c 0
 690 266 706 266 712 264 c 0
 725 260 725 259 728 179 c 0
 729 150 731 124 733 120 c 0
 736 117 752 111 770 109 c 0
 833 100 838 95 811 63 c 2
 796 44 l 1
 752 55 l 2
 706 65 595 67 595 57 c 0
 595 54 609 48 625 44 c 0
 641 40 664 29 678 19 c 0
 692 10 705 3 708 3 c 0
 718 3 813 -89 813 -99 c 0
 813 -110 799 -125 781 -136 c 0
 776 -139 756 -124 730 -97 c 0
 680 -47 654 -27 604 0 c 0
 571 17 566 19 561 9 c 0
 558 2 551 -7 546 -12 c 0
 542 -17 532 -30 527 -40 c 0
 515 -64 463 -120 438 -136 c 0
 427 -142 413 -147 408 -144 c 0
 390 -138 397 -120 420 -110 c 0
 449 -98 509 -39 525 -9 c 0
 531 3 541 21 548 30 c 0
 555 39 561 49 561 53 c 0x9fd0
 561 60 457 53 416 43 c 0
 385 35 382 38 392 60 c 0
 398 74 407 79 429 82 c 0
 472 88 475 102 463 192 c 0
 460 212 461 224 468 234 c 0
 485 258 496 234 497 168 c 0
 498 129 502 108 508 105 c 0
 519 98 568 102 577 111 c 0
 581 115 584 139 584 164 c 0
 585 214 586 215 536 203 c 0
 526 201 521 203 521 209 c 0
 521 221 541 240 558 243 c 0
 567 244 573 251 575 265 c 0
 582 312 603 321 612 282 c 0
 619 248 627 254 626 291 c 2
 625 326 l 1
 601 326 l 2
 583 326 577 324 576 312 c 0
 574 296 543 263 536 270 c 0
 534 273 530 286 528 300 c 0
 524 324 523 326 497 327 c 0
 451 328 446 329 446 340 c 0
 446 355 478 375 488 365 c 0
 493 360 499 359 508 364 c 0
 517 369 521 379 521 403 c 0
 522 431 532 459 542 459 c 0
 544 459 548 442 550 422 c 0
 553 402 560 381 565 377 c 0
 570 373 588 371 604 372 c 2
 633 374 l 1
 633 417 l 2
 634 440 638 464 643 469 c 0x9fb0
684 217 m 0
 680 222 671 228 665 229 c 0
 651 233 623 224 622 216 c 0x9fb0
 622 213 621 205 620 200 c 0
 610 152 609 107 617 104 c 0
 629 100 677 109 685 117 c 0
 694 126 694 206 684 217 c 0
350 309 m 0
 415 322 435 316 413 289 c 0
 405 279 389 272 364 268 c 0
 344 265 326 259 323 255 c 0
 316 243 328 172 338 165 c 0
 343 162 357 161 369 163 c 0
 397 168 404 156 387 134 c 0
 377 122 366 115 353 115 c 0xdf90
 335 115 334 113 333 93 c 0
 332 80 335 58 338 42 c 0
 342 20 339 11 329 -3 c 0
 322 -12 317 -20 318 -21 c 0
 319 -22 341 -21 365 -17 c 0
 443 -5 472 -21 439 -57 c 0
 428 -69 421 -70 403 -66 c 0
 368 -59 317 -62 255 -74 c 0
 184 -88 174 -88 174 -76 c 0
 174 -58 193 -46 229 -41 c 0
 297 -31 295 -34 292 41 c 0
 291 77 287 109 285 113 c 0
 282 117 270 119 255 116 c 0
 227 111 223 116 235 140 c 0
 240 148 249 153 262 153 c 0xbf90
 273 153 283 155 284 158 c 0
 286 161 286 183 283 207 c 2
 279 251 l 1
 243 259 l 2
 202 269 198 270 204 285 c 0
 210 301 236 308 280 305 c 0
 302 303 333 305 350 309 c 0
EndSplineSet
EndChar
StartChar: uni76C8
Encoding: 12622 30408 758
Width: 1000
VWidth: 0
Flags: W
HStem: -138 64<717 810.659> 106 48<587.833 655.413> 168 47<233.542 288.736> 443 44<332 431.887>
VStem: 310 30<111.739 126.946> 323 41<-83.7853 -48> 450 42<-67.3281 90.8465> 450 11<-76 -71.782> 536 31<-68.2567 99.8125> 676 41<-74 101.355>
LayerCount: 2
Back
Fore
SplineSet
318 469 m 2xf8c0
 332 487 l 1
 442 484 l 2
 503 482 565 479 580 477 c 0
 612 472 644 456 644 446 c 0
 644 436 631 411 616 394 c 0
 598 376 603 367 636 362 c 0
 651 360 680 350 701 340 c 2
 740 323 l 1
 737 289 l 2
 734 269 722 235 706 205 c 0
 684 161 682 154 692 154 c 0
 716 154 719 138 718 31 c 2
 717 -74 l 1
 757 -77 l 2
 779 -79 804 -84 811 -89 c 0
 824 -96 824 -98 814 -116 c 0
 805 -132 800 -135 776 -133 c 0
 711 -128 340 -131 299 -138 c 0
 274 -142 236 -146 216 -149 c 2
 179 -153 l 1
 189 -138 l 2
 200 -122 247 -102 299 -94 c 2
 323 -90 l 1xf4c0
 320 -48 l 2
 318 -25 315 18 310 49 c 0
 305 90 304 107 310 119 c 0
 321 138 342 136 340 115 c 0
 338 97 343 96 359 110 c 0
 365 115 390 123 417 127 c 0
 443 131 476 136 491 139 c 2
 518 145 l 1
 495 160 l 2
 466 178 458 178 433 160 c 0
 408 142 365 135 365 148 c 0
 365 165 375 173 408 187 c 0
 441 201 441 202 431 220 c 0
 426 231 417 250 411 262 c 0
 405 275 399 290 399 295 c 0
 399 300 385 287 367 264 c 0
 326 212 269 168 242 168 c 0
 231 168 223 171 223 174 c 0
 223 186 252 215 264 215 c 0
 286 215 347 269 380 320 c 0
 398 347 413 372 413 377 c 0
 413 382 419 395 425 409 c 0
 431 422 434 434 432 436 c 0
 430 438 401 442 369 443 c 0
 336 444 309 447 307 448 c 0
 306 450 311 459 318 469 c 2xf8c0
530 432 m 0
 486 441 481 441 466 432 c 0
 452 425 436 373 445 364 c 0
 448 361 470 353 494 347 c 0
 530 338 538 338 543 346 c 0
 546 351 557 367 569 381 c 0
 589 405 589 409 578 416 c 0
 571 421 550 428 530 432 c 0
601 320 m 0
 557 335 546 334 551 317 c 0
 553 309 545 289 529 262 c 0
 505 223 504 218 514 211 c 0
 520 206 533 202 544 202 c 0
 575 202 592 189 587 170 c 0
 583 154 584 154 613 154 c 0
 642 154 644 156 663 187 c 0
 683 218 700 267 695 277 c 0
 691 284 636 309 601 320 c 0
469 308 m 0
 457 313 446 317 443 317 c 0
 436 317 446 278 458 260 c 0
 472 238 485 238 499 260 c 0
 513 280 504 293 469 308 c 0
670 100 m 0
 665 103 642 106 619 106 c 2
 577 106 l 1
 573 84 l 2
 570 72 568 28 567 -12 c 2
 566 -86 l 1
 616 -82 l 2
 644 -80 667 -76 669 -75 c 0
 670 -73 675 -34 676 12 c 0
 679 76 677 96 670 100 c 0
536 81 m 0
 535 97 533 100 516 100 c 0
 481 100 478 85 492 -17 c 0xf2c0
 495 -46 494 -49 478 -62 c 0
 468 -69 461 -77 461 -79 c 0xf1c0
 461 -81 473 -83 489 -83 c 0
 522 -83 525 -75 532 2 c 0
 537 64 537 57 536 81 c 0
444 83 m 0
 440 94 425 94 386 87 c 0
 340 78 341 81 359 -7 c 0
 364 -30 365 -57 364 -67 c 0
 360 -86 366 -87 420 -80 c 2
 450 -76 l 1xf5c0
 450 -2 l 2
 449 39 447 78 444 83 c 0
EndSplineSet
EndChar
